<svg width="1051" height="189" viewBox="0 0 1051 189" fill="none" xmlns="http://www.w3.org/2000/svg">
<path d="M1049.25 94L996.077 186.098C995.72 186.716 995.06 187.098 994.345 187.098H888M1039.25 78L986.078 169.928C985.72 170.546 985.06 170.927 984.346 170.927H878M878 171L888 187M1039.5 78L1049 93.5M19.5742 149.602L69.3789 1.16406H51.4102L1.41016 149.602H19.5742ZM97.0508 149.602L146.855 1.16406H128.887L78.8867 149.602H97.0508ZM268.898 87.1016C299.758 87.1016 317.922 71.9648 317.922 46.8672C317.922 21.5742 299.465 7.02344 268.898 7.02344H223.098V133H242.629V87.1016H268.898ZM268.605 23.7227C289.504 23.7227 300.93 30.9492 300.93 46.1836C300.93 61.5156 289.309 70.3047 268.605 70.3047H242.629V23.7227H268.605ZM440.906 133H461.902L409.559 7.02344H389.148L337.781 133H357.508L371.863 96.8672H426.062L440.906 133ZM399.207 30.9492L419.422 80.4609H378.406L399.207 30.9492ZM535.57 87.1016C566.43 87.1016 584.594 71.9648 584.594 46.8672C584.594 21.5742 566.137 7.02344 535.57 7.02344H489.77V133H509.301V87.1016H535.57ZM535.277 23.7227C556.176 23.7227 567.602 30.9492 567.602 46.1836C567.602 61.5156 555.98 70.3047 535.277 70.3047H509.301V23.7227H535.277ZM614.902 133H704.648V116.105H634.043V76.457H696.934V59.7578H634.043V23.918H702.988V7.02344H614.902V133ZM819.723 133H840.719C836.715 128.703 835.543 126.164 834.957 122.648C834.273 118.938 833.395 112.102 832.613 101.945C831.539 88.7617 826.852 79.875 816.012 75.6758C829.195 71.9648 837.203 61.125 837.203 44.8164C837.203 20.8906 820.504 7.02344 789.645 7.02344H738.473V133H757.809V83.3906H791.012C805.27 83.3906 812.594 90.3242 813.473 104.875C813.863 112.102 814.254 118.547 814.938 123.332C815.719 128.801 817.379 132.219 819.723 133ZM788.668 23.7227C808.395 23.7227 817.281 31.9258 817.281 45.4023C817.281 59.6602 808.297 66.9844 788.668 66.9844H757.809V23.7227H788.668ZM916.633 135.344C945.734 135.344 965.363 121.184 965.363 99.2109C965.363 77.6289 953.84 67.375 930.598 62.8828L908.43 58.5859C893 55.5586 887.434 51.9453 887.434 40.3242C887.434 28.8984 896.125 20.5 914.68 20.5C933.137 20.5 944.758 28.8984 945.246 49.6992H963.508C963.215 19.3281 943.977 4.67969 914.875 4.67969C885.773 4.67969 868.293 19.5234 868.293 42.1797C868.293 60.832 879.133 72.0625 900.031 76.0664L924.25 80.7539C940.363 83.8789 946.418 88.957 946.418 100.09C946.418 111.125 936.555 119.23 916.926 119.23C907.355 119.23 899.348 116.301 892.902 110.734C886.359 105.07 883.039 101.652 882.551 89.8359H864.582C864.68 121.379 887.336 135.344 916.633 135.344Z" stroke="#AF2319" stroke-opacity="0.25" stroke-width="2" stroke-linecap="round"/>
</svg>
