<svg width="412" height="69" viewBox="0 0 412 69" fill="none" xmlns="http://www.w3.org/2000/svg">
<line x1="411.5" y1="0.5" x2="0.5" y2="0.5" stroke="#AF2319" stroke-linecap="square"/>
<line x1="411.5" y1="68.5" x2="0.5" y2="68.5" stroke="#AF2319" stroke-linecap="square"/>
<line x1="411.5" y1="67.5" x2="411.5" y2="39.5" stroke="#AF2319" stroke-linecap="square"/>
<line x1="0.5" y1="67.5" x2="0.500003" y2="39.5" stroke="#AF2319" stroke-linecap="square"/>
<line x1="0.5" y1="28.5" x2="0.500003" y2="0.5" stroke="#AF2319" stroke-linecap="square"/>
<line x1="411.5" y1="28.5" x2="411.5" y2="0.5" stroke="#AF2319" stroke-linecap="square"/>
<path d="M30.1973 45H46.3516V41.959H33.6426V34.8223H44.9629V31.8164H33.6426V25.3652H46.0527V22.3242H30.1973V45ZM66.0988 45H70.3176L61.5637 33.1348L69.5617 22.3242H65.5012L59.6301 30.5332L53.7414 22.3242H49.5402L57.5031 33.3281L48.7844 45H52.8273L59.4016 35.9824L66.0988 45ZM82.7172 45.4395C88.518 45.4219 92.227 42.0645 93.1762 36.5801H89.7133C89.0453 40.1484 86.5492 42.3105 82.682 42.3105C78.3754 42.3105 75.2465 38.9707 75.2465 33.6621C75.2465 28.3535 78.3754 24.9961 82.682 24.9961C86.5668 24.9961 89.0277 27 89.6957 30.5332H93.1586C92.1918 25.1191 88.4652 21.9023 82.7172 21.9023C76.3715 21.9023 71.6078 26.7715 71.6078 33.6621C71.6078 37.1074 72.6625 39.9375 74.7895 42.1523C76.9164 44.3496 79.5531 45.4395 82.7172 45.4395ZM97.3316 45H113.486V41.959H100.777V34.8223H112.097V31.8164H100.777V25.3652H113.187V22.3242H97.3316V45ZM118.889 45H134.657V41.959H122.423V22.3242H118.889V45ZM156.099 45C163.2 45 167.665 40.6934 167.665 33.6621C167.665 26.6309 163.2 22.3242 156.099 22.3242H147.837V45H156.099ZM155.923 25.3301C161.144 25.3301 164.167 28.3535 164.167 33.6621C164.185 38.9707 161.161 41.9941 155.923 41.9941H151.405V25.3301H155.923ZM180.733 45.4219C185.971 45.4219 189.504 42.873 189.504 38.918C189.504 35.0332 187.43 33.1875 183.246 32.3789L179.256 31.6055C176.479 31.0605 175.477 30.4102 175.477 28.3184C175.477 26.2617 177.041 24.75 180.381 24.75C183.704 24.75 185.795 26.2617 185.883 30.0059H189.17C189.118 24.5391 185.655 21.9023 180.416 21.9023C175.178 21.9023 172.032 24.5742 172.032 28.6523C172.032 32.0098 173.983 34.0312 177.745 34.752L182.104 35.5957C185.004 36.1582 186.094 37.0723 186.094 39.0762C186.094 41.0625 184.319 42.5215 180.786 42.5215C179.063 42.5215 177.621 41.9941 176.461 40.9922C175.284 39.9727 174.686 39.3574 174.598 37.2305H171.364C171.381 42.9082 175.459 45.4219 180.733 45.4219ZM202.748 45.4219C207.986 45.4219 211.519 42.873 211.519 38.918C211.519 35.0332 209.445 33.1875 205.261 32.3789L201.271 31.6055C198.494 31.0605 197.492 30.4102 197.492 28.3184C197.492 26.2617 199.056 24.75 202.396 24.75C205.718 24.75 207.81 26.2617 207.898 30.0059H211.185C211.132 24.5391 207.67 21.9023 202.431 21.9023C197.193 21.9023 194.046 24.5742 194.046 28.6523C194.046 32.0098 195.998 34.0312 199.759 34.752L204.119 35.5957C207.019 36.1582 208.109 37.0723 208.109 39.0762C208.109 41.0625 206.334 42.5215 202.8 42.5215C201.078 42.5215 199.636 41.9941 198.476 40.9922C197.298 39.9727 196.701 39.3574 196.613 37.2305H193.379C193.396 42.9082 197.474 45.4219 202.748 45.4219ZM233.277 36.7383C238.832 36.7383 242.102 34.0137 242.102 29.4961C242.102 24.9434 238.779 22.3242 233.277 22.3242H225.033V45H228.549V36.7383H233.277ZM233.225 25.3301C236.986 25.3301 239.043 26.6309 239.043 29.373C239.043 32.1328 236.951 33.7148 233.225 33.7148H228.549V25.3301H233.225ZM261.462 45H265.241C264.521 44.2266 264.31 43.7695 264.204 43.1367C264.081 42.4688 263.923 41.2383 263.782 39.4102C263.589 37.0371 262.745 35.4375 260.794 34.6816C263.167 34.0137 264.609 32.0625 264.609 29.127C264.609 24.8203 261.603 22.3242 256.048 22.3242H246.837V45H250.318V36.0703H256.294C258.861 36.0703 260.179 37.3184 260.337 39.9375C260.407 41.2383 260.478 42.3984 260.601 43.2598C260.741 44.2441 261.04 44.8594 261.462 45ZM255.872 25.3301C259.423 25.3301 261.023 26.8066 261.023 29.2324C261.023 31.7988 259.405 33.1172 255.872 33.1172H250.318V25.3301H255.872ZM280.401 45.4219C287.01 45.4219 291.686 40.6055 291.686 33.6621C291.686 30.1992 290.631 27.3691 288.539 25.1719C286.448 22.9922 283.723 21.9023 280.418 21.9023C273.791 21.9023 269.151 26.7188 269.151 33.6621C269.151 40.6055 273.791 45.4219 280.401 45.4219ZM280.401 25.0137C284.989 25.0137 287.977 28.3184 287.995 33.6621C287.995 39.0059 285.041 42.3105 280.418 42.3105C275.795 42.3105 272.789 38.9707 272.789 33.6621C272.789 28.3535 275.813 25.0137 280.401 25.0137ZM303.207 45.4395C308.093 45.4395 311.099 42.5391 311.099 37.1953V22.3242H307.601V37.125C307.601 40.7109 306.142 42.416 303.259 42.416C300.306 42.416 298.636 40.7285 298.408 36.9316H295.05C295.209 42.5391 298.32 45.4395 303.207 45.4395ZM316.96 45H333.114V41.959H320.405V34.8223H331.725V31.8164H320.405V25.3652H332.815V22.3242H316.96V45ZM347.746 45.4395C353.547 45.4219 357.256 42.0645 358.205 36.5801H354.742C354.074 40.1484 351.578 42.3105 347.711 42.3105C343.404 42.3105 340.275 38.9707 340.275 33.6621C340.275 28.3535 343.404 24.9961 347.711 24.9961C351.596 24.9961 354.057 27 354.725 30.5332H358.188C357.221 25.1191 353.494 21.9023 347.746 21.9023C341.4 21.9023 336.637 26.7715 336.637 33.6621C336.637 37.1074 337.691 39.9375 339.818 42.1523C341.945 44.3496 344.582 45.4395 347.746 45.4395ZM373.558 25.3652H381.732V22.3242H362.009V25.3652H370.042V45H373.558V25.3652Z" fill="white"/>
</svg>
