<svg width="507" height="69" viewBox="0 0 507 69" fill="none" xmlns="http://www.w3.org/2000/svg">
<line x1="506.5" y1="0.5" x2="0.5" y2="0.5" stroke="#AF2319" stroke-linecap="square"/>
<line x1="506.5" y1="68.5" x2="0.5" y2="68.5" stroke="#AF2319" stroke-linecap="square"/>
<line x1="506.5" y1="67.5" x2="506.5" y2="39.5" stroke="#AF2319" stroke-linecap="square"/>
<line x1="0.639282" y1="67.5" x2="0.639285" y2="39.5" stroke="#AF2319" stroke-linecap="square"/>
<line x1="0.639282" y1="28.5" x2="0.639285" y2="0.5" stroke="#AF2319" stroke-linecap="square"/>
<line x1="506.5" y1="28.5" x2="506.5" y2="0.5" stroke="#AF2319" stroke-linecap="square"/>
<path d="M37.1602 46.4219C42.3984 46.4219 45.9316 43.873 45.9316 39.918C45.9316 36.0332 43.8574 34.1875 39.6738 33.3789L35.6836 32.6055C32.9062 32.0605 31.9043 31.4102 31.9043 29.3184C31.9043 27.2617 33.4688 25.75 36.8086 25.75C40.1309 25.75 42.2227 27.2617 42.3105 31.0059H45.5977C45.5449 25.5391 42.082 22.9023 36.8438 22.9023C31.6055 22.9023 28.459 25.5742 28.459 29.6523C28.459 33.0098 30.4102 35.0312 34.1719 35.752L38.5312 36.5957C41.4316 37.1582 42.5215 38.0723 42.5215 40.0762C42.5215 42.0625 40.7461 43.5215 37.2129 43.5215C35.4902 43.5215 34.0488 42.9941 32.8887 41.9922C31.7109 40.9727 31.1133 40.3574 31.0254 38.2305H27.791C27.8086 43.9082 31.8867 46.4219 37.1602 46.4219ZM60.0715 46.4395C65.5734 46.4395 69.2824 43.5215 69.2824 37.2637V23.3242H65.802V37.3516C65.802 41.3418 63.798 43.3457 60.0715 43.3457C56.2746 43.3457 54.4113 41.377 54.4113 37.2988V23.3242H50.8957V37.2637C50.8957 43.5918 54.5695 46.457 60.0715 46.4395ZM84.7758 46.4395C90.5766 46.4219 94.2855 43.0645 95.2348 37.5801H91.7719C91.1039 41.1484 88.6078 43.3105 84.7406 43.3105C80.434 43.3105 77.3051 39.9707 77.3051 34.6621C77.3051 29.3535 80.434 25.9961 84.7406 25.9961C88.6254 25.9961 91.0863 28 91.7543 31.5332H95.2172C94.2504 26.1191 90.5238 22.9023 84.7758 22.9023C78.4301 22.9023 73.6664 27.7715 73.6664 34.6621C73.6664 38.1074 74.7211 40.9375 76.848 43.1523C78.975 45.3496 81.6117 46.4395 84.7758 46.4395ZM110.552 46.4395C116.353 46.4219 120.062 43.0645 121.011 37.5801H117.548C116.88 41.1484 114.384 43.3105 110.517 43.3105C106.211 43.3105 103.082 39.9707 103.082 34.6621C103.082 29.3535 106.211 25.9961 110.517 25.9961C114.402 25.9961 116.863 28 117.531 31.5332H120.994C120.027 26.1191 116.3 22.9023 110.552 22.9023C104.207 22.9023 99.443 27.7715 99.443 34.6621C99.443 38.1074 100.498 40.9375 102.625 43.1523C104.752 45.3496 107.388 46.4395 110.552 46.4395ZM125.167 46H141.321V42.959H128.612V35.8223H139.932V32.8164H128.612V26.3652H141.022V23.3242H125.167V46ZM154.652 46.4219C159.891 46.4219 163.424 43.873 163.424 39.918C163.424 36.0332 161.35 34.1875 157.166 33.3789L153.176 32.6055C150.398 32.0605 149.396 31.4102 149.396 29.3184C149.396 27.2617 150.961 25.75 154.301 25.75C157.623 25.75 159.715 27.2617 159.803 31.0059H163.09C163.037 25.5391 159.574 22.9023 154.336 22.9023C149.098 22.9023 145.951 25.5742 145.951 29.6523C145.951 33.0098 147.902 35.0312 151.664 35.752L156.023 36.5957C158.924 37.1582 160.014 38.0723 160.014 40.0762C160.014 42.0625 158.238 43.5215 154.705 43.5215C152.982 43.5215 151.541 42.9941 150.381 41.9922C149.203 40.9727 148.605 40.3574 148.518 38.2305H145.283C145.301 43.9082 149.379 46.4219 154.652 46.4219ZM176.667 46.4219C181.905 46.4219 185.439 43.873 185.439 39.918C185.439 36.0332 183.364 34.1875 179.181 33.3789L175.191 32.6055C172.413 32.0605 171.411 31.4102 171.411 29.3184C171.411 27.2617 172.976 25.75 176.316 25.75C179.638 25.75 181.73 27.2617 181.818 31.0059H185.105C185.052 25.5391 181.589 22.9023 176.351 22.9023C171.113 22.9023 167.966 25.5742 167.966 29.6523C167.966 33.0098 169.917 35.0312 173.679 35.752L178.038 36.5957C180.939 37.1582 182.029 38.0723 182.029 40.0762C182.029 42.0625 180.253 43.5215 176.72 43.5215C174.997 43.5215 173.556 42.9941 172.396 41.9922C171.218 40.9727 170.62 40.3574 170.532 38.2305H167.298C167.316 43.9082 171.394 46.4219 176.667 46.4219ZM213.806 46H218.148L207.408 33.3262L217.164 23.3242H212.839L202.504 33.8887V23.3242H198.953V46H202.504V37.9316L204.806 35.6113L213.806 46ZM231.989 46.4219C238.598 46.4219 243.274 41.6055 243.274 34.6621C243.274 31.1992 242.22 28.3691 240.128 26.1719C238.036 23.9922 235.311 22.9023 232.007 22.9023C225.38 22.9023 220.739 27.7188 220.739 34.6621C220.739 41.6055 225.38 46.4219 231.989 46.4219ZM231.989 26.0137C236.577 26.0137 239.565 29.3184 239.583 34.6621C239.583 40.0059 236.63 43.3105 232.007 43.3105C227.384 43.3105 224.378 39.9707 224.378 34.6621C224.378 29.3535 227.401 26.0137 231.989 26.0137ZM265.078 46H268.857L259.436 23.3242H255.762L246.516 46H250.066L252.65 39.4961H262.406L265.078 46ZM257.572 27.6309L261.211 36.543H253.828L257.572 27.6309ZM283.226 46.4395C289.027 46.4219 292.736 43.0645 293.685 37.5801H290.222C289.554 41.1484 287.058 43.3105 283.191 43.3105C278.884 43.3105 275.755 39.9707 275.755 34.6621C275.755 29.3535 278.884 25.9961 283.191 25.9961C287.075 25.9961 289.536 28 290.204 31.5332H293.667C292.7 26.1191 288.974 22.9023 283.226 22.9023C276.88 22.9023 272.116 27.7715 272.116 34.6621C272.116 38.1074 273.171 40.9375 275.298 43.1523C277.425 45.3496 280.062 46.4395 283.226 46.4395ZM314.663 46H318.231V23.3242H314.663V32.7109H302.481V23.3242H298.93V46H302.481V35.9453H314.663V46ZM353.7 46L359.518 23.3242H356.126L351.696 40.9902L346.88 23.3242H343.61L338.899 40.9199L334.364 23.3242H330.866L336.667 46H340.604L345.227 29.0371L349.727 46H353.7ZM363.885 46H380.039V42.959H367.33V35.8223H378.65V32.8164H367.33V26.3652H379.74V23.3242H363.885V46ZM395.04 46C400.226 46 403.232 43.7148 403.232 39.6543C403.232 36.8945 401.861 34.9609 399.505 34.2227C401.439 33.502 402.599 31.7617 402.599 29.4941C402.599 25.5918 399.98 23.3242 394.636 23.3242H385.407V46H395.04ZM394.741 26.3301C397.73 26.3301 399.048 27.6133 399.048 29.6348C399.048 31.7793 397.695 32.8867 394.741 32.8867H388.853V26.3301H394.741ZM394.97 35.7695C398.152 35.7695 399.716 37.1934 399.716 39.4258C399.716 41.6406 398.152 42.9941 394.97 42.9941H388.853V35.7695H394.97ZM416.58 46.4219C421.819 46.4219 425.352 43.873 425.352 39.918C425.352 36.0332 423.278 34.1875 419.094 33.3789L415.104 32.6055C412.327 32.0605 411.325 31.4102 411.325 29.3184C411.325 27.2617 412.889 25.75 416.229 25.75C419.551 25.75 421.643 27.2617 421.731 31.0059H425.018C424.965 25.5391 421.502 22.9023 416.264 22.9023C411.026 22.9023 407.879 25.5742 407.879 29.6523C407.879 33.0098 409.83 35.0312 413.592 35.752L417.952 36.5957C420.852 37.1582 421.942 38.0723 421.942 40.0762C421.942 42.0625 420.166 43.5215 416.633 43.5215C414.911 43.5215 413.469 42.9941 412.309 41.9922C411.131 40.9727 410.534 40.3574 410.446 38.2305H407.211C407.229 43.9082 411.307 46.4219 416.58 46.4219ZM430.457 46H433.937V23.3242H430.457V46ZM450.063 26.3652H458.237V23.3242H438.514V26.3652H446.548V46H450.063V26.3652ZM462.709 46H478.863V42.959H466.154V35.8223H477.475V32.8164H466.154V26.3652H478.564V23.3242H462.709V46Z" fill="white"/>
</svg>
