<svg width="418" height="69" viewBox="0 0 418 69" fill="none" xmlns="http://www.w3.org/2000/svg">
<line x1="417.5" y1="0.5" x2="0.5" y2="0.5" stroke="#AF2319" stroke-linecap="square"/>
<line x1="417.5" y1="68.5" x2="0.5" y2="68.5" stroke="#AF2319" stroke-linecap="square"/>
<line x1="417.5" y1="67.5" x2="417.5" y2="39.5" stroke="#AF2319" stroke-linecap="square"/>
<line x1="0.5" y1="67.5" x2="0.500003" y2="39.5" stroke="#AF2319" stroke-linecap="square"/>
<line x1="0.5" y1="28.5" x2="0.500003" y2="0.5" stroke="#AF2319" stroke-linecap="square"/>
<line x1="417.5" y1="28.5" x2="417.5" y2="0.5" stroke="#AF2319" stroke-linecap="square"/>
<path d="M33.5723 26.7891L39.9707 45H42.9238L49.0938 26.8242V45H52.6621V22.3242H47.3887L41.3945 39.9023L35.541 22.3242H30.1973V45H33.5723V26.7891ZM66.9777 45.4395C72.4797 45.4395 76.1887 42.5215 76.1887 36.2637V22.3242H72.7082V36.3516C72.7082 40.3418 70.7043 42.3457 66.9777 42.3457C63.1809 42.3457 61.3176 40.377 61.3176 36.2988V22.3242H57.802V36.2637C57.802 42.5918 61.4758 45.457 66.9777 45.4395ZM90.0297 45.4219C95.268 45.4219 98.8012 42.873 98.8012 38.918C98.8012 35.0332 96.727 33.1875 92.5434 32.3789L88.5531 31.6055C85.7758 31.0605 84.7738 30.4102 84.7738 28.3184C84.7738 26.2617 86.3383 24.75 89.6781 24.75C93.0004 24.75 95.0922 26.2617 95.1801 30.0059H98.4672C98.4145 24.5391 94.9516 21.9023 89.7133 21.9023C84.475 21.9023 81.3285 24.5742 81.3285 28.6523C81.3285 32.0098 83.2797 34.0312 87.0414 34.752L91.4008 35.5957C94.3012 36.1582 95.391 37.0723 95.391 39.0762C95.391 41.0625 93.6156 42.5215 90.0824 42.5215C88.3598 42.5215 86.9184 41.9941 85.7582 40.9922C84.5805 39.9727 83.9828 39.3574 83.8949 37.2305H80.6605C80.6781 42.9082 84.7562 45.4219 90.0297 45.4219ZM103.906 45H107.386V22.3242H103.906V45ZM123.477 45.4395C129.278 45.4219 132.987 42.0645 133.936 36.5801H130.473C129.805 40.1484 127.309 42.3105 123.442 42.3105C119.136 42.3105 116.007 38.9707 116.007 33.6621C116.007 28.3535 119.136 24.9961 123.442 24.9961C127.327 24.9961 129.788 27 130.456 30.5332H133.919C132.952 25.1191 129.225 21.9023 123.477 21.9023C117.132 21.9023 112.368 26.7715 112.368 33.6621C112.368 37.1074 113.423 39.9375 115.55 42.1523C117.677 44.3496 120.313 45.4395 123.477 45.4395ZM153.121 45H156.9L147.479 22.3242H143.805L134.559 45H138.109L140.693 38.4961H150.449L153.121 45ZM145.615 26.6309L149.254 35.543H141.871L145.615 26.6309ZM161.196 45H176.964V41.959H164.73V22.3242H161.196V45ZM198.107 45.4219C203.345 45.4219 206.879 42.873 206.879 38.918C206.879 35.0332 204.804 33.1875 200.621 32.3789L196.63 31.6055C193.853 31.0605 192.851 30.4102 192.851 28.3184C192.851 26.2617 194.416 24.75 197.755 24.75C201.078 24.75 203.17 26.2617 203.257 30.0059H206.545C206.492 24.5391 203.029 21.9023 197.791 21.9023C192.552 21.9023 189.406 24.5742 189.406 28.6523C189.406 32.0098 191.357 34.0312 195.119 34.752L199.478 35.5957C202.379 36.1582 203.468 37.0723 203.468 39.0762C203.468 41.0625 201.693 42.5215 198.16 42.5215C196.437 42.5215 194.996 41.9941 193.836 40.9922C192.658 39.9727 192.06 39.3574 191.972 37.2305H188.738C188.755 42.9082 192.834 45.4219 198.107 45.4219ZM228.805 45H232.585L223.163 22.3242H219.489L210.243 45H213.794L216.378 38.4961H226.134L228.805 45ZM221.3 26.6309L224.938 35.543H217.555L221.3 26.6309ZM252.648 45H255.461V22.3242H252.104V38.7598L240.01 22.3242H236.881V45H240.238V28.2129L252.648 45ZM271.745 25.3652H279.919V22.3242H260.196V25.3652H268.23V45H271.745V25.3652ZM301.354 45H305.133L295.711 22.3242H292.038L282.791 45H286.342L288.926 38.4961H298.682L301.354 45ZM293.848 26.6309L297.487 35.543H290.104L293.848 26.6309ZM327.805 25.3652H335.979V22.3242H316.257V25.3652H324.29V45H327.805V25.3652ZM350.945 45.4219C357.555 45.4219 362.23 40.6055 362.23 33.6621C362.23 30.1992 361.176 27.3691 359.084 25.1719C356.992 22.9922 354.268 21.9023 350.963 21.9023C344.336 21.9023 339.695 26.7188 339.695 33.6621C339.695 40.6055 344.336 45.4219 350.945 45.4219ZM350.945 25.0137C355.533 25.0137 358.521 28.3184 358.539 33.6621C358.539 39.0059 355.586 42.3105 350.963 42.3105C346.34 42.3105 343.334 38.9707 343.334 33.6621C343.334 28.3535 346.357 25.0137 350.945 25.0137ZM377.636 36.123L386.46 22.3242H382.628L376.107 32.7129L369.321 22.3242H365.384L374.208 36.123V45H377.636V36.123Z" fill="white"/>
</svg>
