<svg width="775" height="69" viewBox="0 0 775 69" fill="none" xmlns="http://www.w3.org/2000/svg">
<line x1="774.5" y1="0.5" x2="0.5" y2="0.5" stroke="#AF2319" stroke-linecap="square"/>
<line x1="774.5" y1="68.5" x2="0.5" y2="68.5" stroke="#AF2319" stroke-linecap="square"/>
<line x1="774.5" y1="67.5" x2="774.5" y2="39.5" stroke="#AF2319" stroke-linecap="square"/>
<line x1="1.24146" y1="67.5" x2="1.24146" y2="39.5" stroke="#AF2319" stroke-linecap="square"/>
<line x1="1.24146" y1="28.5" x2="1.24146" y2="0.5" stroke="#AF2319" stroke-linecap="square"/>
<line x1="774.5" y1="28.5" x2="774.5" y2="0.5" stroke="#AF2319" stroke-linecap="square"/>
<path d="M50.2031 46L56.0215 23.3242H52.6289L48.1992 40.9902L43.3828 23.3242H40.1133L35.4023 40.9199L30.8672 23.3242H27.3691L33.1699 46H37.1074L41.7305 29.0371L46.2305 46H50.2031ZM70.6008 46.4219C77.2102 46.4219 81.8859 41.6055 81.8859 34.6621C81.8859 31.1992 80.8312 28.3691 78.7395 26.1719C76.6477 23.9922 73.923 22.9023 70.6184 22.9023C63.9914 22.9023 59.3508 27.7188 59.3508 34.6621C59.3508 41.6055 63.9914 46.4219 70.6008 46.4219ZM70.6008 26.0137C75.1887 26.0137 78.177 29.3184 78.1945 34.6621C78.1945 40.0059 75.2414 43.3105 70.6184 43.3105C65.9953 43.3105 62.9895 39.9707 62.9895 34.6621C62.9895 29.3535 66.0129 26.0137 70.6008 26.0137ZM101.633 46H105.412C104.692 45.2266 104.481 44.7695 104.375 44.1367C104.252 43.4688 104.094 42.2383 103.954 40.4102C103.76 38.0371 102.916 36.4375 100.965 35.6816C103.338 35.0137 104.78 33.0625 104.78 30.127C104.78 25.8203 101.774 23.3242 96.2191 23.3242H87.0082V46H90.4887V37.0703H96.4652C99.0316 37.0703 100.35 38.3184 100.508 40.9375C100.579 42.2383 100.649 43.3984 100.772 44.2598C100.912 45.2441 101.211 45.8594 101.633 46ZM96.0434 26.3301C99.5941 26.3301 101.194 27.8066 101.194 30.2324C101.194 32.7988 99.5766 34.1172 96.0434 34.1172H90.4887V26.3301H96.0434ZM124.984 46H128.763C128.043 45.2266 127.832 44.7695 127.726 44.1367C127.603 43.4688 127.445 42.2383 127.304 40.4102C127.111 38.0371 126.267 36.4375 124.316 35.6816C126.689 35.0137 128.13 33.0625 128.13 30.127C128.13 25.8203 125.125 23.3242 119.57 23.3242H110.359V46H113.839V37.0703H119.816C122.382 37.0703 123.701 38.3184 123.859 40.9375C123.929 42.2383 124 43.3984 124.123 44.2598C124.263 45.2441 124.562 45.8594 124.984 46ZM119.394 26.3301C122.945 26.3301 124.545 27.8066 124.545 30.2324C124.545 32.7988 122.927 34.1172 119.394 34.1172H113.839V26.3301H119.394ZM143.993 37.123L152.817 23.3242H148.985L142.464 33.7129L135.679 23.3242H131.741L140.565 37.123V46H143.993V37.123ZM160.523 26.3652H172.512V23.3242H157.025V46H160.523V36.2617H170.789V33.2031H160.523V26.3652ZM192.013 46H195.792C195.071 45.2266 194.861 44.7695 194.755 44.1367C194.632 43.4688 194.474 42.2383 194.333 40.4102C194.14 38.0371 193.296 36.4375 191.345 35.6816C193.718 35.0137 195.159 33.0625 195.159 30.127C195.159 25.8203 192.154 23.3242 186.599 23.3242H177.388V46H180.868V37.0703H186.845C189.411 37.0703 190.73 38.3184 190.888 40.9375C190.958 42.2383 191.029 43.3984 191.152 44.2598C191.292 45.2441 191.591 45.8594 192.013 46ZM186.423 26.3301C189.974 26.3301 191.573 27.8066 191.573 30.2324C191.573 32.7988 189.956 34.1172 186.423 34.1172H180.868V26.3301H186.423ZM200.774 46H216.928V42.959H204.219V35.8223H215.539V32.8164H204.219V26.3652H216.629V23.3242H200.774V46ZM222.296 46H238.451V42.959H225.742V35.8223H237.062V32.8164H225.742V26.3652H238.152V23.3242H222.296V46ZM252.088 46H267.855V42.959H255.621V23.3242H252.088V46ZM272.767 46H288.921V42.959H276.212V35.8223H287.532V32.8164H276.212V26.3652H288.622V23.3242H272.767V46ZM304.414 46.4219C310.198 46.4219 314.17 42.6426 314.891 36.9297V33.8887H304.186L304.168 37.1758L311.516 37.1934C311.059 40.9199 308.334 43.3105 304.432 43.3105C299.844 43.3105 296.856 39.9707 296.856 34.6621C296.856 29.3535 299.862 26.0137 304.414 26.0137C307.877 26.0137 310.409 27.8418 311.498 31.2695H314.856C314.276 29.1602 313.748 27.543 312.465 26.1719C310.391 23.9922 307.702 22.9023 304.432 22.9023C297.858 22.9023 293.252 27.7188 293.252 34.6621C293.252 41.6055 297.858 46.4219 304.414 46.4219ZM336.994 46H340.773L331.351 23.3242H327.677L318.431 46H321.982L324.566 39.4961H334.322L336.994 46ZM329.488 27.6309L333.127 36.543H325.744L329.488 27.6309ZM345.069 46H360.837V42.959H348.602V23.3242H345.069V46ZM382.279 46C389.38 46 393.845 41.6934 393.845 34.6621C393.845 27.6309 389.38 23.3242 382.279 23.3242H374.017V46H382.279ZM382.103 26.3301C387.323 26.3301 390.347 29.3535 390.347 34.6621C390.364 39.9707 387.341 42.9941 382.103 42.9941H377.585V26.3301H382.103ZM409.163 46.4219C415.772 46.4219 420.448 41.6055 420.448 34.6621C420.448 31.1992 419.393 28.3691 417.301 26.1719C415.209 23.9922 412.485 22.9023 409.18 22.9023C402.553 22.9023 397.913 27.7188 397.913 34.6621C397.913 41.6055 402.553 46.4219 409.163 46.4219ZM409.163 26.0137C413.75 26.0137 416.739 29.3184 416.756 34.6621C416.756 40.0059 413.803 43.3105 409.18 43.3105C404.557 43.3105 401.551 39.9707 401.551 34.6621C401.551 29.3535 404.575 26.0137 409.163 26.0137ZM435.642 46.4395C441.443 46.4219 445.152 43.0645 446.101 37.5801H442.638C441.97 41.1484 439.474 43.3105 435.607 43.3105C431.3 43.3105 428.171 39.9707 428.171 34.6621C428.171 29.3535 431.3 25.9961 435.607 25.9961C439.492 25.9961 441.953 28 442.621 31.5332H446.084C445.117 26.1191 441.39 22.9023 435.642 22.9023C429.296 22.9023 424.533 27.7715 424.533 34.6621C424.533 38.1074 425.587 40.9375 427.714 43.1523C429.841 45.3496 432.478 46.4395 435.642 46.4395ZM459.995 46.4395C465.497 46.4395 469.206 43.5215 469.206 37.2637V23.3242H465.725V37.3516C465.725 41.3418 463.721 43.3457 459.995 43.3457C456.198 43.3457 454.335 41.377 454.335 37.2988V23.3242H450.819V37.2637C450.819 43.5918 454.493 46.457 459.995 46.4395ZM478.459 27.7891L484.857 46H487.811L493.98 27.8242V46H497.549V23.3242H492.275L486.281 40.9023L480.428 23.3242H475.084V46H478.459V27.7891ZM502.196 46H518.351V42.959H505.642V35.8223H516.962V32.8164H505.642V26.3652H518.052V23.3242H502.196V46ZM539.487 46H542.299V23.3242H538.942V39.7598L526.848 23.3242H523.719V46H527.077V29.2129L539.487 46ZM558.584 26.3652H566.757V23.3242H547.035V26.3652H555.068V46H558.584V26.3652ZM579.192 46.4219C584.43 46.4219 587.964 43.873 587.964 39.918C587.964 36.0332 585.889 34.1875 581.706 33.3789L577.716 32.6055C574.938 32.0605 573.936 31.4102 573.936 29.3184C573.936 27.2617 575.501 25.75 578.841 25.75C582.163 25.75 584.255 27.2617 584.343 31.0059H587.63C587.577 25.5391 584.114 22.9023 578.876 22.9023C573.638 22.9023 570.491 25.5742 570.491 29.6523C570.491 33.0098 572.442 35.0312 576.204 35.752L580.563 36.5957C583.464 37.1582 584.554 38.0723 584.554 40.0762C584.554 42.0625 582.778 43.5215 579.245 43.5215C577.522 43.5215 576.081 42.9941 574.921 41.9922C573.743 40.9727 573.145 40.3574 573.057 38.2305H569.823C569.841 43.9082 573.919 46.4219 579.192 46.4219ZM622.484 46L628.302 23.3242H624.909L620.48 40.9902L615.663 23.3242H612.394L607.683 40.9199L603.148 23.3242H599.65L605.45 46H609.388L614.011 29.0371L618.511 46H622.484ZM632.668 46H648.823V42.959H636.114V35.8223H647.434V32.8164H636.114V26.3652H648.524V23.3242H632.668V46ZM663.824 46C669.009 46 672.015 43.7148 672.015 39.6543C672.015 36.8945 670.644 34.9609 668.289 34.2227C670.222 33.502 671.382 31.7617 671.382 29.4941C671.382 25.5918 668.763 23.3242 663.42 23.3242H654.191V46H663.824ZM663.525 26.3301C666.513 26.3301 667.832 27.6133 667.832 29.6348C667.832 31.7793 666.478 32.8867 663.525 32.8867H657.636V26.3301H663.525ZM663.754 35.7695C666.935 35.7695 668.5 37.1934 668.5 39.4258C668.5 41.6406 666.935 42.9941 663.754 42.9941H657.636V35.7695H663.754ZM685.364 46.4219C690.602 46.4219 694.136 43.873 694.136 39.918C694.136 36.0332 692.061 34.1875 687.878 33.3789L683.888 32.6055C681.11 32.0605 680.108 31.4102 680.108 29.3184C680.108 27.2617 681.673 25.75 685.013 25.75C688.335 25.75 690.427 27.2617 690.514 31.0059H693.802C693.749 25.5391 690.286 22.9023 685.048 22.9023C679.809 22.9023 676.663 25.5742 676.663 29.6523C676.663 33.0098 678.614 35.0312 682.376 35.752L686.735 36.5957C689.636 37.1582 690.725 38.0723 690.725 40.0762C690.725 42.0625 688.95 43.5215 685.417 43.5215C683.694 43.5215 682.253 42.9941 681.093 41.9922C679.915 40.9727 679.317 40.3574 679.229 38.2305H675.995C676.013 43.9082 680.091 46.4219 685.364 46.4219ZM699.24 46H702.721V23.3242H699.24V46ZM718.847 26.3652H727.021V23.3242H707.298V26.3652H715.331V46H718.847V26.3652ZM731.493 46H747.647V42.959H734.938V35.8223H746.258V32.8164H734.938V26.3652H747.348V23.3242H731.493V46Z" fill="white"/>
</svg>
