<svg width="100" height="99" viewBox="0 0 100 99" fill="none" xmlns="http://www.w3.org/2000/svg">
<line x1="2.3421" y1="60.4297" x2="28.465" y2="34.3067" stroke="#34302C" stroke-width="5"/>
<line x1="32.1968" y1="30.5749" x2="42.1484" y2="20.6233" stroke="#34302C" stroke-width="5"/>
<line x1="68.8934" y1="67.2714" x2="78.845" y2="57.3198" stroke="#34302C" stroke-width="5"/>
<line x1="39.0386" y1="97.1261" x2="65.1615" y2="71.0032" stroke="#34302C" stroke-width="5"/>
<line x1="28.3715" y1="85.6272" x2="30.9631" y2="79.9258" stroke="#34302C" stroke-width="5"/>
<line x1="24.9979" y1="81.7723" x2="32.2542" y2="78.6625" stroke="#34302C" stroke-width="5"/>
<line x1="15.1221" y1="71.3388" x2="28.5982" y2="52.0576" stroke="#34302C" stroke-width="5"/>
<line x1="8.94159" y1="66.5147" x2="29.1558" y2="51.4836" stroke="#34302C" stroke-width="5"/>
<line x1="3.38984" y1="57.9418" x2="12.2011" y2="66.7531" stroke="#34302C" stroke-width="5"/>
<line x1="14.2744" y1="68.8263" x2="27.7505" y2="82.3024" stroke="#34302C" stroke-width="5"/>
<line x1="28.7871" y1="83.339" x2="42.2632" y2="96.8152" stroke="#34302C" stroke-width="5"/>
<line x1="25.7808" y1="34.3068" x2="65.5872" y2="74.1131" stroke="#34302C" stroke-width="5"/>
<line x1="32.6225" y1="27.465" x2="72.4289" y2="67.2714" stroke="#34302C" stroke-width="5"/>
<line x1="39.4643" y1="20.6233" x2="54.3917" y2="35.5507" stroke="#34302C" stroke-width="5"/>
<line x1="64.3432" y1="45.5023" x2="79.2706" y2="60.4297" stroke="#34302C" stroke-width="5"/>
<line x1="70.5631" y1="13.1596" x2="86.7344" y2="29.3309" stroke="#34302C" stroke-width="5"/>
<line x1="73.6729" y1="13.5853" x2="51.2818" y2="35.9763" stroke="#34302C" stroke-width="5"/>
<line x1="86.7343" y1="26.6467" x2="64.3432" y2="49.0378" stroke="#34302C" stroke-width="5"/>
</svg>
