<svg width="156" height="169" viewBox="0 0 156 169" fill="none" xmlns="http://www.w3.org/2000/svg">
<path d="M29.6359 107.5L6.2787 158.998C5.12202 161.548 7.78047 164.152 10.3062 162.943L76.5806 131.215C77.3997 130.822 78.3523 130.822 79.1714 131.215L145.446 162.943C147.972 164.152 150.63 161.548 149.473 158.998L126.116 107.5M74.0176 111.376L39.9682 92.6294C36.264 90.59 34.7866 86.0201 36.5959 82.1983L70.6453 10.2737C73.5343 4.17112 82.2177 4.17113 85.1067 10.2737L119.156 82.1983C120.965 86.0201 119.488 90.59 115.784 92.6294L81.7344 111.376C79.3321 112.698 76.4198 112.698 74.0176 111.376Z" stroke="#AF2319" stroke-width="11" stroke-linecap="round"/>
</svg>
