<svg width="1411" height="87" viewBox="0 0 1411 87" fill="none" xmlns="http://www.w3.org/2000/svg">
<path d="M0 0H1411V87H0V0Z" fill="#DFC39F"/>
<path d="M1209.82 45.36C1209.82 44.4747 1209.97 43.6853 1210.28 42.992C1210.6 42.288 1211.02 41.696 1211.54 41.216C1212.07 40.736 1212.66 40.368 1213.34 40.112C1214.02 39.856 1214.73 39.728 1215.46 39.728C1216.2 39.728 1216.9 39.856 1217.58 40.112C1218.26 40.368 1218.86 40.736 1219.37 41.216C1219.89 41.696 1220.31 42.288 1220.62 42.992C1220.94 43.6853 1221.1 44.4747 1221.1 45.36C1221.1 46.2453 1220.94 47.04 1220.62 47.744C1220.31 48.4373 1219.89 49.024 1219.37 49.504C1218.86 49.984 1218.26 50.352 1217.58 50.608C1216.9 50.864 1216.2 50.992 1215.46 50.992C1214.7 50.992 1213.97 50.864 1213.27 50.608C1212.59 50.352 1211.99 49.984 1211.48 49.504C1210.97 49.024 1210.56 48.4373 1210.26 47.744C1209.97 47.04 1209.82 46.2453 1209.82 45.36ZM1210.65 45.36C1210.65 46.096 1210.77 46.768 1211.02 47.376C1211.27 47.9733 1211.62 48.4853 1212.06 48.912C1212.49 49.328 1213.01 49.6533 1213.59 49.888C1214.18 50.1227 1214.8 50.24 1215.46 50.24C1216.13 50.24 1216.75 50.1227 1217.34 49.888C1217.92 49.6533 1218.43 49.328 1218.86 48.912C1219.29 48.4853 1219.63 47.9733 1219.88 47.376C1220.14 46.768 1220.26 46.096 1220.26 45.36C1220.26 44.624 1220.13 43.9573 1219.86 43.36C1219.6 42.752 1219.24 42.24 1218.79 41.824C1218.35 41.3973 1217.84 41.0667 1217.26 40.832C1216.68 40.5973 1216.08 40.48 1215.46 40.48C1214.76 40.48 1214.11 40.5973 1213.51 40.832C1212.93 41.0667 1212.42 41.3973 1211.99 41.824C1211.58 42.2507 1211.25 42.7627 1211 43.36C1210.77 43.9573 1210.65 44.624 1210.65 45.36ZM1217.16 46.704H1217.56C1217.6 46.864 1217.63 47.1093 1217.66 47.44C1217.68 47.76 1217.67 48.048 1217.64 48.304C1217.54 48.3787 1217.42 48.4427 1217.27 48.496C1217.13 48.5387 1216.98 48.576 1216.82 48.608C1216.66 48.64 1216.5 48.6613 1216.33 48.672C1216.16 48.6827 1216 48.688 1215.86 48.688C1215.34 48.688 1214.86 48.6187 1214.42 48.48C1214 48.3307 1213.62 48.1173 1213.3 47.84C1212.99 47.552 1212.75 47.2 1212.57 46.784C1212.4 46.368 1212.31 45.888 1212.31 45.344C1212.31 44.7893 1212.41 44.304 1212.6 43.888C1212.8 43.472 1213.06 43.1253 1213.37 42.848C1213.69 42.5707 1214.05 42.3627 1214.44 42.224C1214.85 42.0747 1215.25 42 1215.66 42C1216.07 42 1216.45 42.032 1216.78 42.096C1217.11 42.1493 1217.38 42.2293 1217.59 42.336C1217.6 42.432 1217.61 42.56 1217.61 42.72C1217.61 42.8693 1217.6 43.0293 1217.59 43.2C1217.58 43.3707 1217.57 43.536 1217.54 43.696C1217.52 43.856 1217.5 43.9893 1217.46 44.096H1217.06L1216.58 42.768C1216.51 42.7147 1216.39 42.688 1216.23 42.688C1216.07 42.6773 1215.92 42.6667 1215.77 42.656C1215.16 42.6667 1214.69 42.912 1214.34 43.392C1214.01 43.8613 1213.85 44.512 1213.85 45.344C1213.85 45.696 1213.89 46.0373 1213.96 46.368C1214.03 46.688 1214.15 46.976 1214.31 47.232C1214.48 47.4773 1214.7 47.6747 1214.97 47.824C1215.23 47.9627 1215.55 48.032 1215.93 48.032C1216.14 48.032 1216.31 48.0107 1216.44 47.968C1216.58 47.9253 1216.67 47.8827 1216.71 47.84L1217.16 46.704Z" fill="#34302C"/>
<path d="M1234.61 50H1231.01L1231.1 49.536C1231.52 49.3653 1231.93 49.2373 1232.35 49.152L1238.67 38.608H1239.09L1240.89 49.152C1241.09 49.1947 1241.28 49.248 1241.47 49.312C1241.67 49.3653 1241.85 49.44 1242.01 49.536L1241.93 50H1237.87L1237.95 49.536C1238.43 49.3547 1238.9 49.2267 1239.36 49.152L1238.88 46.224H1235.12L1233.41 49.152C1233.87 49.216 1234.29 49.344 1234.69 49.536L1234.61 50ZM1235.58 45.392H1238.75L1238.24 42L1238.21 40.624H1238.17L1237.53 42.032L1235.58 45.392Z" fill="#34302C"/>
<path d="M1249.28 45.44C1249.36 45.1093 1249.42 44.8053 1249.47 44.528C1249.54 44.24 1249.57 43.9573 1249.57 43.68C1249.57 43.4347 1249.51 43.2267 1249.39 43.056C1249.29 42.8853 1249.11 42.8 1248.87 42.8C1248.58 42.8 1248.28 42.9173 1247.99 43.152C1247.69 43.3867 1247.41 43.6693 1247.15 44C1246.9 44.3307 1246.66 44.6773 1246.45 45.04C1246.25 45.392 1246.09 45.6853 1245.99 45.92L1245.14 50H1243.79L1245.2 42.928L1244.23 42.784L1244.26 42.384C1244.41 42.3093 1244.57 42.24 1244.75 42.176C1244.95 42.1013 1245.14 42.0373 1245.33 41.984C1245.53 41.9307 1245.72 41.888 1245.91 41.856C1246.1 41.824 1246.27 41.808 1246.43 41.808L1246.75 42L1246.15 44.832H1246.23C1246.43 44.4053 1246.66 44.0107 1246.91 43.648C1247.18 43.2747 1247.46 42.9547 1247.75 42.688C1248.04 42.4107 1248.35 42.1973 1248.67 42.048C1248.99 41.888 1249.32 41.808 1249.65 41.808C1250.1 41.808 1250.42 41.952 1250.63 42.24C1250.84 42.5173 1250.95 42.8693 1250.95 43.296C1250.95 43.5307 1250.92 43.824 1250.87 44.176C1250.81 44.528 1250.75 44.8587 1250.67 45.168L1249.76 49.104H1250.95V49.52C1250.73 49.6907 1250.47 49.8293 1250.16 49.936C1249.86 50.0427 1249.57 50.096 1249.28 50.096C1248.97 50.096 1248.76 50.032 1248.64 49.904C1248.52 49.776 1248.47 49.6373 1248.47 49.488C1248.47 49.2853 1248.49 49.0667 1248.55 48.832C1248.6 48.5867 1248.65 48.3413 1248.71 48.096L1249.28 45.44Z" fill="#34302C"/>
<path d="M1255.79 49.2C1256.08 49.2 1256.37 49.0667 1256.65 48.8C1256.94 48.5227 1257.21 48.192 1257.47 47.808C1257.73 47.424 1257.96 47.024 1258.16 46.608C1258.36 46.192 1258.52 45.8453 1258.64 45.568L1259.15 42.832C1258.99 42.7253 1258.84 42.656 1258.7 42.624C1258.57 42.5813 1258.39 42.5547 1258.14 42.544C1257.63 42.5547 1257.17 42.7147 1256.77 43.024C1256.36 43.3227 1256.02 43.712 1255.74 44.192C1255.47 44.6613 1255.25 45.1893 1255.1 45.776C1254.96 46.3627 1254.89 46.9387 1254.89 47.504C1254.89 48.048 1254.96 48.4693 1255.09 48.768C1255.23 49.056 1255.46 49.2 1255.79 49.2ZM1258.32 46.864C1258.18 47.248 1258 47.6373 1257.79 48.032C1257.58 48.4267 1257.33 48.784 1257.05 49.104C1256.79 49.424 1256.49 49.6853 1256.16 49.888C1255.84 50.0907 1255.49 50.192 1255.12 50.192C1254.01 50.192 1253.45 49.3813 1253.45 47.76C1253.45 47.0027 1253.56 46.272 1253.77 45.568C1253.99 44.8533 1254.3 44.224 1254.7 43.68C1255.11 43.1253 1255.6 42.6827 1256.17 42.352C1256.75 42.0213 1257.41 41.856 1258.14 41.856C1258.42 41.856 1258.63 41.8773 1258.77 41.92C1258.91 41.952 1259.08 42.016 1259.29 42.112L1259.9 39.088L1258.78 38.944V38.544C1258.94 38.48 1259.12 38.4213 1259.31 38.368C1259.5 38.304 1259.7 38.2507 1259.9 38.208C1260.12 38.1547 1260.33 38.1067 1260.54 38.064C1260.76 38.0213 1260.95 37.9893 1261.13 37.968L1261.47 38.096L1259.28 49.12H1260.45V49.52C1260.23 49.6907 1259.98 49.8293 1259.68 49.936C1259.38 50.0427 1259.09 50.096 1258.8 50.096C1258.49 50.096 1258.27 50.032 1258.13 49.904C1258 49.7653 1257.93 49.6213 1257.93 49.472C1257.93 49.28 1257.97 48.9653 1258.05 48.528C1258.12 48.0907 1258.23 47.536 1258.38 46.864H1258.32Z" fill="#34302C"/>
<path d="M1266.98 42.976C1266.7 43.0827 1266.38 43.3547 1266.03 43.792C1265.69 44.2187 1265.39 44.8 1265.12 45.536L1264.16 50H1262.78L1264.27 42.928L1263.3 42.784V42.384C1263.66 42.2133 1264.04 42.0853 1264.43 42C1264.83 41.904 1265.18 41.84 1265.5 41.808L1265.82 42L1265.38 44.128H1265.44C1265.75 43.424 1266.13 42.864 1266.58 42.448C1267.02 42.0213 1267.5 41.808 1268.02 41.808C1268.16 41.808 1268.29 41.824 1268.43 41.856C1268.57 41.8773 1268.7 41.9253 1268.83 42C1268.83 42.096 1268.82 42.224 1268.78 42.384C1268.75 42.5333 1268.7 42.688 1268.64 42.848C1268.59 43.008 1268.52 43.1627 1268.45 43.312C1268.38 43.4507 1268.32 43.5573 1268.24 43.632L1266.98 42.976Z" fill="#34302C"/>
<path d="M1275.33 48.576C1275.23 48.7787 1275.09 48.976 1274.91 49.168C1274.73 49.36 1274.51 49.536 1274.27 49.696C1274.02 49.8453 1273.75 49.9627 1273.44 50.048C1273.13 50.144 1272.8 50.192 1272.45 50.192C1271.56 50.192 1270.88 49.9413 1270.4 49.44C1269.93 48.928 1269.69 48.224 1269.69 47.328C1269.69 46.5707 1269.8 45.856 1270.01 45.184C1270.23 44.512 1270.53 43.9253 1270.91 43.424C1271.29 42.9227 1271.76 42.528 1272.3 42.24C1272.86 41.952 1273.47 41.808 1274.14 41.808C1274.65 41.808 1275.09 41.9413 1275.45 42.208C1275.83 42.464 1276.01 42.848 1276.01 43.36C1276.01 44.1173 1275.63 44.7147 1274.88 45.152C1274.13 45.5893 1272.92 45.872 1271.25 46C1271.2 46.1813 1271.17 46.3573 1271.15 46.528C1271.14 46.6987 1271.13 46.864 1271.13 47.024C1271.13 47.664 1271.29 48.1867 1271.61 48.592C1271.94 48.9973 1272.42 49.2 1273.05 49.2C1273.26 49.2 1273.45 49.168 1273.65 49.104C1273.85 49.04 1274.03 48.96 1274.21 48.864C1274.39 48.768 1274.55 48.6667 1274.69 48.56C1274.83 48.4533 1274.96 48.3573 1275.07 48.272L1275.33 48.576ZM1273.65 42.496C1273.19 42.5067 1272.76 42.7253 1272.37 43.152C1271.97 43.568 1271.63 44.288 1271.36 45.312C1272.39 45.28 1273.2 45.104 1273.77 44.784C1274.35 44.4533 1274.64 44 1274.64 43.424C1274.64 43.2 1274.57 42.992 1274.43 42.8C1274.3 42.608 1274.04 42.5067 1273.65 42.496Z" fill="#34302C"/>
<path d="M1285.02 47.584C1285.42 46.944 1285.75 46.3253 1286.03 45.728C1286.31 45.1307 1286.55 44.528 1286.75 43.92C1286.75 43.8027 1286.73 43.648 1286.7 43.456C1286.68 43.264 1286.65 43.072 1286.62 42.88C1286.6 42.688 1286.57 42.512 1286.54 42.352C1286.51 42.1813 1286.48 42.064 1286.46 42C1286.61 41.936 1286.77 41.888 1286.94 41.856C1287.11 41.824 1287.28 41.808 1287.44 41.808C1287.76 41.808 1288.04 41.872 1288.29 42C1288.13 42.6613 1287.91 43.3387 1287.65 44.032C1287.38 44.7147 1287.08 45.3973 1286.73 46.08C1286.39 46.7627 1286.02 47.4347 1285.61 48.096C1285.21 48.7573 1284.78 49.392 1284.32 50L1283.57 50.192L1282.89 45.648V44.336H1282.85L1282.21 45.648C1281.85 46.384 1281.5 47.1147 1281.13 47.84C1280.77 48.5547 1280.41 49.2747 1280.05 50L1279.17 50.192L1278.4 42.928L1277.37 42.8V42.4C1277.44 42.3573 1277.53 42.304 1277.66 42.24C1277.79 42.1653 1277.93 42.096 1278.08 42.032C1278.24 41.968 1278.4 41.9147 1278.56 41.872C1278.73 41.8293 1278.89 41.808 1279.04 41.808C1279.27 41.808 1279.45 41.8667 1279.57 41.984C1279.69 42.0907 1279.77 42.2347 1279.79 42.416L1280.22 47.472L1280.16 48.624H1280.19L1280.67 47.456L1283.26 42.192L1283.81 42C1283.93 42.9067 1284.04 43.6587 1284.13 44.256C1284.21 44.8427 1284.27 45.2747 1284.3 45.552C1284.39 46.192 1284.47 46.832 1284.56 47.472L1284.57 48.624H1284.61L1285.02 47.584Z" fill="#34302C"/>
<path d="M1307.8 39.664C1307.59 39.6213 1307.36 39.568 1307.13 39.504C1306.91 39.44 1306.7 39.36 1306.52 39.264L1306.62 38.8H1310.14L1310.04 39.264C1309.84 39.3707 1309.63 39.4507 1309.42 39.504C1309.21 39.5573 1309.01 39.6107 1308.81 39.664L1303.95 50L1302.92 50.192L1302.19 41.488L1297.85 50L1296.86 50.192L1296.27 39.664C1295.85 39.568 1295.47 39.4347 1295.13 39.264L1295.23 38.8H1299.35L1299.26 39.264C1299.04 39.3493 1298.82 39.424 1298.59 39.488C1298.36 39.552 1298.12 39.6107 1297.87 39.664L1298.07 46.144L1298.03 48.224H1298.06L1299.03 46.112L1302.76 38.8H1303.32L1303.99 46.112L1304.07 48.192H1304.11L1304.95 46.08L1307.8 39.664Z" fill="#34302C"/>
<path d="M1311.61 49.2C1311.89 49.2 1312.18 49.0667 1312.47 48.8C1312.76 48.5227 1313.03 48.192 1313.29 47.808C1313.54 47.424 1313.77 47.024 1313.97 46.608C1314.18 46.192 1314.34 45.8453 1314.45 45.568L1314.97 42.832C1314.82 42.7253 1314.67 42.6507 1314.53 42.608C1314.39 42.5653 1314.2 42.544 1313.96 42.544C1313.47 42.544 1313.02 42.6987 1312.61 43.008C1312.22 43.3067 1311.88 43.696 1311.59 44.176C1311.31 44.656 1311.09 45.1893 1310.93 45.776C1310.78 46.3627 1310.71 46.9387 1310.71 47.504C1310.71 48.048 1310.77 48.4693 1310.9 48.768C1311.04 49.056 1311.27 49.2 1311.61 49.2ZM1314.13 46.864C1313.99 47.248 1313.82 47.6373 1313.61 48.032C1313.4 48.4267 1313.16 48.784 1312.89 49.104C1312.62 49.424 1312.32 49.6853 1311.99 49.888C1311.66 50.0907 1311.31 50.192 1310.93 50.192C1309.82 50.192 1309.27 49.3867 1309.27 47.776C1309.27 47.0293 1309.38 46.304 1309.59 45.6C1309.8 44.8853 1310.11 44.2507 1310.52 43.696C1310.92 43.1413 1311.41 42.6987 1311.99 42.368C1312.58 42.0267 1313.24 41.856 1313.97 41.856C1314.24 41.856 1314.45 41.8827 1314.61 41.936C1314.77 41.9787 1314.97 42.048 1315.19 42.144C1315.62 41.92 1316.06 41.808 1316.53 41.808L1315.09 49.12H1316.26V49.52C1316.05 49.6907 1315.79 49.8293 1315.49 49.936C1315.19 50.0427 1314.9 50.096 1314.61 50.096C1314.3 50.096 1314.08 50.032 1313.94 49.904C1313.81 49.7653 1313.75 49.6213 1313.75 49.472C1313.75 49.28 1313.79 48.9653 1313.86 48.528C1313.94 48.0907 1314.05 47.536 1314.2 46.864H1314.13Z" fill="#34302C"/>
<path d="M1324.12 45.44C1324.19 45.1093 1324.26 44.8053 1324.31 44.528C1324.38 44.24 1324.41 43.9573 1324.41 43.68C1324.41 43.4347 1324.35 43.2267 1324.23 43.056C1324.13 42.8853 1323.95 42.8 1323.7 42.8C1323.42 42.8 1323.12 42.9173 1322.82 43.152C1322.53 43.3867 1322.25 43.6693 1321.99 44C1321.74 44.3307 1321.5 44.6773 1321.29 45.04C1321.09 45.392 1320.93 45.6853 1320.82 45.92L1319.98 50H1318.63L1320.04 42.928L1319.06 42.784L1319.1 42.384C1319.25 42.3093 1319.41 42.24 1319.59 42.176C1319.78 42.1013 1319.98 42.0373 1320.17 41.984C1320.37 41.9307 1320.56 41.888 1320.74 41.856C1320.94 41.824 1321.11 41.808 1321.27 41.808L1321.59 42L1320.98 44.832H1321.06C1321.27 44.4053 1321.5 44.0107 1321.75 43.648C1322.02 43.2747 1322.3 42.9547 1322.58 42.688C1322.88 42.4107 1323.19 42.1973 1323.51 42.048C1323.83 41.888 1324.16 41.808 1324.49 41.808C1324.94 41.808 1325.26 41.952 1325.46 42.24C1325.68 42.5173 1325.78 42.8693 1325.78 43.296C1325.78 43.5307 1325.76 43.824 1325.7 44.176C1325.65 44.528 1325.59 44.8587 1325.51 45.168L1324.6 49.104H1325.78V49.52C1325.57 49.6907 1325.31 49.8293 1325 49.936C1324.7 50.0427 1324.41 50.096 1324.12 50.096C1323.81 50.096 1323.6 50.032 1323.48 49.904C1323.36 49.776 1323.3 49.6373 1323.3 49.488C1323.3 49.2853 1323.33 49.0667 1323.38 48.832C1323.44 48.5867 1323.49 48.3413 1323.54 48.096L1324.12 45.44Z" fill="#34302C"/>
<path d="M1332.05 41.808C1332.56 41.808 1332.98 41.872 1333.3 42C1333.63 42.128 1333.89 42.2667 1334.07 42.416C1334.16 42.3307 1334.29 42.2453 1334.45 42.16C1334.61 42.0747 1334.78 41.9947 1334.96 41.92C1335.15 41.8453 1335.33 41.776 1335.52 41.712C1335.72 41.648 1335.9 41.5893 1336.07 41.536C1336.1 41.5893 1336.13 41.6693 1336.15 41.776C1336.17 41.8827 1336.17 42 1336.16 42.128C1336.16 42.256 1336.14 42.3893 1336.1 42.528C1336.07 42.656 1336.01 42.7733 1335.94 42.88L1334.29 42.768C1334.32 42.864 1334.36 42.976 1334.39 43.104C1334.42 43.2213 1334.44 43.3547 1334.44 43.504C1334.44 43.9307 1334.35 44.3253 1334.16 44.688C1333.99 45.0507 1333.75 45.3653 1333.44 45.632C1333.13 45.888 1332.77 46.0907 1332.36 46.24C1331.95 46.3893 1331.52 46.464 1331.06 46.464C1330.88 46.464 1330.73 46.464 1330.61 46.464C1330.51 46.4533 1330.38 46.432 1330.24 46.4C1330.15 46.5067 1330.01 46.6347 1329.84 46.784C1329.68 46.9227 1329.6 47.0773 1329.6 47.248C1329.6 47.4293 1329.72 47.568 1329.96 47.664C1330.19 47.76 1330.48 47.8507 1330.84 47.936C1331.2 48.0107 1331.59 48.096 1332 48.192C1332.42 48.2773 1332.8 48.4 1333.16 48.56C1333.52 48.7093 1333.82 48.9067 1334.05 49.152C1334.29 49.3973 1334.4 49.7227 1334.4 50.128C1334.4 50.6293 1334.26 51.0773 1333.97 51.472C1333.69 51.8773 1333.32 52.2187 1332.85 52.496C1332.39 52.784 1331.87 53.0027 1331.27 53.152C1330.68 53.312 1330.08 53.392 1329.48 53.392C1328.99 53.392 1328.56 53.3387 1328.21 53.232C1327.86 53.136 1327.57 52.9973 1327.35 52.816C1327.12 52.6453 1326.96 52.448 1326.85 52.224C1326.75 52 1326.69 51.7653 1326.69 51.52C1326.69 51.2213 1326.76 50.944 1326.9 50.688C1327.03 50.432 1327.2 50.192 1327.43 49.968C1327.65 49.7333 1327.91 49.52 1328.2 49.328C1328.48 49.136 1328.78 48.9547 1329.09 48.784C1328.93 48.6987 1328.8 48.5867 1328.69 48.448C1328.6 48.2987 1328.55 48.1333 1328.55 47.952C1328.55 47.792 1328.6 47.6267 1328.71 47.456C1328.81 47.2747 1328.94 47.104 1329.08 46.944C1329.23 46.784 1329.37 46.6453 1329.51 46.528C1329.66 46.4107 1329.77 46.3253 1329.84 46.272C1329.72 46.24 1329.58 46.1813 1329.44 46.096C1329.32 46.0107 1329.19 45.8987 1329.08 45.76C1328.96 45.6213 1328.86 45.4613 1328.79 45.28C1328.71 45.0987 1328.68 44.896 1328.68 44.672C1328.68 44.256 1328.76 43.872 1328.93 43.52C1329.11 43.168 1329.36 42.8693 1329.67 42.624C1329.98 42.368 1330.33 42.1707 1330.74 42.032C1331.15 41.8827 1331.58 41.808 1332.05 41.808ZM1330.21 52.704C1330.54 52.704 1330.87 52.656 1331.19 52.56C1331.52 52.464 1331.81 52.3253 1332.07 52.144C1332.33 51.9733 1332.55 51.7547 1332.71 51.488C1332.88 51.232 1332.96 50.9387 1332.96 50.608C1332.96 50.288 1332.83 50.0427 1332.56 49.872C1332.31 49.6907 1331.99 49.5467 1331.62 49.44C1331.25 49.3333 1330.86 49.248 1330.45 49.184C1330.06 49.1093 1329.72 49.024 1329.43 48.928C1328.93 49.2907 1328.58 49.6693 1328.39 50.064C1328.21 50.4587 1328.12 50.8267 1328.13 51.168C1328.12 51.648 1328.3 52.0213 1328.68 52.288C1329.06 52.5653 1329.57 52.704 1330.21 52.704ZM1331.92 42.448C1331.61 42.448 1331.34 42.5067 1331.09 42.624C1330.86 42.7413 1330.65 42.9013 1330.48 43.104C1330.31 43.296 1330.19 43.5253 1330.1 43.792C1330.01 44.0587 1329.97 44.3413 1329.97 44.64C1329.97 45.0453 1330.1 45.344 1330.36 45.536C1330.62 45.728 1330.91 45.824 1331.2 45.824C1331.52 45.824 1331.8 45.7707 1332.02 45.664C1332.25 45.5467 1332.45 45.392 1332.6 45.2C1332.76 45.008 1332.87 44.7893 1332.95 44.544C1333.02 44.2987 1333.06 44.0427 1333.06 43.776C1333.06 43.3813 1332.96 43.0613 1332.77 42.816C1332.59 42.5707 1332.31 42.448 1331.92 42.448Z" fill="#34302C"/>
<path d="M1343.8 41.92H1343.4C1343.35 41.6107 1343.3 41.248 1343.26 40.832C1343.23 40.416 1343.22 40.0213 1343.23 39.648C1343.67 39.3387 1344.14 39.088 1344.63 38.896C1345.13 38.704 1345.67 38.608 1346.28 38.608C1346.82 38.608 1347.26 38.6667 1347.61 38.784C1347.97 38.9013 1348.26 39.0667 1348.47 39.28C1348.7 39.4827 1348.86 39.7227 1348.95 40C1349.05 40.2667 1349.1 40.5547 1349.1 40.864C1349.1 41.4827 1348.91 42.1227 1348.54 42.784C1348.18 43.4347 1347.71 44.08 1347.15 44.72C1346.59 45.3493 1345.98 45.9573 1345.32 46.544C1344.66 47.12 1344.04 47.6373 1343.47 48.096L1342.67 48.72V48.784L1343.56 48.688H1346.31L1347.48 46.896H1347.88C1347.87 47.152 1347.85 47.424 1347.82 47.712C1347.79 47.9893 1347.74 48.2667 1347.69 48.544C1347.65 48.8213 1347.6 49.088 1347.55 49.344C1347.49 49.5893 1347.45 49.808 1347.4 50H1340.79L1340.91 49.488C1341.23 49.232 1341.61 48.912 1342.06 48.528C1342.51 48.144 1342.98 47.7227 1343.47 47.264C1343.97 46.7947 1344.46 46.2933 1344.95 45.76C1345.45 45.2267 1345.88 44.688 1346.27 44.144C1346.66 43.5893 1346.98 43.0347 1347.23 42.48C1347.47 41.9253 1347.59 41.392 1347.59 40.88C1347.59 40.4533 1347.46 40.1067 1347.19 39.84C1346.94 39.5733 1346.55 39.44 1346.04 39.44C1345.59 39.44 1345.19 39.504 1344.83 39.632L1343.8 41.92Z" fill="#34302C"/>
<path d="M1350.39 46.752C1350.39 46.1227 1350.43 45.4827 1350.53 44.832C1350.63 44.1813 1350.76 43.5573 1350.95 42.96C1351.14 42.352 1351.37 41.7867 1351.65 41.264C1351.94 40.7307 1352.27 40.2667 1352.64 39.872C1353.03 39.4773 1353.45 39.168 1353.92 38.944C1354.4 38.72 1354.92 38.608 1355.49 38.608C1356.12 38.608 1356.63 38.7253 1357.01 38.96C1357.4 39.184 1357.71 39.472 1357.92 39.824C1358.15 40.1653 1358.29 40.5333 1358.37 40.928C1358.44 41.3227 1358.48 41.6853 1358.48 42.016C1358.48 42.9653 1358.37 43.9253 1358.16 44.896C1357.95 45.856 1357.63 46.7307 1357.2 47.52C1356.79 48.3093 1356.26 48.9547 1355.62 49.456C1354.98 49.9467 1354.23 50.192 1353.38 50.192C1352.75 50.192 1352.24 50.08 1351.84 49.856C1351.45 49.6213 1351.14 49.3333 1350.93 48.992C1350.72 48.64 1350.57 48.2667 1350.5 47.872C1350.42 47.4667 1350.39 47.0933 1350.39 46.752ZM1351.92 46.816C1351.92 47.1253 1351.94 47.44 1351.99 47.76C1352.04 48.08 1352.12 48.3733 1352.24 48.64C1352.36 48.896 1352.52 49.1093 1352.72 49.28C1352.92 49.4507 1353.18 49.536 1353.49 49.536C1354.07 49.536 1354.57 49.3067 1354.99 48.848C1355.43 48.3893 1355.79 47.7973 1356.08 47.072C1356.37 46.336 1356.58 45.5253 1356.72 44.64C1356.87 43.744 1356.95 42.864 1356.95 42C1356.95 41.68 1356.92 41.36 1356.87 41.04C1356.82 40.72 1356.74 40.432 1356.63 40.176C1356.51 39.9093 1356.35 39.696 1356.15 39.536C1355.94 39.3653 1355.69 39.2747 1355.38 39.264C1354.79 39.2747 1354.28 39.52 1353.84 40C1353.41 40.4693 1353.06 41.072 1352.77 41.808C1352.48 42.544 1352.27 43.3547 1352.13 44.24C1351.99 45.1253 1351.92 45.984 1351.92 46.816Z" fill="#34302C"/>
<path d="M1362.18 41.92H1361.78C1361.73 41.6107 1361.68 41.248 1361.64 40.832C1361.61 40.416 1361.6 40.0213 1361.61 39.648C1362.06 39.3387 1362.53 39.088 1363.02 38.896C1363.51 38.704 1364.06 38.608 1364.66 38.608C1365.2 38.608 1365.64 38.6667 1365.99 38.784C1366.35 38.9013 1366.64 39.0667 1366.86 39.28C1367.08 39.4827 1367.24 39.7227 1367.34 40C1367.43 40.2667 1367.48 40.5547 1367.48 40.864C1367.48 41.4827 1367.29 42.1227 1366.92 42.784C1366.56 43.4347 1366.09 44.08 1365.53 44.72C1364.97 45.3493 1364.37 45.9573 1363.7 46.544C1363.04 47.12 1362.42 47.6373 1361.85 48.096L1361.05 48.72V48.784L1361.94 48.688H1364.7L1365.86 46.896H1366.26C1366.25 47.152 1366.23 47.424 1366.2 47.712C1366.17 47.9893 1366.13 48.2667 1366.07 48.544C1366.03 48.8213 1365.98 49.088 1365.93 49.344C1365.87 49.5893 1365.83 49.808 1365.78 50H1359.18L1359.29 49.488C1359.61 49.232 1359.99 48.912 1360.44 48.528C1360.89 48.144 1361.36 47.7227 1361.85 47.264C1362.35 46.7947 1362.85 46.2933 1363.34 45.76C1363.83 45.2267 1364.26 44.688 1364.65 44.144C1365.04 43.5893 1365.36 43.0347 1365.61 42.48C1365.85 41.9253 1365.98 41.392 1365.98 40.88C1365.98 40.4533 1365.84 40.1067 1365.58 39.84C1365.32 39.5733 1364.94 39.44 1364.42 39.44C1363.98 39.44 1363.57 39.504 1363.21 39.632L1362.18 41.92Z" fill="#34302C"/>
<path d="M1371.37 41.92H1370.97C1370.92 41.6107 1370.87 41.248 1370.83 40.832C1370.8 40.416 1370.79 40.0213 1370.8 39.648C1371.25 39.3387 1371.72 39.088 1372.21 38.896C1372.7 38.704 1373.25 38.608 1373.85 38.608C1374.39 38.608 1374.83 38.6667 1375.18 38.784C1375.55 38.9013 1375.83 39.0667 1376.05 39.28C1376.27 39.4827 1376.43 39.7227 1376.53 40C1376.62 40.2667 1376.67 40.5547 1376.67 40.864C1376.67 41.4827 1376.48 42.1227 1376.11 42.784C1375.75 43.4347 1375.28 44.08 1374.72 44.72C1374.16 45.3493 1373.56 45.9573 1372.89 46.544C1372.23 47.12 1371.61 47.6373 1371.04 48.096L1370.24 48.72V48.784L1371.13 48.688H1373.89L1375.05 46.896H1375.45C1375.44 47.152 1375.42 47.424 1375.39 47.712C1375.36 47.9893 1375.32 48.2667 1375.26 48.544C1375.22 48.8213 1375.17 49.088 1375.12 49.344C1375.07 49.5893 1375.02 49.808 1374.97 50H1368.37L1368.48 49.488C1368.8 49.232 1369.18 48.912 1369.63 48.528C1370.08 48.144 1370.55 47.7227 1371.04 47.264C1371.54 46.7947 1372.04 46.2933 1372.53 45.76C1373.02 45.2267 1373.45 44.688 1373.84 44.144C1374.23 43.5893 1374.55 43.0347 1374.8 42.48C1375.04 41.9253 1375.17 41.392 1375.17 40.88C1375.17 40.4533 1375.03 40.1067 1374.77 39.84C1374.51 39.5733 1374.13 39.44 1373.61 39.44C1373.17 39.44 1372.76 39.504 1372.4 39.632L1371.37 41.92Z" fill="#34302C"/>
</svg>
