<svg width="105" height="714" viewBox="0 0 105 714" fill="none" xmlns="http://www.w3.org/2000/svg">
<line x1="99.5" y1="5.5" x2="5.5" y2="5.5" stroke="#AF2319" stroke-width="11" stroke-linecap="round"/>
<path d="M79 32.5C79 29.4624 76.5376 27 73.5 27C70.4624 27 68 29.4624 68 32.5L79 32.5ZM68 700.5L68 706L79 706L79 700.5L68 700.5ZM68 32.5L68 700.5L79 700.5L79 32.5L68 32.5Z" fill="#AF2319"/>
<line x1="99.5" y1="708.5" x2="5.5" y2="708.5" stroke="#AF2319" stroke-width="11" stroke-linecap="round"/>
<path d="M37 7.5L37 2L26 2L26 7.5L37 7.5ZM26 670.5C26 673.538 28.4625 676 31.5 676C34.5376 676 37 673.538 37 670.5L26 670.5ZM26 7.5L26 670.5L37 670.5L37 7.5L26 7.5Z" fill="#AF2319"/>
<line x1="10.5" y1="670.5" x2="10.5" y2="544.5" stroke="#AF2319" stroke-linecap="square"/>
</svg>
