<svg width="718" height="64" viewBox="0 0 718 64" fill="none" xmlns="http://www.w3.org/2000/svg">
<line x1="715.5" y1="48.5001" x2="47.5" y2="48.5" stroke="#AF2319" stroke-width="5" stroke-linecap="round"/>
<line x1="717.5" y1="62.5001" x2="468.5" y2="62.5" stroke="#AF2319" stroke-linecap="round"/>
<line x1="461.5" y1="62.5" x2="449.5" y2="62.5" stroke="#AF2319" stroke-linecap="round"/>
<rect x="16.1421" y="33.9999" width="20" height="20" rx="1" transform="rotate(45 16.1421 33.9999)" stroke="#AF2319" stroke-width="4"/>
<path d="M47.0566 18.1602H55.3359V15.4883H47.0566V18.1602ZM76.6744 26.0176H80.0142V15.9102C80.0142 11.9199 77.0259 9.82812 73.2818 9.82812C69.5201 9.82812 66.813 12.2363 67.0416 15.6465H70.1177C69.9595 13.5723 71.5416 12.5879 73.5279 12.5879C75.4615 12.5879 76.7271 14.082 76.7271 16.0684V16.4375L72.8599 16.877C68.7994 17.3516 66.5494 19.0566 66.5494 21.9043C66.5494 24.7168 68.6763 26.4219 71.4361 26.4219C73.774 26.4219 75.6373 25.7012 76.6744 24.2773V26.0176ZM76.7271 18.8633V18.9512C76.7271 21.8516 74.8287 23.8027 72.2623 23.8027C70.7505 23.8027 69.9244 23.0117 69.9244 21.6758C69.9244 20.3398 70.8384 19.5137 73.6158 19.2148L76.7271 18.8633ZM94.9373 26H98.3299V16.2969C98.3299 12.4473 96.5194 9.81055 92.5291 9.82812C90.5428 9.82812 88.7498 10.7773 87.7655 12.2188V10.25H84.3729V26H87.7655V17C87.7655 14.3809 89.4354 12.6582 91.6151 12.6582C93.7948 12.6582 94.9373 14.0293 94.9373 16.543V26ZM114.413 26.0176H117.753V3.32422H114.343V11.8672C113.341 10.373 111.425 9.70508 109.14 9.6875C104.552 9.65234 101.915 13.2734 101.915 18.0898C101.915 22.9238 104.587 26.4043 109.175 26.4395C111.46 26.457 113.394 25.7012 114.413 24.1543V26.0176ZM114.413 17.6152V18.4941C114.413 21.6582 112.515 23.5918 109.755 23.5918C107.048 23.5918 105.413 21.5703 105.413 18.0898C105.413 14.5918 107.048 12.5703 109.755 12.5703C112.515 12.5703 114.413 14.4688 114.413 17.6152ZM125.821 12.9395V10.2852H122.621V25.9824H125.891V18.9688C125.891 17.0527 126.278 15.6113 127.174 14.6445C128.071 13.6602 129.371 13.1504 131.78 13.1504V9.96875C128.774 9.89844 127.121 10.8652 125.821 12.9395ZM137.72 19.0918H149.832V17.7031C149.832 13.2031 147.072 9.82812 142.343 9.82812C137.65 9.82812 134.31 13.4492 134.31 18.3359C134.31 23.2227 137.791 26.4395 142.097 26.4395C144.224 26.4395 145.929 25.9297 147.213 24.9277C148.478 23.9082 149.34 22.748 149.832 20.6211H146.914C146.281 23.0117 144.875 23.6445 142.431 23.6445C139.935 23.6445 137.966 21.7637 137.72 19.0918ZM145.226 13.7832C145.912 14.6094 146.404 15.5762 146.509 16.7188H137.826C138.248 14.293 139.882 12.5352 142.308 12.5352C143.574 12.5352 144.541 12.957 145.226 13.7832ZM169.519 26L174.546 10.2676H171.311L167.884 21.166L164.685 10.2676H161.837L158.708 21.166L155.228 10.2676H151.765L156.845 26H160.044L163.243 15.2949L166.302 26H169.519ZM200.525 26L205.552 10.2676H202.318L198.89 21.166L195.691 10.2676H192.843L189.714 21.166L186.234 10.2676H182.771L187.851 26H191.05L194.25 15.2949L197.308 26H200.525ZM217.821 26.0176H221.161V15.9102C221.161 11.9199 218.173 9.82812 214.429 9.82812C210.667 9.82812 207.96 12.2363 208.188 15.6465H211.264C211.106 13.5723 212.688 12.5879 214.675 12.5879C216.608 12.5879 217.874 14.082 217.874 16.0684V16.4375L214.007 16.877C209.946 17.3516 207.696 19.0566 207.696 21.9043C207.696 24.7168 209.823 26.4219 212.583 26.4219C214.921 26.4219 216.784 25.7012 217.821 24.2773V26.0176ZM217.874 18.8633V18.9512C217.874 21.8516 215.975 23.8027 213.409 23.8027C211.897 23.8027 211.071 23.0117 211.071 21.6758C211.071 20.3398 211.985 19.5137 214.762 19.2148L217.874 18.8633ZM236.084 26H239.477V16.2969C239.477 12.4473 237.666 9.81055 233.676 9.82812C231.69 9.82812 229.897 10.7773 228.912 12.2188V10.25H225.52V26H228.912V17C228.912 14.3809 230.582 12.6582 232.762 12.6582C234.941 12.6582 236.084 14.0293 236.084 16.543V26ZM255.56 11.9551C254.505 10.5664 252.958 9.86328 251.077 9.86328C248.142 9.86328 246.068 11.0586 244.855 12.7109C243.607 14.3809 243.132 16.543 243.132 18.4238C243.132 20.6387 243.8 22.6602 245.066 24.1719C246.349 25.6836 248.265 26.6152 250.779 26.6152C252.73 26.6152 254.646 25.9297 255.771 24.3828V24.5762C255.771 26.2461 255.419 27.0195 254.663 28.0039C253.943 28.9707 252.8 29.5684 251.077 29.5684C250.199 29.5684 249.197 29.4102 248.406 29.041C247.615 28.6543 247.035 28.0742 246.999 27.0195H243.783C243.888 29.1113 244.89 30.3066 246.261 31.0801C247.579 31.8535 249.355 32.1699 250.902 32.1699C256.316 32.1699 258.865 29.5156 258.865 24.8926V10.25H255.56V11.9551ZM254.646 14.3105C255.331 15.3652 255.648 16.7012 255.648 18.0371C255.648 19.4609 255.296 20.9375 254.576 22.0273C253.855 23.1172 252.66 23.8555 250.954 23.8555C249.267 23.8555 248.16 23.1172 247.474 22.0449C246.788 20.9375 246.542 19.5312 246.542 18.125C246.542 16.666 246.876 15.2949 247.615 14.293C248.37 13.291 249.495 12.6582 251.201 12.6582C252.818 12.6582 253.96 13.291 254.646 14.3105ZM269.305 18.1602H277.584V15.4883H269.305V18.1602Z" fill="#34302C"/>
</svg>
