<svg width="164" height="27" viewBox="0 0 164 27" fill="none" xmlns="http://www.w3.org/2000/svg">
<path d="M1.94012 26.3672C1.38732 26.3676 0.939083 25.9193 0.939453 25.3665L0.955685 1.15465C0.956282 0.26407 2.03306 -0.181524 2.66279 0.448213L26.8584 24.6439C27.4882 25.2736 27.0426 26.3504 26.152 26.351L1.94012 26.3672Z" fill="#34302C"/>
<path d="M55.7138 25C61.6318 25 65.3525 21.4111 65.3525 15.5517C65.3525 9.69235 61.6318 6.10348 55.7138 6.10348H48.8291V25H55.7138ZM55.5673 8.60837C59.9179 8.60837 62.4375 11.1279 62.4375 15.5517C62.4521 19.9756 59.9326 22.4951 55.5673 22.4951H51.8027V8.60837H55.5673Z" fill="#34302C"/>
<path d="M70.0599 25H72.9603V6.10348H70.0599V25Z" fill="#34302C"/>
<path d="M87.0134 25.3515C91.8328 25.3515 95.1433 22.2021 95.7439 17.4414V14.9072H86.823L86.8084 17.6465L92.9314 17.6611C92.5505 20.7666 90.28 22.7588 87.0281 22.7588C83.2048 22.7588 80.7146 19.9756 80.7146 15.5517C80.7146 11.1279 83.2195 8.34469 87.0134 8.34469C89.8992 8.34469 92.0086 9.86813 92.9168 12.7246H95.7146C95.2312 10.9668 94.7918 9.61911 93.7224 8.47653C91.9939 6.66012 89.7527 5.75192 87.0281 5.75192C81.5496 5.75192 77.7117 9.76559 77.7117 15.5517C77.7117 21.3379 81.5496 25.3515 87.0134 25.3515Z" fill="#34302C"/>
<path d="M100.363 25H103.264V6.10348H100.363V25Z" fill="#34302C"/>
<path d="M117.302 8.63766H124.114V6.10348H107.678V8.63766H114.373V25H117.302V8.63766Z" fill="#34302C"/>
<path d="M142.576 25H145.726L137.874 6.10348H134.812L127.107 25H130.066L132.22 19.58H140.35L142.576 25ZM136.321 9.69235L139.353 17.1191H133.201L136.321 9.69235Z" fill="#34302C"/>
<path d="M149.906 25H163.045V22.4658H152.85V6.10348H149.906V25Z" fill="#34302C"/>
</svg>
