<svg width="244" height="27" viewBox="0 0 244 27" fill="none" xmlns="http://www.w3.org/2000/svg">
<path d="M1.94012 26.3671C1.38732 26.3675 0.939083 25.9193 0.939453 25.3665L0.955685 1.15459C0.956282 0.264009 2.03306 -0.181585 2.66279 0.448151L26.8584 24.6438C27.4882 25.2735 27.0426 26.3503 26.152 26.3509L1.94012 26.3671Z" fill="#34302C"/>
<path d="M57.2519 8.6376H64.0634V6.10342H47.6279V8.6376H54.3222V24.9999H57.2519V8.6376Z" fill="#34302C"/>
<path d="M80.8119 24.9999H83.9613C83.3607 24.3554 83.1849 23.9745 83.097 23.4472C82.9945 22.8905 82.8626 21.8651 82.7455 20.3417C82.5843 18.3642 81.8812 17.0312 80.2552 16.4013C82.2328 15.8446 83.4339 14.2187 83.4339 11.7724C83.4339 8.1835 80.9291 6.10342 76.3001 6.10342H68.6244V24.9999H71.5248V17.5585H76.5052C78.6439 17.5585 79.7425 18.5985 79.8744 20.7812C79.933 21.8651 79.9916 22.8319 80.0941 23.5497C80.2113 24.37 80.4603 24.8827 80.8119 24.9999ZM76.1537 8.6083C79.1126 8.6083 80.4457 9.83877 80.4457 11.8603C80.4457 13.9989 79.098 15.0976 76.1537 15.0976H71.5248V8.6083H76.1537Z" fill="#34302C"/>
<path d="M103.2 24.9999H106.349L98.4978 6.10342H95.4363L87.7312 24.9999H90.6902L92.8435 19.58H100.973L103.2 24.9999ZM96.9451 9.69229L99.9773 17.119H93.825L96.9451 9.69229Z" fill="#34302C"/>
<path d="M117.414 24.9999C123.332 24.9999 127.053 21.411 127.053 15.5517C127.053 9.69229 123.332 6.10342 117.414 6.10342H110.529V24.9999H117.414ZM117.268 8.6083C121.618 8.6083 124.138 11.1278 124.138 15.5517C124.152 19.9755 121.633 22.495 117.268 22.495H113.503V8.6083H117.268Z" fill="#34302C"/>
<path d="M131.76 24.9999H134.661V6.10342H131.76V24.9999Z" fill="#34302C"/>
<path d="M148.699 8.6376H155.511V6.10342H139.075V8.6376H145.769V24.9999H148.699V8.6376Z" fill="#34302C"/>
<path d="M159.691 24.9999H162.591V6.10342H159.691V24.9999Z" fill="#34302C"/>
<path d="M176.718 25.3515C182.225 25.3515 186.122 21.3378 186.122 15.5517C186.122 12.6659 185.243 10.3075 183.5 8.47647C181.757 6.66006 179.486 5.75186 176.732 5.75186C171.21 5.75186 167.343 9.76553 167.343 15.5517C167.343 21.3378 171.21 25.3515 176.718 25.3515ZM176.718 8.34463C180.541 8.34463 183.031 11.0985 183.046 15.5517C183.046 20.0048 180.585 22.7587 176.732 22.7587C172.88 22.7587 170.375 19.9755 170.375 15.5517C170.375 11.1278 172.894 8.34463 176.718 8.34463Z" fill="#34302C"/>
<path d="M204.13 24.9999H206.474V6.10342H203.676V19.7997L193.598 6.10342H190.99V24.9999H193.788V11.0106L204.13 24.9999Z" fill="#34302C"/>
<path d="M223.457 24.9999H226.606L218.754 6.10342H215.693L207.988 24.9999H210.947L213.1 19.58H221.23L223.457 24.9999ZM217.202 9.69229L220.234 17.119H214.082L217.202 9.69229Z" fill="#34302C"/>
<path d="M230.786 24.9999H243.926V22.4657H233.73V6.10342H230.786V24.9999Z" fill="#34302C"/>
</svg>
