<svg width="239" height="71" viewBox="0 0 239 71" fill="none" xmlns="http://www.w3.org/2000/svg">
<path d="M32.1875 48.0234H36.6406V34.5469C36.6406 29.2266 32.6562 26.4375 27.6641 26.4375C22.6484 26.4375 19.0391 29.6484 19.3438 34.1953H23.4453C23.2344 31.4297 25.3438 30.1172 27.9922 30.1172C30.5703 30.1172 32.2578 32.1094 32.2578 34.7578V35.25L27.1016 35.8359C21.6875 36.4688 18.6875 38.7422 18.6875 42.5391C18.6875 46.2891 21.5234 48.5625 25.2031 48.5625C28.3203 48.5625 30.8047 47.6016 32.1875 45.7031V48.0234ZM32.2578 38.4844V38.6016C32.2578 42.4688 29.7266 45.0703 26.3047 45.0703C24.2891 45.0703 23.1875 44.0156 23.1875 42.2344C23.1875 40.4531 24.4062 39.3516 28.1094 38.9531L32.2578 38.4844ZM50.6047 30.5859V27.0469H46.3391V47.9766H50.6984V38.625C50.6984 36.0703 51.2141 34.1484 52.4094 32.8594C53.6047 31.5469 55.3391 30.8672 58.55 30.8672V26.625C54.5422 26.5312 52.3391 27.8203 50.6047 30.5859ZM67.5219 42.8906C67.5219 50.5781 75.1156 49.0547 78.1625 46.6875V43.1016C75.1156 44.8828 71.9516 45.7031 71.9516 42.4453V30.375H77.5531V26.8828H71.9516V21.2109H67.6625V26.8828H64.5219V30.375H67.5219V42.8906ZM107.595 48L114.298 27.0234H109.986L105.416 41.5547L101.15 27.0234H97.3531L93.1813 41.5547L88.5406 27.0234H83.9234L90.6969 48H94.9625L99.2281 33.7266L103.306 48H107.595ZM131.356 48.5625C137.567 48.5625 142.114 43.9688 142.114 37.5469C142.114 34.3594 141.106 31.6875 139.067 29.5781C137.028 27.4922 134.473 26.4375 131.38 26.4375C125.192 26.4375 120.692 31.0312 120.692 37.5C120.692 43.9688 125.145 48.5625 131.356 48.5625ZM131.38 30.1641C135.2 30.1641 137.473 33 137.473 37.5C137.473 42.0469 135.13 44.9531 131.356 44.9297C127.583 44.9062 125.333 42.0703 125.333 37.5469C125.333 35.25 125.872 33.4688 126.927 32.1562C127.958 30.8203 129.458 30.1641 131.38 30.1641ZM155.352 30.5859V27.0469H151.086V47.9766H155.445V38.625C155.445 36.0703 155.961 34.1484 157.156 32.8594C158.352 31.5469 160.086 30.8672 163.297 30.8672V26.625C159.289 26.5312 157.086 27.8203 155.352 30.5859ZM186.636 48H192.073L182.089 35.6016L191.816 26.8125H185.98L176.253 35.6719V17.7656H171.73V48H176.253V40.3828L178.714 38.2031L186.636 48ZM207.397 48.5859C212.53 48.5859 216.163 46.1484 216.163 42.1406C216.163 38.1562 213.795 36.4688 209.413 35.7656L205.616 35.1328C203.647 34.8281 202.803 33.9375 202.803 32.6484C202.803 31.0781 204.209 29.9531 206.67 29.9531C209.952 29.9531 211.663 31.0078 212.155 34.125H215.905C215.459 28.8047 212.061 26.4375 206.905 26.4375C201.772 26.4375 198.561 29.0391 198.561 33.0234C198.561 36.4219 200.764 38.3672 204.889 39.0938L208.311 39.6797C211.006 40.1484 211.873 40.8516 211.873 42.4453C211.873 44.0156 210.373 45.0703 207.256 45.0703C204.209 45.0703 202.241 43.9453 201.842 40.8047H197.928C198.327 46.2422 202.264 48.5859 207.397 48.5859Z" fill="#34302C"/>
<line x1="238.5" y1="0.5" x2="0.5" y2="0.5" stroke="#AF2319" stroke-linecap="square"/>
<line x1="238.5" y1="68.5" x2="0.5" y2="68.5" stroke="#AF2319" stroke-linecap="square"/>
<line x1="238.5" y1="67.5" x2="238.5" y2="39.5" stroke="#AF2319" stroke-linecap="square"/>
<line x1="0.5" y1="67.5" x2="0.500001" y2="39.5" stroke="#AF2319" stroke-linecap="square"/>
<line x1="0.5" y1="28.5" x2="0.500001" y2="0.5" stroke="#AF2319" stroke-linecap="square"/>
<line x1="238.5" y1="28.5" x2="238.5" y2="0.5" stroke="#AF2319" stroke-linecap="square"/>
</svg>
