<svg width="1381" height="189" viewBox="0 0 1381 189" fill="none" xmlns="http://www.w3.org/2000/svg">
<path d="M1379.25 94L1326.08 186.098C1325.72 186.716 1325.06 187.098 1324.35 187.098H1218M1369.25 78L1316.08 169.928C1315.72 170.546 1315.06 170.927 1314.35 170.927H1208M1208 171L1218 187M1369.5 78L1379 93.5M19.5742 149.602L69.3789 1.16406H51.4102L1.41016 149.602H19.5742ZM97.0508 149.602L146.855 1.16406H128.887L78.8867 149.602H97.0508ZM301.773 133H322.77L270.426 7.02344H250.016L198.648 133H218.375L232.73 96.8672H286.93L301.773 133ZM260.074 30.9492L280.289 80.4609H239.273L260.074 30.9492ZM431.887 133H452.883C448.879 128.703 447.707 126.164 447.121 122.648C446.438 118.938 445.559 112.102 444.777 101.945C443.703 88.7617 439.016 79.875 428.176 75.6758C441.359 71.9648 449.367 61.125 449.367 44.8164C449.367 20.8906 432.668 7.02344 401.809 7.02344H350.637V133H369.973V83.3906H403.176C417.434 83.3906 424.758 90.3242 425.637 104.875C426.027 112.102 426.418 118.547 427.102 123.332C427.883 128.801 429.543 132.219 431.887 133ZM400.832 23.7227C420.559 23.7227 429.445 31.9258 429.445 45.4023C429.445 59.6602 420.461 66.9844 400.832 66.9844H369.973V23.7227H400.832ZM540.516 23.918H585.926V7.02344H476.355V23.918H520.984V133H540.516V23.918ZM732.25 133L764.574 7.02344H745.727L721.117 105.168L694.359 7.02344H676.195L650.023 104.777L624.828 7.02344H605.395L637.621 133H659.496L685.18 38.7617L710.18 133H732.25ZM849.57 135.344C886.289 135.344 912.266 108.586 912.266 70.0117C912.266 50.7734 906.406 35.0508 894.785 22.8438C883.164 10.7344 868.027 4.67969 849.668 4.67969C812.852 4.67969 787.07 31.4375 787.07 70.0117C787.07 108.586 812.852 135.344 849.57 135.344ZM849.57 21.9648C875.059 21.9648 891.66 40.3242 891.758 70.0117C891.758 99.6992 875.352 118.059 849.668 118.059C823.984 118.059 807.285 99.5039 807.285 70.0117C807.285 40.5195 824.082 21.9648 849.57 21.9648ZM1025.97 133H1046.97C1042.96 128.703 1041.79 126.164 1041.21 122.648C1040.52 118.938 1039.64 112.102 1038.86 101.945C1037.79 88.7617 1033.1 79.875 1022.26 75.6758C1035.45 71.9648 1043.45 61.125 1043.45 44.8164C1043.45 20.8906 1026.75 7.02344 995.895 7.02344H944.723V133H964.059V83.3906H997.262C1011.52 83.3906 1018.84 90.3242 1019.72 104.875C1020.11 112.102 1020.5 118.547 1021.19 123.332C1021.97 128.801 1023.63 132.219 1025.97 133ZM994.918 23.7227C1014.64 23.7227 1023.53 31.9258 1023.53 45.4023C1023.53 59.6602 1014.55 66.9844 994.918 66.9844H964.059V23.7227H994.918ZM1160.97 133H1185.09L1125.42 62.5898L1179.62 7.02344H1155.6L1098.18 65.7148V7.02344H1078.45V133H1098.18V88.1758L1110.97 75.2852L1160.97 133ZM1253.48 135.344C1282.59 135.344 1302.21 121.184 1302.21 99.2109C1302.21 77.6289 1290.69 67.375 1267.45 62.8828L1245.28 58.5859C1229.85 55.5586 1224.29 51.9453 1224.29 40.3242C1224.29 28.8984 1232.98 20.5 1251.53 20.5C1269.99 20.5 1281.61 28.8984 1282.1 49.6992H1300.36C1300.07 19.3281 1280.83 4.67969 1251.73 4.67969C1222.62 4.67969 1205.14 19.5234 1205.14 42.1797C1205.14 60.832 1215.98 72.0625 1236.88 76.0664L1261.1 80.7539C1277.21 83.8789 1283.27 88.957 1283.27 100.09C1283.27 111.125 1273.41 119.23 1253.78 119.23C1244.21 119.23 1236.2 116.301 1229.75 110.734C1223.21 105.07 1219.89 101.652 1219.4 89.8359H1201.43C1201.53 121.379 1224.19 135.344 1253.48 135.344Z" stroke="#AF2319" stroke-opacity="0.25" stroke-width="2" stroke-linecap="round"/>
</svg>
