<svg width="1449" height="255" viewBox="0 0 1449 255" fill="none" xmlns="http://www.w3.org/2000/svg">
<path d="M318.1 172.85C320.99 176.25 324.39 179.31 328.47 181.86C335.44 186.45 346.15 190.7 360.6 190.7C386.95 190.7 403.1 174.55 403.1 155.85C403.1 111.65 340.2 127.8 340.2 101.45C340.2 92.78 347.85 85.3 362.3 85.3C370.29 85.3 376.58 88.19 380.66 90.91C383.04 92.44 385.08 94.31 386.95 96.35L399.7 83.6C397.15 80.71 393.92 78.16 390.18 75.95C383.89 72.04 374.54 68.3 362.3 68.3C336.97 68.3 321.5 83.6 321.5 101.45C321.5 145.65 384.4 129.5 384.4 155.85C384.4 165.37 376.07 173.7 360.6 173.7C350.4 173.7 342.92 170.3 337.99 166.9C335.1 164.86 332.72 162.65 330.85 160.1L318.1 172.85ZM421.853 155C421.853 177.27 435.453 190.7 454.153 190.7C462.823 190.7 468.943 187.3 473.193 183.9C475.743 181.86 477.783 179.65 479.653 177.1V189H496.653V107.4H479.653V151.6C479.653 165.2 470.303 174.55 457.553 174.55C446.503 174.55 438.853 167.07 438.853 155V107.4H421.853V155ZM580.816 162.65C578.946 164.86 576.906 166.9 574.696 168.6C570.786 171.83 565.176 174.55 557.866 174.55C543.416 174.55 532.366 163.67 532.366 148.2C532.366 132.73 543.416 121.85 557.866 121.85C565.176 121.85 570.446 124.74 574.356 127.46C576.566 128.99 578.436 130.86 579.966 132.9L591.866 121.85C589.656 118.96 586.766 116.24 583.536 113.86C577.926 109.78 569.426 105.7 557.866 105.7C534.066 105.7 515.366 124.4 515.366 148.2C515.366 172 534.066 190.7 557.866 190.7C569.426 190.7 577.926 186.45 583.876 182.2C587.276 179.65 590.166 176.93 592.716 173.7L580.816 162.65ZM667.477 162.65C665.607 164.86 663.567 166.9 661.357 168.6C657.447 171.83 651.837 174.55 644.527 174.55C630.077 174.55 619.027 163.67 619.027 148.2C619.027 132.73 630.077 121.85 644.527 121.85C651.837 121.85 657.107 124.74 661.017 127.46C663.227 128.99 665.097 130.86 666.627 132.9L678.527 121.85C676.317 118.96 673.427 116.24 670.197 113.86C664.587 109.78 656.087 105.7 644.527 105.7C620.727 105.7 602.027 124.4 602.027 148.2C602.027 172 620.727 190.7 644.527 190.7C656.087 190.7 664.587 186.45 670.537 182.2C673.937 179.65 676.827 176.93 679.377 173.7L667.477 162.65ZM755.837 163.5C753.967 165.71 751.757 167.58 749.377 169.11C745.297 171.83 739.347 174.55 732.037 174.55C718.267 174.55 708.407 165.2 706.537 154.15H769.437L769.777 151.77C769.947 150.24 770.287 148.2 770.287 145.65C770.287 122.53 753.457 105.7 730.337 105.7C707.387 105.7 688.687 124.4 688.687 148.2C688.687 172 707.387 190.7 731.187 190.7C743.257 190.7 751.587 186.96 757.537 183.05C760.937 180.84 763.827 178.29 766.037 175.4L755.837 163.5ZM706.537 139.7C709.937 128.65 717.417 121 730.337 121C742.407 121 749.887 128.65 752.437 139.7H706.537ZM781.264 175.4C783.474 178.29 786.194 180.84 789.424 183.05C794.864 186.96 802.684 190.7 813.564 190.7C833.284 190.7 845.014 178.8 845.014 165.2C845.014 136.3 801.664 143.1 801.664 129.5C801.664 125.25 805.744 121 814.414 121C819.854 121 824.274 122.53 827.504 124.4C829.374 125.42 830.904 126.61 832.264 127.8L843.314 116.75C841.444 114.71 839.064 112.84 836.174 111.31C831.414 108.59 824.104 105.7 814.414 105.7C795.884 105.7 784.664 116.75 784.664 129.5C784.664 158.57 828.014 151.6 828.014 165.2C828.014 170.47 823.084 175.4 813.564 175.4C806.934 175.4 802.004 172.68 798.094 169.96C795.884 168.43 794.014 166.56 792.314 164.35L781.264 175.4ZM855.141 175.4C857.351 178.29 860.071 180.84 863.301 183.05C868.741 186.96 876.561 190.7 887.441 190.7C907.161 190.7 918.891 178.8 918.891 165.2C918.891 136.3 875.541 143.1 875.541 129.5C875.541 125.25 879.621 121 888.291 121C893.731 121 898.151 122.53 901.381 124.4C903.251 125.42 904.781 126.61 906.141 127.8L917.191 116.75C915.321 114.71 912.941 112.84 910.051 111.31C905.291 108.59 897.981 105.7 888.291 105.7C869.761 105.7 858.541 116.75 858.541 129.5C858.541 158.57 901.891 151.6 901.891 165.2C901.891 170.47 896.961 175.4 887.441 175.4C880.811 175.4 875.881 172.68 871.971 169.96C869.761 168.43 867.891 166.56 866.191 164.35L855.141 175.4ZM977.461 189H996.161V153.3L1014.86 132.9L1053.96 189H1076.91L1027.61 119.3L1073.51 70H1049.71L996.161 127.8V70H977.461V189ZM1080.32 148.2C1080.32 172 1099.02 190.7 1122.82 190.7C1146.62 190.7 1165.32 172 1165.32 148.2C1165.32 124.4 1146.62 105.7 1122.82 105.7C1099.02 105.7 1080.32 124.4 1080.32 148.2ZM1122.82 174.55C1108.37 174.55 1097.32 163.67 1097.32 148.2C1097.32 132.73 1108.37 121.85 1122.82 121.85C1137.27 121.85 1148.32 132.73 1148.32 148.2C1148.32 163.67 1137.27 174.55 1122.82 174.55ZM1231.63 189H1248.63V137.15C1248.63 119.3 1235.03 105.7 1214.63 105.7C1203.75 105.7 1195.93 109.44 1190.49 113.35C1187.26 115.56 1184.54 118.11 1182.33 121L1193.38 132.05C1195.08 130.01 1196.95 128.14 1199.16 126.61C1203.07 123.89 1208 121 1214.63 121C1224.83 121 1231.63 127.63 1231.63 136.3L1201.88 141.4C1187.43 143.95 1178.08 153.3 1178.08 166.9C1178.08 179.65 1188.96 190.7 1205.28 190.7C1214.12 190.7 1220.58 187.3 1225.17 183.9C1227.72 181.86 1229.93 179.65 1231.63 177.1V189ZM1231.63 152.45C1231.63 166.05 1221.43 176.25 1208.68 176.25C1200.01 176.25 1195.08 171.15 1195.08 165.2C1195.08 159.93 1199.16 155.68 1207.83 154.15L1231.63 149.9V152.45ZM1332.7 162.65C1330.83 164.86 1328.79 166.9 1326.58 168.6C1322.67 171.83 1317.06 174.55 1309.75 174.55C1295.3 174.55 1284.25 163.67 1284.25 148.2C1284.25 132.73 1295.3 121.85 1309.75 121.85C1317.06 121.85 1322.33 124.74 1326.24 127.46C1328.45 128.99 1330.32 130.86 1331.85 132.9L1343.75 121.85C1341.54 118.96 1338.65 116.24 1335.42 113.86C1329.81 109.78 1321.31 105.7 1309.75 105.7C1285.95 105.7 1267.25 124.4 1267.25 148.2C1267.25 172 1285.95 190.7 1309.75 190.7C1321.31 190.7 1329.81 186.45 1335.76 182.2C1339.16 179.65 1342.05 176.93 1344.6 173.7L1332.7 162.65ZM1361.52 189H1378.52V144.8C1378.52 131.2 1387.87 121.85 1400.62 121.85C1411.67 121.85 1419.32 129.33 1419.32 141.4V189H1436.32V141.4C1436.32 119.13 1422.72 105.7 1404.02 105.7C1395.35 105.7 1389.06 109.1 1384.81 112.5C1382.26 114.54 1380.22 116.75 1378.52 119.3V70H1361.52V189Z" fill="#282828"/>
<rect width="255" height="255" rx="40" fill="#3954DB"/>
<path d="M102.108 131.786L78.5644 112.508C78.4443 112.41 78.2715 112.41 78.1514 112.508L54.4422 131.92C54.2102 132.11 54.0757 132.394 54.0757 132.694L54.0772 202.08C54.0772 202.357 54.4012 202.508 54.6131 202.33L102.103 162.33C102.315 162.151 102.639 162.301 102.639 162.579V193.818C102.639 197.729 105.572 200.662 109.483 200.662H186.888C202.043 199.848 202.532 180.293 197.48 176.056L143.819 127.907C143.672 127.775 143.67 127.548 143.821 127.42C146.702 124.982 171.151 104.297 187.54 90.666C204.976 76.1628 200.739 53.1857 186.725 53.1857H161.666C161.432 53.1857 161.205 53.2679 161.025 53.4179L103.065 101.774C102.838 101.964 102.706 102.244 102.705 102.54L102.64 131.534C102.64 131.809 102.32 131.96 102.108 131.786Z" fill="white" fill-opacity="0.62"/>
<path d="M55.5794 203.477L55.5794 203.477L101.139 165.103V193.818C101.139 198.558 104.743 202.162 109.483 202.162H186.888H186.928L186.968 202.16C191.104 201.938 194.319 200.423 196.686 198.152C199.031 195.9 200.472 192.975 201.216 190.007C201.96 187.042 202.029 183.962 201.565 181.315C201.113 178.736 200.109 176.316 198.465 174.924L145.824 127.691C151.383 122.988 173.376 104.398 188.499 91.8192C197.566 84.2777 201.096 74.4423 200.421 66.3622C199.75 58.3287 194.781 51.6857 186.725 51.6857H161.666C161.08 51.6857 160.514 51.8911 160.064 52.2661L102.104 100.622C101.536 101.096 101.207 101.797 101.205 102.536L101.146 129.059L79.5147 111.348C78.8419 110.797 77.874 110.797 77.2012 111.348C77.2012 111.348 77.2012 111.348 77.2012 111.348L53.492 130.76C52.912 131.234 52.5757 131.944 52.5757 132.694L52.5772 202.08C52.5772 203.633 54.392 204.477 55.5794 203.477ZM144.821 126.791C144.822 126.791 144.822 126.792 144.823 126.792L144.821 126.791L144.032 127.67L144.821 126.791Z" stroke="white" stroke-opacity="0.62" stroke-width="3"/>
<path d="M52.4143 59.704L52.4143 59.7071L52.5741 136.719C52.578 138.597 54.7612 139.628 56.2145 138.438L78.358 120.307L100.501 138.438C101.955 139.628 104.138 138.597 104.142 136.719L104.302 59.7071V59.704C104.302 55.2756 100.712 51.6857 96.2833 51.6857H60.4326C56.0042 51.6857 52.4143 55.2756 52.4143 59.704Z" fill="white" stroke="white" stroke-width="3"/>
</svg>
