<svg width="300" height="296" viewBox="0 0 300 296" fill="none" xmlns="http://www.w3.org/2000/svg">
<path d="M154.054 200.73C154.054 172.742 176.742 150.054 204.73 150.054H290C295.523 150.054 300 154.531 300 160.054V286C300 291.523 295.523 296 290 296H164.054C158.531 296 154.054 291.523 154.054 286V200.73Z" fill="black"/>
<path d="M0 160.054C0 154.531 4.47715 150.054 10 150.054H95.2703C123.258 150.054 145.946 172.742 145.946 200.73V286C145.946 291.523 141.469 296 135.946 296H10C4.47716 296 0 291.523 0 286V160.054Z" fill="black"/>
<path d="M95.2703 141.946H10C4.47715 141.946 0 137.469 0 131.946V10.9041C0 3.79368 7.21181 -1.04516 13.7913 1.65062L139.737 53.2535C143.493 54.7922 145.946 58.4483 145.946 62.5069V91.2703C145.946 119.258 123.258 141.946 95.2703 141.946Z" fill="black"/>
<path d="M286.209 1.65061C292.788 -1.04517 300 3.79367 300 10.904V131.946C300 137.469 295.523 141.946 290 141.946H204.73C176.742 141.946 154.054 119.258 154.054 91.2703V62.5069C154.054 58.4483 156.507 54.7922 160.263 53.2535L286.209 1.65061Z" fill="black"/>
</svg>
