<svg width="1500" height="750" viewBox="0 0 1500 750" fill="none" xmlns="http://www.w3.org/2000/svg">
<g clip-path="url(#clip0_909_275)">
<rect width="1500" height="750" fill="#FDCFD3"/>
<path d="M1027.23 155.384C1030.37 155.384 1033.09 153.752 1033.12 150.584C1033.15 148.184 1031.58 146.808 1029.6 146.008L1027.39 145.144C1026.53 144.824 1025.89 144.408 1025.89 143.64C1025.89 142.968 1026.37 142.392 1027.39 142.392C1028.32 142.392 1029.22 142.84 1030.24 143.704C1030.53 143.928 1030.75 143.96 1030.98 143.704L1032.38 142.008C1032.54 141.816 1032.61 141.56 1032.42 141.336C1031.1 139.768 1029.22 138.936 1027.17 138.936C1024.26 138.936 1021.7 140.664 1021.7 143.672C1021.7 145.848 1023.1 147.192 1025.12 147.992L1027.1 148.792C1028.26 149.272 1028.74 149.624 1028.74 150.392C1028.74 151.288 1028.03 151.704 1026.98 151.704C1025.76 151.704 1024.67 151.16 1023.36 150.168C1023.1 149.976 1022.82 149.912 1022.56 150.296L1021.44 151.864C1021.22 152.216 1021.18 152.568 1021.38 152.792C1022.62 154.264 1024.61 155.384 1027.23 155.384ZM1036.74 155H1040.2C1040.49 155 1040.68 154.808 1040.68 154.52V146.392C1040.68 144.184 1041.9 143 1043.75 143C1045.64 143 1046.66 144.184 1046.66 146.392V154.52C1046.66 154.808 1046.86 155 1047.14 155H1050.57C1050.86 155 1051.08 154.808 1051.08 154.52V145.4C1051.08 141.304 1048.68 138.936 1045.42 138.936C1043.08 138.936 1041.58 140.088 1040.68 141.688V132.6C1040.68 132.312 1040.49 132.12 1040.2 132.12H1036.74C1036.46 132.12 1036.26 132.312 1036.26 132.6V154.52C1036.26 154.808 1036.46 155 1036.74 155ZM1055.34 155H1058.79C1059.08 155 1059.27 154.808 1059.27 154.52V146.68C1059.27 144.44 1060.42 143 1062.6 143C1063.05 143 1063.4 143.064 1063.75 143.16C1064.17 143.256 1064.39 143.16 1064.39 142.776V139.96C1064.39 139.672 1064.33 139.48 1064.1 139.32C1063.85 139.128 1063.4 138.936 1062.66 138.936C1060.81 138.936 1059.82 140.184 1059.27 141.848L1059.14 139.832C1059.11 139.448 1058.95 139.32 1058.66 139.32H1055.34C1055.05 139.32 1054.86 139.512 1054.86 139.8V154.52C1054.86 154.808 1055.05 155 1055.34 155ZM1074.6 155.384C1076.81 155.384 1078.83 154.744 1080.17 153.4C1080.46 153.144 1080.49 152.92 1080.33 152.696L1079.15 151.064C1078.99 150.84 1078.83 150.808 1078.6 150.936C1077.32 151.672 1076.17 151.896 1074.95 151.896C1072.43 151.896 1070.79 150.808 1070.31 148.824H1079.85C1081.23 148.824 1081.58 147.96 1081.58 146.424C1081.58 142.456 1078.83 138.936 1074.06 138.936C1069.23 138.936 1065.99 142.488 1065.99 147.096C1065.99 151.832 1069.45 155.384 1074.6 155.384ZM1070.25 145.72C1070.63 143.64 1072.14 142.584 1074.09 142.584C1075.98 142.584 1077.39 143.64 1077.64 145.72H1070.25ZM1086.65 161.08H1090.04C1090.3 161.08 1090.52 160.952 1090.62 160.696L1098.91 139.864C1099.04 139.512 1098.88 139.32 1098.52 139.32H1095C1094.75 139.32 1094.52 139.448 1094.43 139.704L1090.72 149.88L1086.97 139.704C1086.88 139.448 1086.65 139.32 1086.4 139.32H1082.88C1082.52 139.32 1082.36 139.512 1082.49 139.864L1088.54 155.032L1086.27 160.536C1086.11 160.888 1086.3 161.08 1086.65 161.08ZM1107.29 155.384C1109.63 155.384 1111.33 154.392 1112.41 152.792L1112.48 154.52C1112.48 154.808 1112.67 155 1112.96 155H1116.06C1116.35 155 1116.57 154.808 1116.57 154.52V139.8C1116.57 139.512 1116.38 139.32 1116.09 139.32H1112.96C1112.67 139.32 1112.48 139.512 1112.48 139.8L1112.41 141.528C1111.36 139.896 1109.66 138.936 1107.29 138.936C1102.88 138.936 1099.84 142.52 1099.84 147.16C1099.84 151.832 1102.88 155.384 1107.29 155.384ZM1104.16 147.16C1104.16 144.664 1105.89 142.968 1108.22 142.968C1110.56 142.968 1112.19 144.632 1112.19 147.16C1112.19 149.688 1110.56 151.352 1108.22 151.352C1105.89 151.352 1104.16 149.688 1104.16 147.16ZM1125.06 132.504C1124.87 133.251 1124.62 134.061 1124.32 134.936C1124.03 135.789 1123.71 136.653 1123.36 137.528C1123.02 138.381 1122.67 139.203 1122.31 139.992H1118.88C1119.03 139.352 1119.18 138.691 1119.33 138.008C1119.48 137.325 1119.62 136.643 1119.75 135.96C1119.9 135.256 1120.03 134.584 1120.13 133.944C1120.26 133.304 1120.37 132.707 1120.45 132.152H1124.84L1125.06 132.504ZM1132.67 155.384C1135.81 155.384 1138.53 153.752 1138.56 150.584C1138.59 148.184 1137.02 146.808 1135.04 146.008L1132.83 145.144C1131.97 144.824 1131.33 144.408 1131.33 143.64C1131.33 142.968 1131.81 142.392 1132.83 142.392C1133.76 142.392 1134.65 142.84 1135.68 143.704C1135.97 143.928 1136.19 143.96 1136.41 143.704L1137.82 142.008C1137.98 141.816 1138.05 141.56 1137.85 141.336C1136.54 139.768 1134.65 138.936 1132.61 138.936C1129.69 138.936 1127.13 140.664 1127.13 143.672C1127.13 145.848 1128.54 147.192 1130.56 147.992L1132.54 148.792C1133.69 149.272 1134.17 149.624 1134.17 150.392C1134.17 151.288 1133.47 151.704 1132.41 151.704C1131.2 151.704 1130.11 151.16 1128.8 150.168C1128.54 149.976 1128.25 149.912 1128 150.296L1126.88 151.864C1126.65 152.216 1126.62 152.568 1126.81 152.792C1128.06 154.264 1130.05 155.384 1132.67 155.384ZM1157.26 155.384C1161.65 155.384 1164.69 151.832 1164.69 147.16C1164.69 142.52 1161.65 138.936 1157.26 138.936C1155.09 138.936 1153.45 139.736 1152.4 141.144V132.6C1152.4 132.312 1152.21 132.12 1151.92 132.12H1148.43C1148.14 132.12 1147.95 132.312 1147.95 132.6V154.52C1147.95 154.808 1148.17 155 1148.46 155H1151.6C1151.89 155 1152.08 154.808 1152.08 154.52L1152.14 152.792C1153.23 154.392 1154.89 155.384 1157.26 155.384ZM1152.33 147.16C1152.33 144.632 1153.97 142.968 1156.33 142.968C1158.64 142.968 1160.37 144.664 1160.37 147.16C1160.37 149.688 1158.64 151.352 1156.33 151.352C1153.97 151.352 1152.33 149.688 1152.33 147.16ZM1168.18 155H1171.67C1171.96 155 1172.15 154.808 1172.15 154.52V132.6C1172.15 132.312 1171.96 132.12 1171.67 132.12H1168.18C1167.89 132.12 1167.7 132.312 1167.7 132.6V154.52C1167.7 154.808 1167.89 155 1168.18 155ZM1183.37 155.384C1188.08 155.384 1191.57 151.8 1191.57 147.16C1191.57 142.52 1188.08 138.936 1183.37 138.936C1178.64 138.936 1175.15 142.52 1175.15 147.16C1175.15 151.8 1178.64 155.384 1183.37 155.384ZM1179.41 147.16C1179.41 144.6 1181.13 143 1183.37 143C1185.58 143 1187.31 144.6 1187.31 147.16C1187.31 149.72 1185.58 151.32 1183.37 151.32C1181.13 151.32 1179.41 149.72 1179.41 147.16ZM1201.94 161.56C1205.81 161.56 1210.22 159.768 1210.22 154.136V139.8C1210.22 139.512 1210.03 139.32 1209.74 139.32H1206.61C1206.32 139.32 1206.1 139.512 1206.1 139.8L1206.03 141.24C1205.04 139.768 1203.44 138.936 1201.14 138.936C1196.72 138.936 1193.74 142.2 1193.74 146.808C1193.74 151.448 1196.72 154.68 1201.14 154.68C1203.38 154.68 1205.01 153.816 1206 152.408V154.104C1206 157.016 1203.73 157.976 1201.52 157.976C1200.14 157.976 1198.74 157.592 1197.36 156.824C1197.01 156.632 1196.72 156.76 1196.56 157.08L1195.63 158.84C1195.47 159.128 1195.5 159.544 1195.82 159.768C1197.36 160.92 1199.6 161.56 1201.94 161.56ZM1198.06 146.808C1198.06 144.44 1199.73 142.904 1202 142.904C1204.24 142.904 1205.84 144.408 1205.84 146.808C1205.84 149.208 1204.24 150.712 1202 150.712C1199.73 150.712 1198.06 149.208 1198.06 146.808Z" fill="black"/>
<circle cx="1270.5" cy="142.5" r="3.5" fill="black"/>
<circle cx="1247.5" cy="142.5" r="3.5" fill="black"/>
<path d="M200 127C200 124.239 202.239 122 205 122H545C547.761 122 550 124.239 550 127V510C550 512.761 547.761 515 545 515H205C202.239 515 200 512.761 200 510V127Z" fill="#D5C6E9" stroke="black" stroke-width="10"/>
<path d="M178 144H528V489C528 491.761 525.761 494 523 494H183C180.239 494 178 491.761 178 489V144Z" fill="white" stroke="black" stroke-width="10"/>
<path d="M178 106C178 103.239 180.239 101 183 101H523C525.761 101 528 103.239 528 106V144H178V106Z" fill="#D8FDFB" stroke="black" stroke-width="10"/>
<path d="M433 128H448" stroke="black" stroke-width="2"/>
<path d="M494 116L506.728 128.728M506.728 116L494 128.728" stroke="black" stroke-width="2"/>
<rect x="465" y="116" width="12" height="12" stroke="black" stroke-width="2"/>
<path d="M302.594 268.029C295.052 272.607 289.637 279.994 287.541 288.564C285.444 297.134 286.838 306.186 291.416 313.727L324.211 367.757C325.164 369.327 327.21 369.828 328.781 368.874L350.963 355.411C352.533 354.457 353.034 352.411 352.081 350.841L324.315 305.097C323.362 303.527 323.862 301.481 325.433 300.527L351.596 284.647L361.756 301.385C362.709 302.955 364.761 303.452 366.332 302.499L417.508 271.436C419.079 270.482 419.586 268.433 418.632 266.862L405.169 244.682C384.974 211.411 347.811 240.584 302.594 268.029Z" fill="#D5C6E9"/>
<path d="M345.932 404.825C353.474 400.247 358.889 392.86 360.986 384.29C363.082 375.72 361.688 366.668 357.11 359.127L324.315 305.097M345.932 404.825C338.39 409.403 329.338 410.797 320.768 408.701C312.198 406.606 304.811 401.191 300.233 393.65L286.77 371.469C285.817 369.898 286.318 367.852 287.888 366.899L313.482 351.364M345.932 404.825C391.149 377.379 434.181 357.875 413.986 324.604L391.375 287.352M324.315 305.097C323.362 303.527 323.862 301.481 325.433 300.527M324.315 305.097L352.081 350.841C353.034 352.411 352.533 354.457 350.963 355.411L328.781 368.874C327.21 369.828 325.164 369.327 324.211 367.757L291.416 313.727C286.838 306.186 285.444 297.134 287.541 288.564C289.637 279.994 295.052 272.607 302.594 268.029M325.433 300.527L351.027 284.992M325.433 300.527L351.596 284.647M302.594 268.029C310.136 263.451 319.188 262.057 327.758 264.153C336.328 266.248 343.715 271.663 348.293 279.205L351.596 284.647M302.594 268.029C347.811 240.584 384.974 211.411 405.169 244.682L418.632 266.862C419.586 268.433 419.079 270.482 417.508 271.436L366.332 302.499C364.761 303.452 362.709 302.955 361.756 301.385L351.596 284.647" stroke="black" stroke-width="10"/>
<path d="M480 426.551L482.562 437.926C482.732 438.679 483.321 439.268 484.074 439.438L495.449 442L484.074 444.562C483.321 444.732 482.732 445.321 482.562 446.074L480 457.449L477.438 446.074C477.268 445.321 476.679 444.732 475.926 444.562L464.551 442L475.926 439.438C476.679 439.268 477.268 438.679 477.438 437.926L480 426.551Z" fill="black" stroke="black" stroke-width="2"/>
<circle cx="458.5" cy="458.5" r="3.5" fill="black"/>
<path d="M771.488 93.4406L774.05 104.816C774.178 105.381 774.619 105.822 775.184 105.95L786.559 108.512C787.08 108.629 787.08 109.371 786.559 109.488L775.184 112.05C774.619 112.178 774.178 112.619 774.05 113.184L771.488 124.559C771.371 125.08 770.629 125.08 770.512 124.559L767.95 113.184C767.822 112.619 767.381 112.178 766.816 112.05L755.441 109.488C754.92 109.371 754.92 108.629 755.441 108.512L766.816 105.95C767.381 105.822 767.822 105.381 767.95 104.816L770.512 93.4406C770.629 92.9205 771.371 92.9205 771.488 93.4406Z" fill="black" stroke="black"/>
<path d="M990.488 615.441L993.05 626.816C993.178 627.381 993.619 627.822 994.184 627.95L1005.56 630.512C1006.08 630.629 1006.08 631.371 1005.56 631.488L994.184 634.05C993.619 634.178 993.178 634.619 993.05 635.184L990.488 646.559C990.371 647.08 989.629 647.08 989.512 646.559L986.95 635.184C986.822 634.619 986.381 634.178 985.816 634.05L974.441 631.488C973.92 631.371 973.92 630.629 974.441 630.512L985.816 627.95C986.381 627.822 986.822 627.381 986.95 626.816L989.512 615.441C989.629 614.92 990.371 614.92 990.488 615.441Z" fill="black" stroke="black"/>
<circle cx="731.5" cy="72.5" r="3.5" fill="black"/>
<path d="M501 196H649V342C649 343.105 648.105 344 647 344H503C501.895 344 501 343.105 501 342V196Z" fill="white" stroke="black" stroke-width="10"/>
<path d="M1330 481H1240C1238.9 481 1238 480.105 1238 479V361C1238 359.895 1238.9 359 1240 359H1302.78L1332 384.601V479C1332 480.105 1331.1 481 1330 481Z" fill="#D8FDFB"/>
<path d="M1302.78 359V382.601C1302.78 383.706 1303.68 384.601 1304.78 384.601H1332M1302.78 359L1332 384.601M1302.78 359H1240C1238.9 359 1238 359.895 1238 361V479C1238 480.105 1238.9 481 1240 481H1330C1331.1 481 1332 480.105 1332 479V384.601" stroke="black" stroke-width="10"/>
<path d="M1350 461H1260C1258.9 461 1258 460.105 1258 459V341C1258 339.895 1258.9 339 1260 339H1322.78L1352 364.601V459C1352 460.105 1351.1 461 1350 461Z" fill="white"/>
<path d="M1322.78 339V362.601C1322.78 363.706 1323.68 364.601 1324.78 364.601H1352M1322.78 339L1352 364.601M1322.78 339H1260C1258.9 339 1258 339.895 1258 341V459C1258 460.105 1258.9 461 1260 461H1350C1351.1 461 1352 460.105 1352 459V364.601" stroke="black" stroke-width="10"/>
<path d="M1370 441H1280C1278.9 441 1278 440.105 1278 439V321C1278 319.895 1278.9 319 1280 319H1342.78L1372 344.601V439C1372 440.105 1371.1 441 1370 441Z" fill="white"/>
<path d="M1342.78 319V342.601C1342.78 343.706 1343.68 344.601 1344.78 344.601H1372M1342.78 319L1372 344.601M1342.78 319H1280C1278.9 319 1278 319.895 1278 321V439C1278 440.105 1278.9 441 1280 441H1370C1371.1 441 1372 440.105 1372 439V344.601" stroke="black" stroke-width="10"/>
<path d="M686 851H596C594.895 851 594 850.105 594 849V731C594 729.895 594.895 729 596 729H658.784L688 754.601V849C688 850.105 687.105 851 686 851Z" fill="white"/>
<path d="M658.784 729V752.601C658.784 753.706 659.679 754.601 660.784 754.601H688M658.784 729L688 754.601M658.784 729H596C594.895 729 594 729.895 594 731V849C594 850.105 594.895 851 596 851H686C687.105 851 688 850.105 688 849V754.601" stroke="black" stroke-width="10"/>
<path d="M706 831H616C614.895 831 614 830.105 614 829V711C614 709.895 614.895 709 616 709H678.784L708 734.601V829C708 830.105 707.105 831 706 831Z" fill="white"/>
<path d="M678.784 709V732.601C678.784 733.706 679.679 734.601 680.784 734.601H708M678.784 709L708 734.601M678.784 709H616C614.895 709 614 709.895 614 711V829C614 830.105 614.895 831 616 831H706C707.105 831 708 830.105 708 829V734.601" stroke="black" stroke-width="10"/>
<path d="M726 811H636C634.895 811 634 810.105 634 809V691C634 689.895 634.895 689 636 689H698.784L728 714.601V809C728 810.105 727.105 811 726 811Z" fill="white"/>
<path d="M698.784 689V712.601C698.784 713.706 699.679 714.601 700.784 714.601H728M698.784 689L728 714.601M698.784 689H636C634.895 689 634 689.895 634 691V809C634 810.105 634.895 811 636 811H726C727.105 811 728 810.105 728 809V714.601" stroke="black" stroke-width="10"/>
<path d="M501 180C501 178.895 501.895 178 503 178H647C648.105 178 649 178.895 649 180V196H501V180Z" fill="white" stroke="black" stroke-width="10"/>
<path d="M-212 127C-212 124.239 -209.761 122 -207 122H133C135.761 122 138 124.239 138 127V510C138 512.761 135.761 515 133 515H-207C-209.761 515 -212 512.761 -212 510V127Z" fill="#D5C6E9" stroke="black" stroke-width="10"/>
<path d="M-234 144H116V489C116 491.761 113.761 494 111 494H-229C-231.761 494 -234 491.761 -234 489V144Z" fill="#D8FDFB" stroke="black" stroke-width="10"/>
<path d="M-234 106C-234 103.239 -231.761 101 -229 101H111C113.761 101 116 103.239 116 106V144H-234V106Z" fill="#D5C6E9" stroke="black" stroke-width="10"/>
<path d="M21 128H36" stroke="black" stroke-width="2"/>
<path d="M82 116L94.7279 128.728M94.7279 116L82 128.728" stroke="black" stroke-width="2"/>
<rect x="53" y="116" width="12" height="12" stroke="black" stroke-width="2"/>
<path d="M1159 672C1159 669.239 1161.24 667 1164 667H1464C1466.76 667 1469 669.239 1469 672V1055C1469 1057.76 1466.76 1060 1464 1060H1164C1161.24 1060 1159 1057.76 1159 1055V672Z" fill="#D8FDFB" stroke="black" stroke-width="10"/>
<path d="M1140 689H1450V1034C1450 1036.76 1447.76 1039 1445 1039H1145C1142.24 1039 1140 1036.76 1140 1034V689Z" fill="white" stroke="black" stroke-width="10"/>
<path d="M1140 651C1140 648.239 1142.24 646 1145 646H1445C1447.76 646 1450 648.239 1450 651V689H1140V651Z" fill="#D5C6E9" stroke="black" stroke-width="10"/>
<path d="M1352 673H1367" stroke="black" stroke-width="2"/>
<path d="M1413 661L1425.73 673.728M1425.73 661L1413 673.728" stroke="black" stroke-width="2"/>
<rect x="1384" y="661" width="12" height="12" stroke="black" stroke-width="2"/>
<path d="M1300.97 178L1401 178L1502.5 178C1503.05 178 1503.5 177.552 1503.5 177L1503.5 107C1503.5 106.448 1503.05 106 1502.5 106L1401 106L1300.97 106C1300.15 106 1299.68 106.928 1300.16 107.589L1324.83 141.411C1325.08 141.762 1325.08 142.238 1324.83 142.589L1300.16 176.411C1299.68 177.072 1300.15 178 1300.97 178Z" fill="#D8FDFB" stroke="black" stroke-width="8" stroke-linecap="round"/>
<path d="M1000 384C1000 399.802 995.009 415.199 985.74 427.997C976.47 440.794 963.395 450.336 948.381 455.262C933.367 460.188 917.181 460.247 902.132 455.429C887.083 450.611 873.94 441.162 864.578 428.432C855.217 415.702 850.116 400.341 850.002 384.539C849.888 368.738 854.768 353.305 863.946 340.441C873.123 327.578 886.128 317.942 901.107 312.908C916.085 307.874 932.271 307.699 947.354 312.409" stroke="black" stroke-width="10" stroke-linecap="round"/>
<path d="M968.613 322.985C980.89 331.76 990.234 344.034 995.424 358.204" stroke="black" stroke-width="10" stroke-linecap="round" stroke-dasharray="50 50"/>
<path d="M948 358H902C900.343 358 899 359.343 899 361V398C899 399.657 900.343 401 902 401H928.844C929.588 401 930.305 401.276 930.857 401.775L945.987 415.465C947.916 417.21 951 415.841 951 413.24V401V361C951 359.343 949.657 358 948 358Z" fill="white" stroke="black" stroke-width="10"/>
</g>
<defs>
<clipPath id="clip0_909_275">
<rect width="1500" height="750" fill="white"/>
</clipPath>
</defs>
</svg>
