<svg width="312" height="312" viewBox="0 0 312 312" fill="none" xmlns="http://www.w3.org/2000/svg">
<rect width="312" height="312" rx="7" fill="white"/>
<path d="M156 193.24C156 201.197 152.839 208.828 147.213 214.454C141.587 220.08 133.957 223.24 126 223.24H119M156 193.24C156 201.197 159.161 208.828 164.787 214.454C170.413 220.08 178.044 223.24 186 223.24H193M156 193.24V139.24C156 135.301 155.224 131.4 153.717 127.76C152.209 124.12 149.999 120.813 147.213 118.027C144.428 115.241 141.12 113.032 137.481 111.524C133.841 110.016 129.94 109.24 126 109.24H96.0001M126 218.24C132.631 218.24 138.989 215.606 143.678 210.918C148.366 206.23 151 199.871 151 193.24V139.24C151 135.957 150.353 132.706 149.097 129.673C147.841 126.64 145.999 123.884 143.678 121.563C141.356 119.241 138.6 117.4 135.567 116.143C132.534 114.887 129.283 114.24 126 114.24H91.0001M186 218.24C179.37 218.24 173.011 215.606 168.322 210.918C163.634 206.23 161 199.871 161 193.24V139.24C161 134.644 160.095 130.093 158.336 125.846C156.577 121.6 153.999 117.742 150.749 114.492C147.499 111.242 143.64 108.664 139.394 106.905C135.148 105.146 130.596 104.24 126 104.24H100.5M158.329 117.808C161.604 113.581 165.804 110.16 170.606 107.808C175.409 105.456 180.686 104.235 186.034 104.24M186 104.24H211.5M160.682 123.147C163.392 118.884 167.134 115.374 171.562 112.943C175.99 110.512 180.96 109.238 186.012 109.24M186.012 109.24H186M186.012 109.24H216M162.787 129.958C164.643 125.318 167.847 121.34 171.986 118.538C176.124 115.736 181.008 114.239 186.006 114.24M186 114.24H221M155.622 85.4611C154.305 84.5393 152.703 84.1174 151.103 84.2715C149.503 84.4255 148.011 85.1453 146.895 86.3015C145.778 87.4576 145.111 88.9741 145.013 90.5783C144.915 92.1825 145.392 93.7691 146.359 95.0527L155.326 105.503C155.525 105.736 155.884 105.736 156.084 105.505L165.105 95.0527C166.072 93.7691 166.549 92.1825 166.451 90.5783C166.353 88.9741 165.686 87.4576 164.569 86.3015C163.453 85.1453 161.961 84.4255 160.361 84.2715C158.761 84.1174 157.159 84.5393 155.842 85.4611M265.953 207.674C277.531 184.583 281.545 158.433 277.427 132.933C273.308 107.433 261.266 83.8761 243.009 65.6038M46.0471 207.674C34.4694 184.583 30.4552 158.433 34.5735 132.933C38.6919 107.433 50.7338 83.8761 68.9917 65.6038M92.3257 122.665L101.512 146.532C101.673 146.951 101.534 147.428 101.17 147.691C93.4996 153.225 89.012 153.142 81.6046 147.692C81.2459 147.428 81.1103 146.954 81.2702 146.539L90.4592 122.665C90.788 121.811 91.9968 121.811 92.3257 122.665ZM222.326 122.665L231.512 146.532C231.673 146.951 231.534 147.428 231.17 147.691C223.5 153.225 219.012 153.142 211.605 147.692C211.246 147.428 211.11 146.954 211.27 146.539L220.459 122.665C220.788 121.811 221.997 121.811 222.326 122.665ZM43.2187 222.207L54.1662 214.761L55.0098 216.001L45.2529 222.638L49.3136 228.607L48.123 229.417L43.2187 222.207ZM52.7813 235.403L62.6817 226.612L69.1487 233.895L68.0719 234.851L62.6009 228.69L59.2808 231.637L64.1675 237.141L63.0758 238.11L58.1891 232.607L54.854 235.568L60.325 241.73L59.2482 242.686L52.7813 235.403ZM69.564 252.502C68.5347 251.634 67.8415 250.657 67.4844 249.571C67.1461 248.483 67.1092 247.379 67.3737 246.259C67.6383 245.139 68.1746 244.1 68.9828 243.142C69.7909 242.184 70.7298 241.484 71.7994 241.044C72.8691 240.603 73.9693 240.467 75.1002 240.636C76.2498 240.803 77.3291 241.312 78.3381 242.164C79.4285 243.083 80.1434 244.149 80.4827 245.36C80.8408 246.569 80.8515 247.755 80.515 248.919L79.2615 247.862C79.4114 247.064 79.3445 246.275 79.0606 245.494C78.787 244.723 78.2629 244.01 77.4884 243.357C76.6731 242.669 75.8151 242.259 74.9145 242.128C74.0225 241.986 73.1606 242.087 72.3288 242.432C71.5073 242.786 70.7741 243.345 70.1293 244.109C69.4931 244.863 69.0656 245.68 68.8469 246.56C68.6369 247.429 68.6675 248.292 68.9389 249.149C69.2291 250.004 69.7819 250.776 70.5972 251.464C71.2087 251.98 71.8962 252.333 72.6599 252.524C73.4338 252.723 74.1995 252.715 74.9571 252.499C75.7249 252.292 76.4053 251.837 76.9986 251.134L73.2991 248.013L74.176 246.973L78.9303 250.984L74.3909 256.365L73.3361 255.475L74.8449 253.687C74.3558 253.832 73.8184 253.911 73.2328 253.923C72.6557 253.924 72.0503 253.815 71.4166 253.594C70.793 253.382 70.1755 253.018 69.564 252.502ZM79.9979 260.518L91.7347 252.203L93.3344 253.191L91.1622 267.409L89.7496 266.537L90.3881 262.419L84.806 258.973L81.4104 261.39L79.9979 260.518ZM86.0244 258.103L90.6194 260.94L91.7151 254.024L86.0244 258.103ZM98.0869 270.901L103.491 258.815L104.86 259.427L100.044 270.199L106.635 273.146L106.047 274.461L98.0869 270.901ZM122.917 280.062L125.655 267.108L131.115 268.262C131.884 268.425 132.59 268.731 133.231 269.18C133.887 269.619 134.437 270.178 134.879 270.857C135.322 271.537 135.622 272.309 135.78 273.173C135.938 274.038 135.909 274.979 135.694 275.997C135.479 277.014 135.124 277.886 134.63 278.613C134.135 279.34 133.548 279.925 132.869 280.367C132.189 280.809 131.459 281.105 130.678 281.253C129.913 281.391 129.146 281.379 128.376 281.216L122.917 280.062ZM124.678 278.983L128.611 279.814C129.537 280.01 130.389 279.945 131.167 279.619C131.945 279.293 132.597 278.783 133.125 278.091C133.666 277.401 134.033 276.6 134.226 275.687C134.422 274.76 134.412 273.872 134.197 273.023C133.994 272.176 133.602 271.453 133.02 270.853C132.441 270.24 131.688 269.835 130.762 269.639L126.829 268.808L124.678 278.983ZM148.811 284.125C147.813 284.068 146.911 283.843 146.105 283.45C145.3 283.057 144.615 282.531 144.052 281.871C143.501 281.212 143.09 280.468 142.816 279.637C142.544 278.794 142.434 277.906 142.487 276.974C142.541 276.029 142.751 275.16 143.116 274.366C143.482 273.572 143.975 272.879 144.597 272.287C145.231 271.695 145.971 271.25 146.816 270.951C147.661 270.651 148.583 270.53 149.581 270.587C150.58 270.644 151.482 270.869 152.287 271.262C153.093 271.655 153.771 272.181 154.321 272.84C154.884 273.5 155.303 274.245 155.576 275.075C155.849 275.905 155.959 276.793 155.905 277.738C155.852 278.67 155.643 279.539 155.276 280.346C154.911 281.14 154.41 281.833 153.776 282.424C153.155 283.017 152.421 283.462 151.576 283.762C150.731 284.061 149.81 284.182 148.811 284.125ZM148.894 282.668C149.972 282.729 150.911 282.549 151.709 282.127C152.522 281.692 153.157 281.087 153.616 280.312C154.088 279.524 154.352 278.638 154.408 277.653C154.465 276.654 154.303 275.743 153.922 274.921C153.555 274.098 152.992 273.432 152.233 272.921C151.488 272.398 150.577 272.106 149.498 272.045C148.433 271.984 147.495 272.171 146.682 272.606C145.87 273.027 145.228 273.625 144.757 274.399C144.299 275.174 144.041 276.061 143.985 277.06C143.929 278.045 144.084 278.955 144.45 279.791C144.831 280.613 145.4 281.287 146.158 281.811C146.917 282.321 147.829 282.607 148.894 282.668ZM168.833 283.771C167.518 283.89 166.356 283.695 165.345 283.185C164.334 282.661 163.522 281.912 162.911 280.936C162.313 279.96 161.958 278.848 161.844 277.6C161.73 276.351 161.879 275.193 162.29 274.125C162.715 273.055 163.378 272.178 164.28 271.493C165.18 270.795 166.287 270.386 167.602 270.267C168.598 270.176 169.51 270.273 170.34 270.559C171.168 270.832 171.889 271.248 172.502 271.808C173.115 272.368 173.599 273.04 173.951 273.825L172.378 273.968C171.972 273.189 171.389 272.592 170.628 272.18C169.868 271.767 168.943 271.61 167.854 271.71C166.792 271.806 165.904 272.128 165.191 272.675C164.489 273.208 163.983 273.89 163.67 274.722C163.358 275.554 163.247 276.468 163.338 277.463C163.427 278.446 163.701 279.325 164.16 280.1C164.618 280.861 165.241 281.447 166.028 281.857C166.827 282.253 167.758 282.403 168.82 282.306C169.909 282.206 170.79 281.885 171.463 281.342C172.137 280.798 172.603 280.107 172.861 279.266L174.434 279.123C174.228 279.945 173.874 280.694 173.374 281.368C172.872 282.03 172.239 282.576 171.475 283.008C170.709 283.425 169.829 283.68 168.833 283.771ZM187.822 280.631C186.76 280.889 185.757 280.886 184.815 280.622C183.882 280.341 183.078 279.83 182.404 279.088C181.729 278.346 181.254 277.406 180.976 276.265L179.194 268.939L180.651 268.585L182.443 275.95C182.686 276.947 183.071 277.711 183.598 278.242C184.138 278.769 184.748 279.108 185.43 279.258C186.121 279.391 186.803 279.376 187.477 279.212C188.164 279.045 188.777 278.745 189.316 278.312C189.853 277.866 190.24 277.285 190.477 276.568C190.714 275.852 190.712 274.995 190.469 273.997L188.677 266.632L190.135 266.278L191.917 273.604C192.191 274.731 192.199 275.779 191.941 276.747C191.683 277.716 191.197 278.541 190.484 279.222C189.785 279.9 188.897 280.369 187.822 280.631ZM202.122 276.364L196.993 264.157L198.598 263.483L205.4 267.437L207.264 259.843L208.868 259.169L213.996 271.375L212.613 271.956L208.368 261.852L206.291 269.558L199.259 265.678L203.504 275.783L202.122 276.364ZM222.395 266.977L215.483 255.684L223.79 250.6L224.542 251.828L217.514 256.129L219.832 259.916L226.109 256.074L226.872 257.319L220.594 261.162L222.922 264.966L229.95 260.664L230.702 261.892L222.395 266.977ZM237.74 256.945L229.28 246.761L230.618 245.649L244.029 248.991L236.91 240.422L238.064 239.464L246.524 249.648L245.186 250.76L231.75 247.387L238.894 255.987L237.74 256.945ZM255.113 241.001L246.364 233.053L243.258 236.473L242.206 235.518L249.428 227.569L250.479 228.524L247.373 231.943L256.122 239.891L255.113 241.001ZM266.97 226.461C266.226 227.535 265.481 228.309 264.733 228.781C263.975 229.245 263.22 229.469 262.47 229.453C261.727 229.425 261.013 229.215 260.328 228.823L261.215 227.54C261.764 227.871 262.313 227.991 262.862 227.9C263.4 227.802 263.924 227.548 264.434 227.139C264.951 226.719 265.426 226.196 265.858 225.571C266.495 224.65 266.84 223.81 266.894 223.053C266.936 222.288 266.64 221.686 266.004 221.246C265.62 220.981 265.218 220.905 264.798 221.02C264.375 221.117 263.931 221.337 263.466 221.68C263.01 222.013 262.539 222.401 262.054 222.844C261.559 223.279 261.054 223.716 260.54 224.155C260.033 224.583 259.515 224.946 258.985 225.244C258.462 225.531 257.936 225.694 257.406 225.733C256.873 225.754 256.338 225.578 255.801 225.207C254.912 224.593 254.424 223.752 254.334 222.686C254.253 221.608 254.682 220.389 255.622 219.029C256.289 218.064 256.987 217.371 257.716 216.951C258.433 216.523 259.133 216.318 259.817 216.337C260.509 216.345 261.14 216.522 261.711 216.868L260.836 218.135C260.242 217.822 259.591 217.778 258.885 218.002C258.167 218.22 257.464 218.827 256.774 219.825C256.349 220.439 256.065 220.98 255.92 221.447C255.775 221.915 255.729 222.321 255.783 222.666C255.833 222.992 255.935 223.266 256.091 223.486C256.253 223.696 256.428 223.866 256.615 223.994C256.977 224.245 257.364 224.318 257.776 224.214C258.185 224.091 258.618 223.864 259.075 223.531C259.528 223.18 260.001 222.778 260.493 222.324C260.985 221.87 261.49 221.432 262.007 221.012C262.522 220.573 263.045 220.214 263.579 219.935C264.109 219.637 264.641 219.477 265.174 219.457C265.714 219.425 266.259 219.599 266.807 219.978C267.816 220.676 268.329 221.598 268.347 222.745C268.354 223.884 267.895 225.123 266.97 226.461ZM80.9676 62.0706L70.9716 52.4605L72.3556 51.6983L80.6982 59.7987L78.4522 48.3408L79.9589 47.511L88.4416 55.5342L86.0554 44.1535L87.4394 43.3913L90.2176 56.9763L88.7285 57.7964L80.2282 49.7829L82.4567 61.2505L80.9676 62.0706ZM106.156 50.3103C105.217 50.6535 104.3 50.8042 103.404 50.7623C102.509 50.7204 101.672 50.5081 100.893 50.1254C100.127 49.7382 99.4541 49.2175 98.8744 48.5634C98.2901 47.8968 97.8378 47.1252 97.5175 46.2485C97.1926 45.3594 97.0408 44.4779 97.0622 43.6042C97.0836 42.7304 97.2623 41.8985 97.5983 41.1086C97.9467 40.3141 98.4497 39.6121 99.1072 39.0028C99.7647 38.3935 100.563 37.9172 101.502 37.574C102.442 37.2307 103.359 37.0801 104.254 37.122C105.15 37.1638 105.981 37.3784 106.747 37.7657C107.525 38.1483 108.204 38.6667 108.784 39.3208C109.364 39.9749 109.816 40.7465 110.141 41.6357C110.461 42.5123 110.613 43.3938 110.596 44.2801C110.575 45.1538 110.39 45.988 110.042 46.7825C109.706 47.5725 109.209 48.2721 108.551 48.8814C107.894 49.4908 107.096 49.9671 106.156 50.3103ZM105.655 48.939C106.67 48.5683 107.46 48.0311 108.026 47.3273C108.6 46.6065 108.944 45.7994 109.058 44.9062C109.179 43.9958 109.071 43.0773 108.732 42.1505C108.389 41.2113 107.88 40.4392 107.204 39.8342C106.542 39.2246 105.761 38.8357 104.862 38.6674C103.971 38.482 103.018 38.5746 102.003 38.9453C101.001 39.3114 100.213 39.8548 99.6394 40.5757C99.0606 41.284 98.7082 42.0871 98.582 42.9849C98.4684 43.8782 98.5832 44.7945 98.9264 45.7337C99.265 46.6604 99.768 47.4348 100.435 48.0569C101.111 48.6619 101.9 49.0548 102.804 49.2356C103.703 49.4039 104.653 49.3051 105.655 48.939ZM119.261 45.9473L116.401 33.0197L122.592 31.6505C123.92 31.3567 125.055 31.488 125.997 32.0443C126.952 32.5977 127.567 33.4927 127.841 34.7295C128.025 35.5627 128.009 36.2627 127.793 36.8294C127.59 37.3932 127.276 37.8586 126.852 38.2255C126.425 38.5794 125.984 38.8682 125.528 39.0919L130.079 43.5543L128.341 43.9387L124.12 39.6697L119.628 40.6632L120.725 45.6233L119.261 45.9473ZM119.322 39.2767L123.793 38.2875C124.262 38.1839 124.721 38.0072 125.171 37.7574C125.622 37.5077 125.969 37.1645 126.214 36.728C126.469 36.2756 126.523 35.7174 126.376 35.0535C126.195 34.2333 125.772 33.6508 125.109 33.3059C124.442 32.9481 123.647 32.8714 122.723 33.0758L118.173 34.0823L119.322 39.2767ZM137.626 42.411L136.457 29.2227L142.772 28.6628C144.127 28.5426 145.235 28.8191 146.098 29.4922C146.974 30.1641 147.468 31.131 147.58 32.3927C147.655 33.2427 147.55 33.9347 147.262 34.4689C146.988 35.0018 146.617 35.4229 146.149 35.7321C145.68 36.028 145.206 36.2575 144.725 36.4206L148.663 41.4324L146.89 41.5896L143.254 36.8121L138.672 37.2183L139.12 42.2785L137.626 42.411ZM138.546 35.8039L143.108 35.3994C143.586 35.357 144.065 35.241 144.543 35.0513C145.022 34.8616 145.41 34.5661 145.709 34.1648C146.02 33.7491 146.146 33.2025 146.086 32.5252C146.012 31.6884 145.668 31.0563 145.054 30.6288C144.44 30.1881 143.661 30.0095 142.718 30.0931L138.076 30.5047L138.546 35.8039ZM160.298 41.4387L160.494 36.2024L155.237 28L157.056 28.0681L161.292 34.6712L166.01 28.4032L167.829 28.4713L161.993 36.2585L161.797 41.4948L160.298 41.4387ZM173.986 42.4554L176.049 29.3771L185.493 30.8668L185.268 32.2892L177.307 31.0333L176.59 35.5771L183.682 36.6959L183.455 38.1381L176.362 37.0192L175.468 42.6891L173.986 42.4554ZM190.43 45.481L194.075 32.7527L200.17 34.4981C201.478 34.8726 202.413 35.5288 202.977 36.4669C203.553 37.4086 203.667 38.4883 203.318 39.706C203.083 40.5264 202.736 41.1342 202.276 41.5295C201.829 41.9285 201.331 42.1883 200.784 42.3088C200.24 42.4166 199.714 42.4602 199.207 42.4397L201.082 48.5314L199.371 48.0414L197.693 42.2767L193.271 41.0103L191.872 45.894L190.43 45.481ZM193.662 39.6452L198.065 40.9061C198.526 41.0382 199.014 41.1017 199.529 41.0965C200.043 41.0914 200.512 40.9552 200.936 40.6881C201.375 40.4118 201.689 39.9468 201.876 39.2931C202.107 38.4855 202.013 37.7721 201.594 37.1528C201.179 36.5207 200.516 36.0743 199.606 35.8137L195.126 34.5308L193.662 39.6452ZM208.262 51.1409L213.476 38.9708L222.429 42.8064L221.862 44.13L214.288 40.8851L212.539 44.9663L219.305 47.8647L218.73 49.2067L211.964 46.3084L210.208 50.408L217.782 53.6529L217.215 54.9765L208.262 51.1409ZM224.35 58.5634L231.011 47.1212L239.429 52.0216L238.704 53.2661L231.583 49.1203L229.349 52.9574L235.71 56.6604L234.975 57.9222L228.615 54.2192L226.371 58.0736L233.492 62.2193L232.767 63.4638L224.35 58.5634Z" stroke="black" stroke-width="2" stroke-linecap="round"/>
</svg>
