<svg width="52" height="57" viewBox="0 0 52 57" fill="none" xmlns="http://www.w3.org/2000/svg">
<path d="M9.87908 35.9363L2.0929 53.1032C1.70732 53.9533 2.59352 54.8213 3.43549 54.4183L25.5282 43.8416C25.8012 43.7109 26.1188 43.7109 26.3918 43.8416L48.4845 54.4183C49.3265 54.8213 50.2127 53.9533 49.8271 53.1032L42.0409 35.9363M24.6738 37.2283L13.3234 30.9791C12.0886 30.2993 11.5961 28.7759 12.1992 27.5019L23.5496 3.52574C24.5127 1.49142 27.4073 1.49142 28.3703 3.52574L39.7208 27.5019C40.3239 28.7759 39.8314 30.2993 38.5966 30.9791L27.2462 37.2283C26.4454 37.6691 25.4746 37.6691 24.6738 37.2283Z" stroke="#323232" stroke-width="3.67" stroke-linecap="round"/>
</svg>
