<svg width="52" height="57" viewBox="0 0 52 57" fill="none" xmlns="http://www.w3.org/2000/svg">
<path d="M9.87908 35.9365L2.0929 53.1034C1.70732 53.9535 2.59352 54.8216 3.43549 54.4185L25.5282 43.8418C25.8012 43.7111 26.1188 43.7111 26.3918 43.8418L48.4845 54.4185C49.3265 54.8216 50.2127 53.9535 49.8271 53.1034L42.0409 35.9365" stroke="#ED4241" stroke-width="3.67" stroke-linecap="round"/>
<path d="M13.3235 30.9791L24.6739 37.2283C25.4747 37.6691 26.4455 37.6691 27.2463 37.2283L38.5967 30.9791C39.8315 30.2993 40.324 28.7759 39.7209 27.5019L28.3705 3.52574C27.4074 1.49142 24.5128 1.49142 23.5497 3.52574L12.1993 27.5019C11.5962 28.7759 12.0887 30.2993 13.3235 30.9791Z" stroke="#3283FE" stroke-width="3.67" stroke-linecap="round"/>
</svg>
