<svg width="239" height="69" viewBox="0 0 239 69" fill="none" xmlns="http://www.w3.org/2000/svg">
<path d="M55.2266 45.8203C61.3438 45.8203 64.8594 41.0625 64.8594 34.6406C64.8594 28.2188 61.2969 23.4609 55.1797 23.5078C52.1328 23.5312 49.5547 24.5156 48.1953 26.5547V24.0703H43.7422V53.2031H48.2891V42.9141C49.625 44.9297 52.1562 45.8203 55.2266 45.8203ZM54.4062 27.3047C58.0156 27.3047 60.1953 29.9766 60.1953 34.6406C60.1953 39.2812 58.0156 41.9766 54.4062 41.9766C50.7266 41.9766 48.1953 39.4453 48.1953 35.25V34.0781C48.1953 29.8828 50.7266 27.3047 54.4062 27.3047ZM86.2531 45.0234H90.7062V31.5469C90.7062 26.2266 86.7219 23.4375 81.7297 23.4375C76.7141 23.4375 73.1047 26.6484 73.4094 31.1953H77.5109C77.3 28.4297 79.4094 27.1172 82.0578 27.1172C84.6359 27.1172 86.3234 29.1094 86.3234 31.7578V32.25L81.1672 32.8359C75.7531 33.4688 72.7531 35.7422 72.7531 39.5391C72.7531 43.2891 75.5891 45.5625 79.2687 45.5625C82.3859 45.5625 84.8703 44.6016 86.2531 42.7031V45.0234ZM86.3234 35.4844V35.6016C86.3234 39.4688 83.7922 42.0703 80.3703 42.0703C78.3547 42.0703 77.2531 41.0156 77.2531 39.2344C77.2531 37.4531 78.4719 36.3516 82.175 35.9531L86.3234 35.4844ZM111.842 45.8203C117.959 45.8203 121.475 41.0625 121.475 34.6406C121.475 28.2188 117.912 23.4609 111.795 23.5078C108.748 23.5312 106.17 24.5156 104.811 26.5547V24.0703H100.358V53.2031H104.905V42.9141C106.241 44.9297 108.772 45.8203 111.842 45.8203ZM111.022 27.3047C114.631 27.3047 116.811 29.9766 116.811 34.6406C116.811 39.2812 114.631 41.9766 111.022 41.9766C107.342 41.9766 104.811 39.4453 104.811 35.25V34.0781C104.811 29.8828 107.342 27.3047 111.022 27.3047ZM133.611 35.7891H149.759V33.9375C149.759 27.9375 146.08 23.4375 139.775 23.4375C133.517 23.4375 129.064 28.2656 129.064 34.7812C129.064 41.2969 133.705 45.5859 139.447 45.5859C142.283 45.5859 144.556 44.9062 146.267 43.5703C147.955 42.2109 149.103 40.6641 149.759 37.8281H145.869C145.025 41.0156 143.15 41.8594 139.892 41.8594C136.564 41.8594 133.939 39.3516 133.611 35.7891ZM143.619 28.7109C144.533 29.8125 145.189 31.1016 145.33 32.625H133.752C134.314 29.3906 136.494 27.0469 139.728 27.0469C141.416 27.0469 142.705 27.6094 143.619 28.7109ZM163.02 27.5859V24.0469H158.755V44.9766H163.114V35.625C163.114 33.0703 163.63 31.1484 164.825 29.8594C166.02 28.5469 167.755 27.8672 170.966 27.8672V23.625C166.958 23.5312 164.755 24.8203 163.02 27.5859ZM187.438 45.5859C192.57 45.5859 196.203 43.1484 196.203 39.1406C196.203 35.1562 193.836 33.4688 189.453 32.7656L185.656 32.1328C183.688 31.8281 182.844 30.9375 182.844 29.6484C182.844 28.0781 184.25 26.9531 186.711 26.9531C189.992 26.9531 191.703 28.0078 192.195 31.125H195.945C195.5 25.8047 192.102 23.4375 186.945 23.4375C181.812 23.4375 178.602 26.0391 178.602 30.0234C178.602 33.4219 180.805 35.3672 184.93 36.0938L188.352 36.6797C191.047 37.1484 191.914 37.8516 191.914 39.4453C191.914 41.0156 190.414 42.0703 187.297 42.0703C184.25 42.0703 182.281 40.9453 181.883 37.8047H177.969C178.367 43.2422 182.305 45.5859 187.438 45.5859Z" fill="#34302C"/>
<line x1="238.5" y1="0.5" x2="0.5" y2="0.5" stroke="#AF2319" stroke-linecap="square"/>
<line x1="238.5" y1="68.5" x2="0.5" y2="68.5" stroke="#AF2319" stroke-linecap="square"/>
<line x1="238.5" y1="67.5" x2="238.5" y2="39.5" stroke="#AF2319" stroke-linecap="square"/>
<line x1="0.5" y1="67.5" x2="0.500001" y2="39.5" stroke="#AF2319" stroke-linecap="square"/>
<line x1="0.5" y1="28.5" x2="0.500001" y2="0.5" stroke="#AF2319" stroke-linecap="square"/>
<line x1="238.5" y1="28.5" x2="238.5" y2="0.5" stroke="#AF2319" stroke-linecap="square"/>
</svg>
