<svg width="239" height="72" viewBox="0 0 239 72" fill="none" xmlns="http://www.w3.org/2000/svg">
<path d="M32.1875 49.0234H36.6406V35.5469C36.6406 30.2266 32.6562 27.4375 27.6641 27.4375C22.6484 27.4375 19.0391 30.6484 19.3438 35.1953H23.4453C23.2344 32.4297 25.3438 31.1172 27.9922 31.1172C30.5703 31.1172 32.2578 33.1094 32.2578 35.7578V36.25L27.1016 36.8359C21.6875 37.4688 18.6875 39.7422 18.6875 43.5391C18.6875 47.2891 21.5234 49.5625 25.2031 49.5625C28.3203 49.5625 30.8047 48.6016 32.1875 46.7031V49.0234ZM32.2578 39.4844V39.6016C32.2578 43.4688 29.7266 46.0703 26.3047 46.0703C24.2891 46.0703 23.1875 45.0156 23.1875 43.2344C23.1875 41.4531 24.4062 40.3516 28.1094 39.9531L32.2578 39.4844ZM56.7697 49.5859C62.8869 49.5859 66.4494 44.875 66.4494 38.4531C66.4494 32.0312 62.9338 27.2266 56.8166 27.25C53.7697 27.25 51.215 28.1641 49.8791 30.1562V18.7656H45.3322V49.0234H49.7853V46.5391C51.1447 48.6016 53.7228 49.5859 56.7697 49.5859ZM55.9963 31.0938C59.6056 31.0938 61.7853 33.7891 61.7853 38.4531C61.7853 43.0938 59.6056 45.7891 55.9963 45.7891C52.3166 45.7891 49.7853 43.2109 49.7853 38.9922V37.8203C49.7853 33.625 52.3166 31.0938 55.9963 31.0938ZM83.7425 49.5625C89.9534 49.5625 94.5003 44.9688 94.5003 38.5469C94.5003 35.3594 93.4925 32.6875 91.4534 30.5781C89.4144 28.4922 86.8597 27.4375 83.7659 27.4375C77.5784 27.4375 73.0784 32.0312 73.0784 38.5C73.0784 44.9688 77.5316 49.5625 83.7425 49.5625ZM83.7659 31.1641C87.5863 31.1641 89.8597 34 89.8597 38.5C89.8597 43.0469 87.5159 45.9531 83.7425 45.9297C79.9691 45.9062 77.7191 43.0703 77.7191 38.5469C77.7191 36.25 78.2581 34.4688 79.3128 33.1562C80.3441 31.8203 81.8441 31.1641 83.7659 31.1641ZM116.036 49.0234H120.559V28.0234H116.036V40.0234C116.036 43.6094 113.903 45.8828 111.067 45.8828C108.207 45.8828 106.731 43.9844 106.731 40.6328V28.0234H102.207V41.0078C102.207 46.6562 104.739 49.6094 109.778 49.5859C112.356 49.5859 114.723 48.5547 116.036 46.6797V49.0234ZM130.423 43.8906C130.423 51.5781 138.016 50.0547 141.063 47.6875V44.1016C138.016 45.8828 134.852 46.7031 134.852 43.4453V31.375H140.454V27.8828H134.852V22.2109H130.563V27.8828H127.423V31.375H130.423V43.8906ZM188.235 49H192.829V36.0625C192.829 30.9531 190.556 27.4141 185.235 27.4375C182.235 27.4375 179.048 28.9375 177.618 31.2812C176.563 28.7266 174.946 27.4375 171.618 27.4375C168.97 27.4375 166.743 28.6328 165.454 30.5781V28H160.86V49H165.454V37C165.454 33.4375 167.61 31.2109 170.306 31.2109C173.118 31.1875 174.524 32.8047 174.524 36.3906V49H179.118V37C179.118 33.4375 181.251 31.2109 184.017 31.2109C186.829 31.1875 188.235 32.8047 188.235 36.3906V49ZM204.075 39.7891H220.224V37.9375C220.224 31.9375 216.544 27.4375 210.239 27.4375C203.982 27.4375 199.528 32.2656 199.528 38.7812C199.528 45.2969 204.169 49.5859 209.911 49.5859C212.747 49.5859 215.021 48.9062 216.732 47.5703C218.419 46.2109 219.568 44.6641 220.224 41.8281H216.333C215.489 45.0156 213.614 45.8594 210.357 45.8594C207.028 45.8594 204.403 43.3516 204.075 39.7891ZM214.083 32.7109C214.997 33.8125 215.653 35.1016 215.794 36.625H204.216C204.778 33.3906 206.958 31.0469 210.193 31.0469C211.88 31.0469 213.169 31.6094 214.083 32.7109Z" fill="#34302C"/>
<line x1="238.5" y1="0.5" x2="0.5" y2="0.5" stroke="#AF2319" stroke-linecap="square"/>
<line x1="238.5" y1="68.5" x2="0.5" y2="68.5" stroke="#AF2319" stroke-linecap="square"/>
<line x1="238.5" y1="67.5" x2="238.5" y2="39.5" stroke="#AF2319" stroke-linecap="square"/>
<line x1="0.5" y1="67.5" x2="0.500001" y2="39.5" stroke="#AF2319" stroke-linecap="square"/>
<line x1="0.5" y1="28.5" x2="0.500001" y2="0.5" stroke="#AF2319" stroke-linecap="square"/>
<line x1="238.5" y1="28.5" x2="238.5" y2="0.5" stroke="#AF2319" stroke-linecap="square"/>
</svg>
