<svg width="936" height="507" viewBox="0 0 936 507" fill="none" xmlns="http://www.w3.org/2000/svg">
<path d="M934 227L381 227" stroke="#AF2319" stroke-opacity="0.25" stroke-linecap="round"/>
<path d="M380.872 226.925C373.541 225.14 366.65 221.879 360.622 217.341C354.593 212.803 349.554 207.084 345.81 200.532C342.067 193.98 339.699 186.734 338.851 179.236C338.004 171.739 338.694 164.147 340.879 156.924C343.065 149.702 346.7 143.002 351.563 137.232C356.426 131.462 362.414 126.745 369.162 123.368C375.91 119.991 383.275 118.026 390.808 117.592C398.341 117.158 405.884 118.265 412.975 120.844" stroke="#AF2319" stroke-opacity="0.25" stroke-linecap="round"/>
<path d="M421.78 149.163C414.819 137.893 412.119 124.504 414.168 111.416C416.217 98.3289 422.879 86.4057 432.951 77.8014C443.023 69.1971 455.841 64.4792 469.088 64.5001C482.335 64.521 495.137 69.2794 505.182 77.9155" stroke="#AF2319" stroke-opacity="0.25" stroke-linecap="round"/>
<path d="M551.286 130.511C540.902 127.287 531.466 121.567 523.806 113.85C516.145 106.133 510.494 96.656 507.347 86.248C504.199 75.8401 503.652 64.8192 505.753 54.1508C507.854 43.4823 512.539 33.4918 519.398 25.0543C526.256 16.6169 535.079 9.98987 545.093 5.75388C555.108 1.51788 566.008 -0.197897 576.839 0.756851C587.67 1.7116 598.102 5.30774 607.221 11.2303C616.34 17.1528 623.868 25.221 629.144 34.7281" stroke="#AF2319" stroke-opacity="0.25" stroke-linecap="round"/>
<path d="M548.317 112.635C539.912 108.761 532.668 102.754 527.305 95.212" stroke="#AF2319" stroke-opacity="0.25" stroke-linecap="round"/>
<path d="M629.253 34.6866C639.747 30.28 651.196 28.6404 662.504 29.9248C673.813 31.2092 684.603 35.3745 693.841 42.0222C703.08 48.6699 710.457 57.5774 715.268 67.8922C720.078 78.207 722.161 89.5838 721.317 100.934" stroke="#AF2319" stroke-opacity="0.25" stroke-linecap="round"/>
<path d="M675.819 42.6371C684.429 46.1093 692.061 51.6321 698.05 58.7251C704.04 65.8182 708.206 74.2669 710.187 83.3367" stroke="#AF2319" stroke-opacity="0.25" stroke-linecap="round"/>
<path d="M707.848 151.424C710.698 158.999 711.903 167.094 711.382 175.171C710.86 183.247 708.625 191.121 704.825 198.266C701.024 205.412 695.746 211.666 689.34 216.613C682.934 221.56 675.549 225.086 667.674 226.957" stroke="#AF2319" stroke-opacity="0.25" stroke-linecap="round"/>
<path d="M574.803 199.097C573.513 205.607 570.472 211.642 566.007 216.553C561.543 221.464 555.824 225.065 549.466 226.967" stroke="#AF2319" stroke-opacity="0.25" stroke-linecap="round"/>
<path d="M721.511 96.6678C731.46 92.3692 742.349 90.7096 753.126 91.8494C763.903 92.9892 774.204 96.8899 783.033 103.174C791.862 109.459 798.921 117.915 803.527 127.725C808.133 137.535 810.13 148.367 809.326 159.174" stroke="#AF2319" stroke-opacity="0.25" stroke-linecap="round"/>
<path d="M808.147 167.489C807.553 170.304 806.768 173.076 805.796 175.784" stroke="#AF2319" stroke-opacity="0.25" stroke-linecap="round"/>
<path d="M806.858 136.111C815.118 130.734 824.858 128.09 834.702 128.552C844.546 129.013 853.996 132.558 861.716 138.684C869.436 144.81 875.034 153.208 877.721 162.69C880.407 172.172 880.044 182.258 876.685 191.523" stroke="#AF2319" stroke-opacity="0.25" stroke-linecap="round"/>
<path d="M879.478 169.374C887.234 167.857 895.248 168.32 902.778 170.721C910.308 173.122 917.111 177.383 922.557 183.11C928.004 188.837 931.918 195.845 933.938 203.486C935.959 211.126 936.02 219.153 934.115 226.824" stroke="#AF2319" stroke-opacity="0.25" stroke-linecap="round"/>
<path d="M389 490L25 490" stroke="#AF2319" stroke-opacity="0.25" stroke-linecap="round"/>
<path d="M24.5696 489.572C20.405 488.558 16.4908 486.706 13.0663 484.128C9.64183 481.55 6.77896 478.301 4.65266 474.579C2.52636 470.858 1.1813 466.741 0.699664 462.482C0.218031 458.223 0.609949 453.911 1.85147 449.808C3.09298 445.706 5.15802 441.899 7.92038 438.622C10.6827 435.344 14.0844 432.665 17.9175 430.746C21.7505 428.828 25.9345 427.712 30.2137 427.465C34.4929 427.219 38.7774 427.847 42.8053 429.313" stroke="#AF2319" stroke-opacity="0.25" stroke-linecap="round"/>
<path d="M48.0964 445.195C44.1423 438.793 42.6086 431.187 43.7724 423.753C44.9362 416.318 48.7207 409.546 54.4422 404.658C60.1637 399.77 67.4447 397.09 74.9696 397.102C82.4945 397.114 89.767 399.817 95.473 404.723" stroke="#AF2319" stroke-opacity="0.25" stroke-linecap="round"/>
<path d="M122.043 434.436C116.138 432.602 110.772 429.349 106.415 424.961C102.059 420.572 98.8451 415.183 97.0553 409.264C95.2655 403.345 94.9544 397.078 96.1492 391.011C97.344 384.944 100.008 379.262 103.909 374.464C107.809 369.665 112.826 365.897 118.521 363.488C124.216 361.079 130.415 360.103 136.575 360.646C142.735 361.189 148.667 363.234 153.853 366.602C159.039 369.97 163.319 374.559 166.32 379.965" stroke="#AF2319" stroke-opacity="0.25" stroke-linecap="round"/>
<path d="M142.776 368.434C147.745 370.147 152.178 373.131 155.636 377.089" stroke="#AF2319" stroke-opacity="0.25" stroke-linecap="round"/>
<path d="M140.697 361.1C144.55 352.334 151.585 345.356 160.381 341.575C169.178 337.793 179.081 337.489 188.093 340.723C197.105 343.958 204.555 350.49 208.939 359.003C213.323 367.515 214.314 377.374 211.714 386.589" stroke="#AF2319" stroke-opacity="0.25" stroke-linecap="round"/>
<path d="M186.997 345.85C191.889 347.823 196.225 350.961 199.628 354.991C203.031 359.021 205.398 363.821 206.523 368.974" stroke="#AF2319" stroke-opacity="0.25" stroke-linecap="round"/>
<path d="M211.318 446.676C212.937 450.98 213.622 455.579 213.326 460.168C213.029 464.756 211.759 469.229 209.6 473.289C207.441 477.349 204.442 480.902 200.802 483.713C197.163 486.524 192.967 488.527 188.493 489.59" stroke="#AF2319" stroke-opacity="0.25" stroke-linecap="round"/>
<path d="M205.291 436.655C206.734 438.291 208.009 440.068 209.094 441.96" stroke="#AF2319" stroke-opacity="0.25" stroke-linecap="round"/>
<path d="M135.219 473.823C134.489 477.508 132.767 480.924 130.24 483.704C127.713 486.484 124.476 488.522 120.877 489.599" stroke="#AF2319" stroke-opacity="0.25" stroke-linecap="round"/>
<path d="M213.146 376.422C220.034 373.455 227.68 372.725 235.005 374.335C242.33 375.945 248.965 379.814 253.973 385.396C258.982 390.978 262.113 397.992 262.923 405.448C263.733 412.904 262.182 420.426 258.489 426.953" stroke="#AF2319" stroke-opacity="0.25" stroke-linecap="round"/>
<path d="M263.105 407.16C267.038 404.469 271.62 402.88 276.375 402.56C281.129 402.24 285.883 403.2 290.141 405.34C294.399 407.48 298.005 410.722 300.585 414.729C303.165 418.736 304.624 423.361 304.811 428.122" stroke="#AF2319" stroke-opacity="0.25" stroke-linecap="round"/>
<path d="M303.321 419.79C307.153 419.182 311.076 419.533 314.74 420.811C318.404 422.089 321.694 424.254 324.317 427.114C326.94 429.973 328.814 433.437 329.772 437.197C330.73 440.957 330.743 444.896 329.808 448.662" stroke="#AF2319" stroke-opacity="0.25" stroke-linecap="round"/>
<path d="M330.321 446.79C334.153 446.182 338.076 446.533 341.74 447.811C345.404 449.089 348.694 451.254 351.317 454.114C353.94 456.973 355.814 460.437 356.772 464.197C357.73 467.957 357.743 471.896 356.808 475.662" stroke="#AF2319" stroke-opacity="0.25" stroke-linecap="round"/>
<path d="M357.615 468.952C360.987 466.7 364.951 465.499 369.005 465.5C373.06 465.501 377.023 466.704 380.394 468.958C383.764 471.211 386.391 474.414 387.942 478.16C389.492 481.906 389.897 486.028 389.105 490.005" stroke="#AF2319" stroke-opacity="0.25" stroke-linecap="round"/>
<path d="M707.277 405.993L507.532 405.993" stroke="#AF2319" stroke-opacity="0.25" stroke-linecap="round"/>
<path d="M507.561 405.656C504.955 405.022 502.506 403.862 500.363 402.249C498.22 400.636 496.429 398.603 495.098 396.275C493.768 393.946 492.926 391.37 492.625 388.705C492.324 386.04 492.569 383.341 493.346 380.774C494.123 378.207 495.415 375.825 497.143 373.775C498.872 371.724 501 370.047 503.399 368.847C505.797 367.646 508.415 366.948 511.093 366.794C513.771 366.639 516.452 367.033 518.972 367.95" stroke="#AF2319" stroke-opacity="0.25" stroke-linecap="round"/>
<path d="M522.533 377.711C520.059 373.704 519.099 368.945 519.828 364.293C520.556 359.641 522.924 355.403 526.504 352.345C530.084 349.287 534.64 347.61 539.349 347.617C544.058 347.625 548.608 349.316 552.179 352.386" stroke="#AF2319" stroke-opacity="0.25" stroke-linecap="round"/>
<path d="M569.135 370.836C565.434 369.687 562.071 367.648 559.34 364.898C556.61 362.148 554.596 358.77 553.474 355.061C552.353 351.351 552.158 347.423 552.907 343.621C553.655 339.819 555.325 336.258 557.769 333.251C560.214 330.244 563.358 327.882 566.927 326.372C570.497 324.863 574.381 324.251 578.242 324.592C582.102 324.932 585.82 326.213 589.07 328.324C592.32 330.435 595.003 333.311 596.883 336.699" stroke="#AF2319" stroke-opacity="0.25" stroke-linecap="round"/>
<path d="M568.101 364.394C565.116 363.018 562.543 360.885 560.638 358.206" stroke="#AF2319" stroke-opacity="0.25" stroke-linecap="round"/>
<path d="M597.325 336.823C601.065 335.253 605.146 334.669 609.176 335.126C613.207 335.584 617.052 337.069 620.345 339.438C623.637 341.807 626.266 344.982 627.981 348.658C629.695 352.334 630.438 356.389 630.137 360.434" stroke="#AF2319" stroke-opacity="0.25" stroke-linecap="round"/>
<path d="M613.902 339.697C616.964 340.932 619.678 342.896 621.807 345.418C623.937 347.94 625.419 350.944 626.123 354.17" stroke="#AF2319" stroke-opacity="0.25" stroke-linecap="round"/>
<path d="M625.291 378.808C626.305 381.501 626.733 384.38 626.548 387.252C626.363 390.124 625.568 392.924 624.216 395.465C622.865 398.006 620.988 400.23 618.71 401.989C616.432 403.748 613.806 405.002 611.006 405.667" stroke="#AF2319" stroke-opacity="0.25" stroke-linecap="round"/>
<path d="M577.221 395.853C576.766 398.147 575.694 400.274 574.121 402.005C572.547 403.736 570.531 405.005 568.29 405.676" stroke="#AF2319" stroke-opacity="0.25" stroke-linecap="round"/>
<path d="M630.652 359.21C634.195 357.679 638.073 357.088 641.911 357.494C645.75 357.9 649.418 359.289 652.562 361.527C655.707 363.765 658.221 366.777 659.861 370.27C661.501 373.764 662.213 377.622 661.926 381.471" stroke="#AF2319" stroke-opacity="0.25" stroke-linecap="round"/>
<path d="M661.506 384.432C661.295 385.434 661.015 386.422 660.669 387.386" stroke="#AF2319" stroke-opacity="0.25" stroke-linecap="round"/>
<path d="M661.528 373.431C664.455 371.526 667.907 370.589 671.396 370.752C674.885 370.916 678.234 372.172 680.97 374.343C683.706 376.515 685.69 379.491 686.642 382.851C687.594 386.212 687.465 389.786 686.275 393.07" stroke="#AF2319" stroke-opacity="0.25" stroke-linecap="round"/>
<path d="M687.645 385.492C690.394 384.954 693.234 385.119 695.903 385.969C698.572 386.82 700.983 388.331 702.913 390.36C704.843 392.39 706.231 394.874 706.947 397.581C707.663 400.289 707.684 403.134 707.009 405.853" stroke="#AF2319" stroke-opacity="0.25" stroke-linecap="round"/>
</svg>
