<svg width="507" height="69" viewBox="0 0 507 69" fill="none" xmlns="http://www.w3.org/2000/svg">
<line x1="506.5" y1="0.5" x2="0.5" y2="0.5" stroke="#AF2319" stroke-linecap="square"/>
<line x1="506.5" y1="68.5" x2="0.5" y2="68.5" stroke="#AF2319" stroke-linecap="square"/>
<line x1="506.5" y1="67.5" x2="506.5" y2="39.5" stroke="#AF2319" stroke-linecap="square"/>
<line x1="0.639282" y1="67.5" x2="0.639285" y2="39.5" stroke="#AF2319" stroke-linecap="square"/>
<line x1="0.639282" y1="28.5" x2="0.639285" y2="0.5" stroke="#AF2319" stroke-linecap="square"/>
<line x1="506.5" y1="28.5" x2="506.5" y2="0.5" stroke="#AF2319" stroke-linecap="square"/>
<path d="M39.2695 46.4395C45.0703 46.4219 48.7793 43.0645 49.7285 37.5801H46.2656C45.5977 41.1484 43.1016 43.3105 39.2344 43.3105C34.9277 43.3105 31.7988 39.9707 31.7988 34.6621C31.7988 29.3535 34.9277 25.9961 39.2344 25.9961C43.1191 25.9961 45.5801 28 46.248 31.5332H49.7109C48.7441 26.1191 45.0176 22.9023 39.2695 22.9023C32.9238 22.9023 28.1602 27.7715 28.1602 34.6621C28.1602 38.1074 29.2148 40.9375 31.3418 43.1523C33.4688 45.3496 36.1055 46.4395 39.2695 46.4395ZM65.1867 46.4219C71.7961 46.4219 76.4719 41.6055 76.4719 34.6621C76.4719 31.1992 75.4172 28.3691 73.3254 26.1719C71.2336 23.9922 68.509 22.9023 65.2043 22.9023C58.5773 22.9023 53.9367 27.7188 53.9367 34.6621C53.9367 41.6055 58.5773 46.4219 65.1867 46.4219ZM65.1867 26.0137C69.7746 26.0137 72.7629 29.3184 72.7805 34.6621C72.7805 40.0059 69.8273 43.3105 65.2043 43.3105C60.5812 43.3105 57.5754 39.9707 57.5754 34.6621C57.5754 29.3535 60.5988 26.0137 65.1867 26.0137ZM91.807 46.4219C98.4164 46.4219 103.092 41.6055 103.092 34.6621C103.092 31.1992 102.037 28.3691 99.9457 26.1719C97.8539 23.9922 95.1293 22.9023 91.8246 22.9023C85.1977 22.9023 80.557 27.7188 80.557 34.6621C80.557 41.6055 85.1977 46.4219 91.807 46.4219ZM91.807 26.0137C96.3949 26.0137 99.3832 29.3184 99.4008 34.6621C99.4008 40.0059 96.4477 43.3105 91.8246 43.3105C87.2016 43.3105 84.1957 39.9707 84.1957 34.6621C84.1957 29.3535 87.2191 26.0137 91.807 26.0137ZM123.068 46H127.41L116.67 33.3262L126.425 23.3242H122.101L111.765 33.8887V23.3242H108.214V46H111.765V37.9316L114.068 35.6113L123.068 46ZM140.671 46C145.856 46 148.862 43.7148 148.862 39.6543C148.862 36.8945 147.491 34.9609 145.136 34.2227C147.069 33.502 148.229 31.7617 148.229 29.4941C148.229 25.5918 145.61 23.3242 140.266 23.3242H131.038V46H140.671ZM140.372 26.3301C143.36 26.3301 144.679 27.6133 144.679 29.6348C144.679 31.7793 143.325 32.8867 140.372 32.8867H134.483V26.3301H140.372ZM140.6 35.7695C143.782 35.7695 145.346 37.1934 145.346 39.4258C145.346 41.6406 143.782 42.9941 140.6 42.9941H134.483V35.7695H140.6ZM164.32 46.4219C170.93 46.4219 175.605 41.6055 175.605 34.6621C175.605 31.1992 174.551 28.3691 172.459 26.1719C170.367 23.9922 167.643 22.9023 164.338 22.9023C157.711 22.9023 153.07 27.7188 153.07 34.6621C153.07 41.6055 157.711 46.4219 164.32 46.4219ZM164.32 26.0137C168.908 26.0137 171.896 29.3184 171.914 34.6621C171.914 40.0059 168.961 43.3105 164.338 43.3105C159.715 43.3105 156.709 39.9707 156.709 34.6621C156.709 29.3535 159.732 26.0137 164.32 26.0137ZM190.941 46.4219C197.55 46.4219 202.226 41.6055 202.226 34.6621C202.226 31.1992 201.171 28.3691 199.079 26.1719C196.988 23.9922 194.263 22.9023 190.958 22.9023C184.331 22.9023 179.691 27.7188 179.691 34.6621C179.691 41.6055 184.331 46.4219 190.941 46.4219ZM190.941 26.0137C195.529 26.0137 198.517 29.3184 198.534 34.6621C198.534 40.0059 195.581 43.3105 190.958 43.3105C186.335 43.3105 183.329 39.9707 183.329 34.6621C183.329 29.3535 186.353 26.0137 190.941 26.0137ZM222.202 46H226.543L215.803 33.3262L225.559 23.3242H221.235L210.899 33.8887V23.3242H207.348V46H210.899V37.9316L213.202 35.6113L222.202 46ZM255.122 46H258.901L249.479 23.3242H245.805L236.559 46H240.11L242.694 39.4961H252.45L255.122 46ZM247.616 27.6309L251.255 36.543H243.872L247.616 27.6309ZM271.441 37.7383C276.996 37.7383 280.266 35.0137 280.266 30.4961C280.266 25.9434 276.943 23.3242 271.441 23.3242H263.197V46H266.713V37.7383H271.441ZM271.389 26.3301C275.15 26.3301 277.207 27.6309 277.207 30.373C277.207 33.1328 275.115 34.7148 271.389 34.7148H266.713V26.3301H271.389ZM293.245 37.7383C298.8 37.7383 302.07 35.0137 302.07 30.4961C302.07 25.9434 298.747 23.3242 293.245 23.3242H285.001V46H288.517V37.7383H293.245ZM293.193 26.3301C296.954 26.3301 299.011 27.6309 299.011 30.373C299.011 33.1328 296.919 34.7148 293.193 34.7148H288.517V26.3301H293.193ZM325.146 46.4395C330.947 46.4219 334.656 43.0645 335.605 37.5801H332.142C331.474 41.1484 328.978 43.3105 325.111 43.3105C320.804 43.3105 317.675 39.9707 317.675 34.6621C317.675 29.3535 320.804 25.9961 325.111 25.9961C328.996 25.9961 331.457 28 332.125 31.5332H335.587C334.621 26.1191 330.894 22.9023 325.146 22.9023C318.8 22.9023 314.037 27.7715 314.037 34.6621C314.037 38.1074 315.091 40.9375 317.218 43.1523C319.345 45.3496 321.982 46.4395 325.146 46.4395ZM351.063 46.4219C357.673 46.4219 362.348 41.6055 362.348 34.6621C362.348 31.1992 361.294 28.3691 359.202 26.1719C357.11 23.9922 354.386 22.9023 351.081 22.9023C344.454 22.9023 339.813 27.7188 339.813 34.6621C339.813 41.6055 344.454 46.4219 351.063 46.4219ZM351.063 26.0137C355.651 26.0137 358.639 29.3184 358.657 34.6621C358.657 40.0059 355.704 43.3105 351.081 43.3105C346.458 43.3105 343.452 39.9707 343.452 34.6621C343.452 29.3535 346.475 26.0137 351.063 26.0137ZM383.238 46H386.051V23.3242H382.693V39.7598L370.6 23.3242H367.471V46H370.828V29.2129L383.238 46ZM402.3 46.4395C408.101 46.4219 411.81 43.0645 412.759 37.5801H409.296C408.628 41.1484 406.132 43.3105 402.265 43.3105C397.958 43.3105 394.829 39.9707 394.829 34.6621C394.829 29.3535 397.958 25.9961 402.265 25.9961C406.15 25.9961 408.611 28 409.279 31.5332H412.741C411.775 26.1191 408.048 22.9023 402.3 22.9023C395.954 22.9023 391.191 27.7715 391.191 34.6621C391.191 38.1074 392.245 40.9375 394.372 43.1523C396.499 45.3496 399.136 46.4395 402.3 46.4395ZM416.914 46H433.069V42.959H420.36V35.8223H431.68V32.8164H420.36V26.3652H432.77V23.3242H416.914V46ZM446.681 37.7383C452.236 37.7383 455.505 35.0137 455.505 30.4961C455.505 25.9434 452.183 23.3242 446.681 23.3242H438.437V46H441.953V37.7383H446.681ZM446.629 26.3301C450.39 26.3301 452.447 27.6309 452.447 30.373C452.447 33.1328 450.355 34.7148 446.629 34.7148H441.953V26.3301H446.629ZM470.348 26.3652H478.522V23.3242H458.8V26.3652H466.833V46H470.348V26.3652Z" fill="white"/>
</svg>
