<svg width="634" height="69" viewBox="0 0 634 69" fill="none" xmlns="http://www.w3.org/2000/svg">
<line x1="633.5" y1="0.5" x2="0.5" y2="0.5" stroke="#AF2319" stroke-linecap="square"/>
<line x1="633.5" y1="68.5" x2="0.5" y2="68.5" stroke="#AF2319" stroke-linecap="square"/>
<line x1="633.5" y1="67.5" x2="633.5" y2="39.5" stroke="#AF2319" stroke-linecap="square"/>
<line x1="0.5" y1="67.5" x2="0.500003" y2="39.5" stroke="#AF2319" stroke-linecap="square"/>
<line x1="0.5" y1="28.5" x2="0.500003" y2="0.5" stroke="#AF2319" stroke-linecap="square"/>
<line x1="633.5" y1="28.5" x2="633.5" y2="0.5" stroke="#AF2319" stroke-linecap="square"/>
<path d="M40.3223 45.4219C46.1055 45.4219 50.0781 41.6426 50.7988 35.9297V32.8887H40.0938L40.0762 36.1758L47.4238 36.1934C46.9668 39.9199 44.2422 42.3105 40.3398 42.3105C35.752 42.3105 32.7637 38.9707 32.7637 33.6621C32.7637 28.3535 35.7695 25.0137 40.3223 25.0137C43.7852 25.0137 46.3164 26.8418 47.4062 30.2695H50.7637C50.1836 28.1602 49.6562 26.543 48.373 25.1719C46.2988 22.9922 43.6094 21.9023 40.3398 21.9023C33.7656 21.9023 29.1602 26.7188 29.1602 33.6621C29.1602 40.6055 33.7656 45.4219 40.3223 45.4219ZM55.798 45H71.9523V41.959H59.2434V34.8223H70.5637V31.8164H59.2434V25.3652H71.6535V22.3242H55.798V45ZM85.2836 45.4219C90.5219 45.4219 94.0551 42.873 94.0551 38.918C94.0551 35.0332 91.9809 33.1875 87.7973 32.3789L83.807 31.6055C81.0297 31.0605 80.0277 30.4102 80.0277 28.3184C80.0277 26.2617 81.5922 24.75 84.932 24.75C88.2543 24.75 90.3461 26.2617 90.434 30.0059H93.7211C93.6684 24.5391 90.2055 21.9023 84.9672 21.9023C79.7289 21.9023 76.5824 24.5742 76.5824 28.6523C76.5824 32.0098 78.5336 34.0312 82.2953 34.752L86.6547 35.5957C89.5551 36.1582 90.6449 37.0723 90.6449 39.0762C90.6449 41.0625 88.8695 42.5215 85.3363 42.5215C83.6137 42.5215 82.1723 41.9941 81.0121 40.9922C79.8344 39.9727 79.2367 39.3574 79.1488 37.2305H75.9145C75.932 42.9082 80.0102 45.4219 85.2836 45.4219ZM109.408 25.3652H117.582V22.3242H97.859V25.3652H105.892V45H109.408V25.3652ZM131.229 45.4395C136.731 45.4395 140.44 42.5215 140.44 36.2637V22.3242H136.96V36.3516C136.96 40.3418 134.956 42.3457 131.229 42.3457C127.432 42.3457 125.569 40.377 125.569 36.2988V22.3242H122.054V36.2637C122.054 42.5918 125.727 45.457 131.229 45.4395ZM160.943 45H164.723C164.002 44.2266 163.791 43.7695 163.686 43.1367C163.562 42.4688 163.404 41.2383 163.264 39.4102C163.07 37.0371 162.227 35.4375 160.275 34.6816C162.648 34.0137 164.09 32.0625 164.09 29.127C164.09 24.8203 161.084 22.3242 155.529 22.3242H146.318V45H149.799V36.0703H155.775C158.342 36.0703 159.66 37.3184 159.818 39.9375C159.889 41.2383 159.959 42.3984 160.082 43.2598C160.223 44.2441 160.521 44.8594 160.943 45ZM155.354 25.3301C158.904 25.3301 160.504 26.8066 160.504 29.2324C160.504 31.7988 158.887 33.1172 155.354 33.1172H149.799V25.3301H155.354ZM169.704 45H185.859V41.959H173.15V34.8223H184.47V31.8164H173.15V25.3652H185.56V22.3242H169.704V45ZM214.121 45H217.9C217.179 44.2266 216.968 43.7695 216.863 43.1367C216.74 42.4688 216.582 41.2383 216.441 39.4102C216.248 37.0371 215.404 35.4375 213.453 34.6816C215.826 34.0137 217.267 32.0625 217.267 29.127C217.267 24.8203 214.261 22.3242 208.707 22.3242H199.496V45H202.976V36.0703H208.953C211.519 36.0703 212.837 37.3184 212.996 39.9375C213.066 41.2383 213.136 42.3984 213.259 43.2598C213.4 44.2441 213.699 44.8594 214.121 45ZM208.531 25.3301C212.082 25.3301 213.681 26.8066 213.681 29.2324C213.681 31.7988 212.064 33.1172 208.531 33.1172H202.976V25.3301H208.531ZM222.882 45H239.036V41.959H226.327V34.8223H237.647V31.8164H226.327V25.3652H238.737V22.3242H222.882V45ZM253.668 45.4395C259.469 45.4219 263.178 42.0645 264.127 36.5801H260.664C259.996 40.1484 257.5 42.3105 253.633 42.3105C249.326 42.3105 246.197 38.9707 246.197 33.6621C246.197 28.3535 249.326 24.9961 253.633 24.9961C257.518 24.9961 259.979 27 260.646 30.5332H264.109C263.143 25.1191 259.416 21.9023 253.668 21.9023C247.322 21.9023 242.559 26.7715 242.559 33.6621C242.559 37.1074 243.613 39.9375 245.74 42.1523C247.867 44.3496 250.504 45.4395 253.668 45.4395ZM279.585 45.4219C286.195 45.4219 290.87 40.6055 290.87 33.6621C290.87 30.1992 289.816 27.3691 287.724 25.1719C285.632 22.9922 282.907 21.9023 279.603 21.9023C272.976 21.9023 268.335 26.7188 268.335 33.6621C268.335 40.6055 272.976 45.4219 279.585 45.4219ZM279.585 25.0137C284.173 25.0137 287.161 28.3184 287.179 33.6621C287.179 39.0059 284.226 42.3105 279.603 42.3105C274.98 42.3105 271.974 38.9707 271.974 33.6621C271.974 28.3535 274.997 25.0137 279.585 25.0137ZM306.118 45.4219C311.901 45.4219 315.873 41.6426 316.594 35.9297V32.8887H305.889L305.871 36.1758L313.219 36.1934C312.762 39.9199 310.038 42.3105 306.135 42.3105C301.547 42.3105 298.559 38.9707 298.559 33.6621C298.559 28.3535 301.565 25.0137 306.118 25.0137C309.58 25.0137 312.112 26.8418 313.202 30.2695H316.559C315.979 28.1602 315.452 26.543 314.168 25.1719C312.094 22.9922 309.405 21.9023 306.135 21.9023C299.561 21.9023 294.955 26.7188 294.955 33.6621C294.955 40.6055 299.561 45.4219 306.118 45.4219ZM338.345 45H341.158V22.3242H337.8V38.7598L325.707 22.3242H322.578V45H325.935V28.2129L338.345 45ZM345.647 45H349.128V22.3242H345.647V45ZM365.254 25.3652H373.428V22.3242H353.705V25.3652H361.738V45H365.254V25.3652ZM377.724 45H381.204V22.3242H377.724V45ZM397.436 45.4219C404.045 45.4219 408.721 40.6055 408.721 33.6621C408.721 30.1992 407.666 27.3691 405.575 25.1719C403.483 22.9922 400.758 21.9023 397.454 21.9023C390.827 21.9023 386.186 26.7188 386.186 33.6621C386.186 40.6055 390.827 45.4219 397.436 45.4219ZM397.436 25.0137C402.024 25.0137 405.012 28.3184 405.03 33.6621C405.03 39.0059 402.077 42.3105 397.454 42.3105C392.83 42.3105 389.825 38.9707 389.825 33.6621C389.825 28.3535 392.848 25.0137 397.436 25.0137ZM429.611 45H432.423V22.3242H429.066V38.7598L416.972 22.3242H413.843V45H417.201V28.2129L429.611 45ZM455.113 36.7383C460.668 36.7383 463.938 34.0137 463.938 29.4961C463.938 24.9434 460.615 22.3242 455.113 22.3242H446.869V45H450.385V36.7383H455.113ZM455.061 25.3301C458.822 25.3301 460.879 26.6309 460.879 29.373C460.879 32.1328 458.787 33.7148 455.061 33.7148H450.385V25.3301H455.061ZM483.298 45H487.077C486.357 44.2266 486.146 43.7695 486.04 43.1367C485.917 42.4688 485.759 41.2383 485.618 39.4102C485.425 37.0371 484.581 35.4375 482.63 34.6816C485.003 34.0137 486.445 32.0625 486.445 29.127C486.445 24.8203 483.439 22.3242 477.884 22.3242H468.673V45H472.154V36.0703H478.13C480.696 36.0703 482.015 37.3184 482.173 39.9375C482.243 41.2383 482.314 42.3984 482.437 43.2598C482.577 44.2441 482.876 44.8594 483.298 45ZM477.708 25.3301C481.259 25.3301 482.859 26.8066 482.859 29.2324C482.859 31.7988 481.241 33.1172 477.708 33.1172H472.154V25.3301H477.708ZM502.237 45.4219C508.846 45.4219 513.522 40.6055 513.522 33.6621C513.522 30.1992 512.467 27.3691 510.375 25.1719C508.284 22.9922 505.559 21.9023 502.254 21.9023C495.627 21.9023 490.987 26.7188 490.987 33.6621C490.987 40.6055 495.627 45.4219 502.237 45.4219ZM502.237 25.0137C506.825 25.0137 509.813 28.3184 509.83 33.6621C509.83 39.0059 506.877 42.3105 502.254 42.3105C497.631 42.3105 494.625 38.9707 494.625 33.6621C494.625 28.3535 497.649 25.0137 502.237 25.0137ZM525.043 45.4395C529.929 45.4395 532.935 42.5391 532.935 37.1953V22.3242H529.437V37.125C529.437 40.7109 527.978 42.416 525.095 42.416C522.142 42.416 520.472 40.7285 520.244 36.9316H516.886C517.045 42.5391 520.156 45.4395 525.043 45.4395ZM538.796 45H554.95V41.959H542.241V34.8223H553.561V31.8164H542.241V25.3652H554.651V22.3242H538.796V45ZM569.582 45.4395C575.383 45.4219 579.092 42.0645 580.041 36.5801H576.578C575.91 40.1484 573.414 42.3105 569.547 42.3105C565.24 42.3105 562.111 38.9707 562.111 33.6621C562.111 28.3535 565.24 24.9961 569.547 24.9961C573.432 24.9961 575.893 27 576.561 30.5332H580.023C579.057 25.1191 575.33 21.9023 569.582 21.9023C563.236 21.9023 558.473 26.7715 558.473 33.6621C558.473 37.1074 559.527 39.9375 561.654 42.1523C563.781 44.3496 566.418 45.4395 569.582 45.4395ZM595.394 25.3652H603.568V22.3242H583.845V25.3652H591.878V45H595.394V25.3652Z" fill="white"/>
</svg>
