<svg width="239" height="69" viewBox="0 0 239 69" fill="none" xmlns="http://www.w3.org/2000/svg">
<path d="M39.2266 45.8203C45.3438 45.8203 48.8594 41.0625 48.8594 34.6406C48.8594 28.2188 45.2969 23.4609 39.1797 23.5078C36.1328 23.5312 33.5547 24.5156 32.1953 26.5547V24.0703H27.7422V53.2031H32.2891V42.9141C33.625 44.9297 36.1562 45.8203 39.2266 45.8203ZM38.4062 27.3047C42.0156 27.3047 44.1953 29.9766 44.1953 34.6406C44.1953 39.2812 42.0156 41.9766 38.4062 41.9766C34.7266 41.9766 32.1953 39.4453 32.1953 35.25V34.0781C32.1953 29.8828 34.7266 27.3047 38.4062 27.3047Z" fill="#34302C"/>
<path d="M62.1203 27.5859V24.0469H57.8547V44.9766H62.2141V35.625C62.2141 33.0703 62.7297 31.1484 63.925 29.8594C65.1203 28.5469 66.8547 27.8672 70.0656 27.8672V23.625C66.0578 23.5312 63.8547 24.8203 62.1203 27.5859Z" fill="#34302C"/>
<path d="M87.8031 45.5625C94.0141 45.5625 98.5609 40.9688 98.5609 34.5469C98.5609 31.3594 97.5531 28.6875 95.5141 26.5781C93.475 24.4922 90.9203 23.4375 87.8266 23.4375C81.6391 23.4375 77.1391 28.0312 77.1391 34.5C77.1391 40.9688 81.5922 45.5625 87.8031 45.5625ZM87.8266 27.1641C91.6469 27.1641 93.9203 30 93.9203 34.5C93.9203 39.0469 91.5766 41.9531 87.8031 41.9297C84.0297 41.9062 81.7797 39.0703 81.7797 34.5469C81.7797 32.25 82.3187 30.4688 83.3734 29.1562C84.4047 27.8203 85.9047 27.1641 87.8266 27.1641Z" fill="#34302C"/>
<path d="M107.017 19.875H111.517V14.7656H107.017V19.875ZM105.916 53.6484C109.595 53.6484 111.47 51.6094 111.47 47.6484V23.8594H107.111V47.9062C107.111 49.4062 106.572 49.9922 105.517 49.9922C104.58 49.9922 103.619 49.6641 102.142 48.6562V52.5469C103.642 53.625 104.205 53.6484 105.916 53.6484Z" fill="#34302C"/>
<path d="M124.895 35.7891H141.044V33.9375C141.044 27.9375 137.364 23.4375 131.059 23.4375C124.802 23.4375 120.348 28.2656 120.348 34.7812C120.348 41.2969 124.989 45.5859 130.731 45.5859C133.567 45.5859 135.841 44.9062 137.552 43.5703C139.239 42.2109 140.387 40.6641 141.044 37.8281H137.153C136.309 41.0156 134.434 41.8594 131.177 41.8594C127.848 41.8594 125.223 39.3516 124.895 35.7891ZM134.903 28.7109C135.817 29.8125 136.473 31.1016 136.614 32.625H125.036C125.598 29.3906 127.778 27.0469 131.012 27.0469C132.7 27.0469 133.989 27.6094 134.903 28.7109Z" fill="#34302C"/>
<path d="M159.203 45.5859C164.805 45.5859 168.25 42.3281 169.188 37.1953H165.133C164.5 40.3359 162.484 41.8359 159.273 41.8125C155.734 41.7891 152.828 39.0469 152.828 34.5469C152.828 30.0469 155.734 27.2578 159.25 27.2578C162.484 27.2578 164.5 28.7578 165.133 31.8516H169.188C168.273 26.7422 164.828 23.4375 159.203 23.4375C153.086 23.4375 148.633 27.8906 148.633 34.5469C148.633 41.1797 153.086 45.5859 159.203 45.5859Z" fill="#34302C"/>
<path d="M178.722 39.8906C178.722 47.5781 186.316 46.0547 189.363 43.6875V40.1016C186.316 41.8828 183.152 42.7031 183.152 39.4453V27.375H188.753V23.8828H183.152V18.2109H178.863V23.8828H175.722V27.375H178.722V39.8906Z" fill="#34302C"/>
<path d="M204.897 45.5859C210.03 45.5859 213.663 43.1484 213.663 39.1406C213.663 35.1562 211.295 33.4688 206.913 32.7656L203.116 32.1328C201.147 31.8281 200.303 30.9375 200.303 29.6484C200.303 28.0781 201.709 26.9531 204.17 26.9531C207.452 26.9531 209.163 28.0078 209.655 31.125H213.405C212.959 25.8047 209.561 23.4375 204.405 23.4375C199.272 23.4375 196.061 26.0391 196.061 30.0234C196.061 33.4219 198.264 35.3672 202.389 36.0938L205.811 36.6797C208.506 37.1484 209.373 37.8516 209.373 39.4453C209.373 41.0156 207.873 42.0703 204.756 42.0703C201.709 42.0703 199.741 40.9453 199.342 37.8047H195.428C195.827 43.2422 199.764 45.5859 204.897 45.5859Z" fill="#34302C"/>
<path d="M238.5 68.5H0.5M238.5 67.5V39.5M0.5 67.5L0.500001 39.5M0.5 28.5L0.5 0.5L238.5 0.5V28.5" stroke="#AF2319" stroke-linecap="square"/>
</svg>
