<svg width="1324" height="189" viewBox="0 0 1324 189" fill="none" xmlns="http://www.w3.org/2000/svg">
<path d="M1322.25 94L1269.08 186.098C1268.72 186.716 1268.06 187.098 1267.35 187.098H1161M1312.25 78L1259.08 169.928C1258.72 170.546 1258.06 170.927 1257.35 170.927H1151M1151 171L1161 187M1312.5 78L1322 93.5M19.5742 149.602L69.3789 1.16406H51.4102L1.41016 149.602H19.5742ZM97.0508 149.602L146.855 1.16406H128.887L78.8867 149.602H97.0508ZM268.898 87.1016C299.758 87.1016 317.922 71.9648 317.922 46.8672C317.922 21.5742 299.465 7.02344 268.898 7.02344H223.098V133H242.629V87.1016H268.898ZM268.605 23.7227C289.504 23.7227 300.93 30.9492 300.93 46.1836C300.93 61.5156 289.309 70.3047 268.605 70.3047H242.629V23.7227H268.605ZM429.48 133H450.477C446.473 128.703 445.301 126.164 444.715 122.648C444.031 118.938 443.152 112.102 442.371 101.945C441.297 88.7617 436.609 79.875 425.77 75.6758C438.953 71.9648 446.961 61.125 446.961 44.8164C446.961 20.8906 430.262 7.02344 399.402 7.02344H348.23V133H367.566V83.3906H400.77C415.027 83.3906 422.352 90.3242 423.23 104.875C423.621 112.102 424.012 118.547 424.695 123.332C425.477 128.801 427.137 132.219 429.48 133ZM398.426 23.7227C418.152 23.7227 427.039 31.9258 427.039 45.4023C427.039 59.6602 418.055 66.9844 398.426 66.9844H367.566V23.7227H398.426ZM538.695 135.344C575.414 135.344 601.391 108.586 601.391 70.0117C601.391 50.7734 595.531 35.0508 583.91 22.8438C572.289 10.7344 557.152 4.67969 538.793 4.67969C501.977 4.67969 476.195 31.4375 476.195 70.0117C476.195 108.586 501.977 135.344 538.695 135.344ZM538.695 21.9648C564.184 21.9648 580.785 40.3242 580.883 70.0117C580.883 99.6992 564.477 118.059 538.793 118.059C513.109 118.059 496.41 99.5039 496.41 70.0117C496.41 40.5195 513.207 21.9648 538.695 21.9648ZM669.395 135.441C696.543 135.441 713.242 119.328 713.242 89.6406V7.02344H693.809V89.25C693.809 109.172 685.703 118.645 669.688 118.645C653.281 118.645 644.004 109.27 642.734 88.1758H624.082C624.961 119.328 642.246 135.441 669.395 135.441ZM749.801 133H839.547V116.105H768.941V76.457H831.832V59.7578H768.941V23.918H837.887V7.02344H749.801V133ZM924.836 135.441C957.062 135.344 977.668 116.691 982.941 86.2227H963.703C959.992 106.047 946.125 118.059 924.641 118.059C900.715 118.059 883.332 99.5039 883.332 70.0117C883.332 40.5195 900.715 21.8672 924.641 21.8672C946.223 21.8672 959.895 33 963.605 52.6289H982.844C977.473 22.5508 956.77 4.67969 924.836 4.67969C889.582 4.67969 863.117 31.7305 863.117 70.0117C863.117 89.1523 868.977 104.875 880.793 117.18C892.609 129.387 907.258 135.441 924.836 135.441ZM1072.23 23.918H1117.64V7.02344H1008.07V23.918H1052.7V133H1072.23V23.918ZM1190.73 135.344C1219.83 135.344 1239.46 121.184 1239.46 99.2109C1239.46 77.6289 1227.93 67.375 1204.69 62.8828L1182.52 58.5859C1167.09 55.5586 1161.53 51.9453 1161.53 40.3242C1161.53 28.8984 1170.22 20.5 1188.77 20.5C1207.23 20.5 1218.85 28.8984 1219.34 49.6992H1237.6C1237.31 19.3281 1218.07 4.67969 1188.97 4.67969C1159.87 4.67969 1142.39 19.5234 1142.39 42.1797C1142.39 60.832 1153.23 72.0625 1174.12 76.0664L1198.34 80.7539C1214.46 83.8789 1220.51 88.957 1220.51 100.09C1220.51 111.125 1210.65 119.23 1191.02 119.23C1181.45 119.23 1173.44 116.301 1167 110.734C1160.45 105.07 1157.13 101.652 1156.64 89.8359H1138.68C1138.77 121.379 1161.43 135.344 1190.73 135.344Z" stroke="#AF2319" stroke-opacity="0.25" stroke-width="2" stroke-linecap="round"/>
</svg>
