<svg width="445" height="69" viewBox="0 0 445 69" fill="none" xmlns="http://www.w3.org/2000/svg">
<line x1="444.5" y1="0.5" x2="0.5" y2="0.5" stroke="#AF2319" stroke-linecap="square"/>
<line x1="444.5" y1="68.5" x2="0.5" y2="68.5" stroke="#AF2319" stroke-linecap="square"/>
<line x1="444.5" y1="67.5" x2="444.5" y2="39.5" stroke="#AF2319" stroke-linecap="square"/>
<line x1="0.5" y1="67.5" x2="0.500002" y2="39.5" stroke="#AF2319" stroke-linecap="square"/>
<line x1="0.5" y1="28.5" x2="0.500002" y2="0.5" stroke="#AF2319" stroke-linecap="square"/>
<line x1="444.5" y1="28.5" x2="444.5" y2="0.5" stroke="#AF2319" stroke-linecap="square"/>
<path d="M44.8223 45H48.6016C47.8809 44.2266 47.6699 43.7695 47.5645 43.1367C47.4414 42.4688 47.2832 41.2383 47.1426 39.4102C46.9492 37.0371 46.1055 35.4375 44.1543 34.6816C46.5273 34.0137 47.9688 32.0625 47.9688 29.127C47.9688 24.8203 44.9629 22.3242 39.4082 22.3242H30.1973V45H33.6777V36.0703H39.6543C42.2207 36.0703 43.5391 37.3184 43.6973 39.9375C43.7676 41.2383 43.8379 42.3984 43.9609 43.2598C44.1016 44.2441 44.4004 44.8594 44.8223 45ZM39.2324 25.3301C42.7832 25.3301 44.3828 26.8066 44.3828 29.2324C44.3828 31.7988 42.7656 33.1172 39.2324 33.1172H33.6777V25.3301H39.2324ZM53.5832 45H69.7375V41.959H57.0285V34.8223H68.3488V31.8164H57.0285V25.3652H69.4387V22.3242H53.5832V45ZM83.0687 45.4219C88.307 45.4219 91.8402 42.873 91.8402 38.918C91.8402 35.0332 89.766 33.1875 85.5824 32.3789L81.5922 31.6055C78.8148 31.0605 77.8129 30.4102 77.8129 28.3184C77.8129 26.2617 79.3773 24.75 82.7172 24.75C86.0395 24.75 88.1312 26.2617 88.2191 30.0059H91.5062C91.4535 24.5391 87.9906 21.9023 82.7523 21.9023C77.5141 21.9023 74.3676 24.5742 74.3676 28.6523C74.3676 32.0098 76.3187 34.0312 80.0805 34.752L84.4398 35.5957C87.3402 36.1582 88.4301 37.0723 88.4301 39.0762C88.4301 41.0625 86.6547 42.5215 83.1215 42.5215C81.3988 42.5215 79.9574 41.9941 78.7973 40.9922C77.6195 39.9727 77.0219 39.3574 76.934 37.2305H73.6996C73.7172 42.9082 77.7953 45.4219 83.0687 45.4219ZM105.347 45C112.449 45 116.914 40.6934 116.914 33.6621C116.914 26.6309 112.449 22.3242 105.347 22.3242H97.0855V45H105.347ZM105.171 25.3301C110.392 25.3301 113.416 28.3535 113.416 33.6621C113.433 38.9707 110.41 41.9941 105.171 41.9941H100.654V25.3301H105.171ZM122.018 45H138.173V41.959H125.464V34.8223H136.784V31.8164H125.464V25.3652H137.874V22.3242H122.018V45ZM152.805 45.4395C158.605 45.4219 162.314 42.0645 163.264 36.5801H159.801C159.133 40.1484 156.637 42.3105 152.77 42.3105C148.463 42.3105 145.334 38.9707 145.334 33.6621C145.334 28.3535 148.463 24.9961 152.77 24.9961C156.654 24.9961 159.115 27 159.783 30.5332H163.246C162.279 25.1191 158.553 21.9023 152.805 21.9023C146.459 21.9023 141.695 26.7715 141.695 33.6621C141.695 37.1074 142.75 39.9375 144.877 42.1523C147.004 44.3496 149.641 45.4395 152.805 45.4395ZM193.459 45H197.239L187.817 22.3242H184.143L174.897 45H178.448L181.032 38.4961H190.788L193.459 45ZM185.954 26.6309L189.592 35.543H182.209L185.954 26.6309ZM209.779 36.7383C215.334 36.7383 218.603 34.0137 218.603 29.4961C218.603 24.9434 215.281 22.3242 209.779 22.3242H201.535V45H205.05V36.7383H209.779ZM209.726 25.3301C213.488 25.3301 215.545 26.6309 215.545 29.373C215.545 32.1328 213.453 33.7148 209.726 33.7148H205.05V25.3301H209.726ZM231.583 36.7383C237.137 36.7383 240.407 34.0137 240.407 29.4961C240.407 24.9434 237.085 22.3242 231.583 22.3242H223.339V45H226.854V36.7383H231.583ZM231.53 25.3301C235.292 25.3301 237.348 26.6309 237.348 29.373C237.348 32.1328 235.257 33.7148 231.53 33.7148H226.854V25.3301H231.53ZM263.484 45.4395C269.284 45.4219 272.993 42.0645 273.943 36.5801H270.48C269.812 40.1484 267.316 42.3105 263.448 42.3105C259.142 42.3105 256.013 38.9707 256.013 33.6621C256.013 28.3535 259.142 24.9961 263.448 24.9961C267.333 24.9961 269.794 27 270.462 30.5332H273.925C272.958 25.1191 269.232 21.9023 263.484 21.9023C257.138 21.9023 252.374 26.7715 252.374 33.6621C252.374 37.1074 253.429 39.9375 255.556 42.1523C257.683 44.3496 260.32 45.4395 263.484 45.4395ZM289.401 45.4219C296.01 45.4219 300.686 40.6055 300.686 33.6621C300.686 30.1992 299.631 27.3691 297.539 25.1719C295.448 22.9922 292.723 21.9023 289.418 21.9023C282.791 21.9023 278.151 26.7188 278.151 33.6621C278.151 40.6055 282.791 45.4219 289.401 45.4219ZM289.401 25.0137C293.989 25.0137 296.977 28.3184 296.995 33.6621C296.995 39.0059 294.041 42.3105 289.418 42.3105C284.795 42.3105 281.789 38.9707 281.789 33.6621C281.789 28.3535 284.813 25.0137 289.401 25.0137ZM321.576 45H324.388V22.3242H321.031V38.7598L308.937 22.3242H305.808V45H309.166V28.2129L321.576 45ZM340.638 45.4395C346.438 45.4219 350.147 42.0645 351.096 36.5801H347.634C346.966 40.1484 344.47 42.3105 340.602 42.3105C336.296 42.3105 333.167 38.9707 333.167 33.6621C333.167 28.3535 336.296 24.9961 340.602 24.9961C344.487 24.9961 346.948 27 347.616 30.5332H351.079C350.112 25.1191 346.386 21.9023 340.638 21.9023C334.292 21.9023 329.528 26.7715 329.528 33.6621C329.528 37.1074 330.583 39.9375 332.71 42.1523C334.837 44.3496 337.473 45.4395 340.638 45.4395ZM355.252 45H371.406V41.959H358.697V34.8223H370.018V31.8164H358.697V25.3652H371.107V22.3242H355.252V45ZM385.019 36.7383C390.573 36.7383 393.843 34.0137 393.843 29.4961C393.843 24.9434 390.521 22.3242 385.019 22.3242H376.775V45H380.29V36.7383H385.019ZM384.966 25.3301C388.728 25.3301 390.784 26.6309 390.784 29.373C390.784 32.1328 388.693 33.7148 384.966 33.7148H380.29V25.3301H384.966ZM408.686 25.3652H416.86V22.3242H397.137V25.3652H405.17V45H408.686V25.3652Z" fill="white"/>
</svg>
