<svg width="255" height="255" viewBox="0 0 255 255" fill="none" xmlns="http://www.w3.org/2000/svg">
<rect width="255" height="255" rx="40" fill="#3954DB"/>
<path d="M102.108 131.786L78.5644 112.508C78.4443 112.41 78.2715 112.41 78.1514 112.508L54.4422 131.92C54.2102 132.11 54.0757 132.394 54.0757 132.694L54.0772 202.08C54.0772 202.357 54.4012 202.508 54.6131 202.33L102.103 162.33C102.315 162.151 102.639 162.301 102.639 162.579V193.818C102.639 197.729 105.572 200.662 109.483 200.662H186.888C202.043 199.848 202.532 180.293 197.48 176.056L143.819 127.907C143.672 127.775 143.67 127.548 143.821 127.42C146.702 124.982 171.151 104.297 187.54 90.666C204.976 76.1628 200.739 53.1857 186.725 53.1857H161.666C161.432 53.1857 161.205 53.2679 161.025 53.4179L103.065 101.774C102.838 101.964 102.706 102.244 102.705 102.54L102.64 131.534C102.64 131.809 102.32 131.96 102.108 131.786Z" fill="white" fill-opacity="0.62"/>
<path d="M55.5794 203.477L55.5794 203.477L101.139 165.103V193.818C101.139 198.558 104.743 202.162 109.483 202.162H186.888H186.928L186.968 202.16C191.104 201.938 194.319 200.423 196.686 198.152C199.031 195.9 200.472 192.975 201.216 190.007C201.96 187.042 202.029 183.962 201.565 181.315C201.113 178.736 200.109 176.316 198.465 174.924L145.824 127.691C151.383 122.988 173.376 104.398 188.499 91.8192C197.566 84.2777 201.096 74.4423 200.421 66.3622C199.75 58.3287 194.781 51.6857 186.725 51.6857H161.666C161.08 51.6857 160.514 51.8911 160.064 52.2661L102.104 100.622C101.536 101.096 101.207 101.797 101.205 102.536L101.146 129.059L79.5147 111.348C78.8419 110.797 77.874 110.797 77.2012 111.348C77.2012 111.348 77.2012 111.348 77.2012 111.348L53.492 130.76C52.912 131.234 52.5757 131.944 52.5757 132.694L52.5772 202.08C52.5772 203.633 54.392 204.477 55.5794 203.477ZM144.821 126.791C144.822 126.791 144.822 126.792 144.823 126.792L144.821 126.791L144.032 127.67L144.821 126.791Z" stroke="white" stroke-opacity="0.62" stroke-width="3"/>
<path d="M52.4143 59.704L52.4143 59.7071L52.5741 136.719C52.578 138.597 54.7612 139.628 56.2145 138.438L78.358 120.307L100.501 138.438C101.955 139.628 104.138 138.597 104.142 136.719L104.302 59.7071V59.704C104.302 55.2756 100.712 51.6857 96.2833 51.6857H60.4326C56.0042 51.6857 52.4143 55.2756 52.4143 59.704Z" fill="white" stroke="white" stroke-width="3"/>
</svg>
